<svg xmlns="http://www.w3.org/2000/svg" viewBox="0 0 972.17 731.96"><defs><style>.cls-1{fill:#f1f7fc;opacity:0.3;}.cls-2{fill:none;}.cls-3{fill:#0f3dfb;}.cls-4{fill:#5cfbd8;}.cls-5{fill:#fff;}</style></defs><title>img-hero-home</title><g id="Capa_2" data-name="Capa 2"><g id="Capa_1-2" data-name="Capa 1"><path class="cls-1" d="M948.78,492.68c-1.15,1.48-2.33,3-3.53,4.46-102.42,127.19-250.37,44.93-374.12-11.77s-267.42,160.54-452.35,124C1.26,586.06-10,496.26,5.48,419.81v0c.57-1.91,37.48-124.19,156.7-144h0c55.78-9.13,109.69-20.9,110.67-64.21C274.75,128.52,343.53,4.37,479.8.11s147.13,113,229.71,226.94c45.41,62.65,112.17,82.69,163.08,88.05,86.38,9.08,129.52,109,76.19,177.58Z"/><path class="cls-1" d="M899.63,23.82C769.46-56.9,644.43,133.91,769,223.07c16.68,12,36.64,22.54,60.46,31.09,134,48.08,194.71-153.13,70.2-230.34Z"/><path class="cls-1" d="M543.14,710.41c116.43-43.86,57.41-219.94-61.48-183.28a135.49,135.49,0,0,0-28.54,12.59c-119.33,70-93.73,189.51-4.47,192.2,25.52.77,59.28-8.25,94.49-21.51Z"/><rect class="cls-2" x="0.12" width="972.04" height="731.96"/><path class="cls-3" d="M181,323.11a16.45,16.45,0,0,1-16.43-16.43V255.44a2,2,0,0,1,4,0v51.24A12.45,12.45,0,0,0,181,319.11H284.22a2,2,0,0,1,0,4Z"/><path d="M166.54,253.94a1.5,1.5,0,0,1,1.5,1.5v51.24A12.94,12.94,0,0,0,181,319.61H284.22a1.5,1.5,0,0,1,0,3H181A16,16,0,0,1,165,306.68V255.44a1.5,1.5,0,0,1,1.5-1.5m0-1a2.5,2.5,0,0,0-2.5,2.5v51.24A16.94,16.94,0,0,0,181,323.61H284.22a2.5,2.5,0,0,0,0-5H181A11.94,11.94,0,0,1,169,306.68V255.44a2.5,2.5,0,0,0-2.5-2.5Z"/><path class="cls-4" d="M848.1,192.8a5.72,5.72,0,0,1-5.7-5.71v-5.18a6.71,6.71,0,0,0-6.7-6.7H808.62v-4.06a4.9,4.9,0,0,1,4.9-4.89h58.17a4.89,4.89,0,0,1,4.89,4.89V192.8Z"/><path d="M871.69,166.76a4.4,4.4,0,0,1,4.39,4.39V192.3h-28a5.22,5.22,0,0,1-5.2-5.21v-5.18a7.21,7.21,0,0,0-7.2-7.2H809.12v-3.56a4.4,4.4,0,0,1,4.4-4.39h58.17m0-1H813.52a5.4,5.4,0,0,0-5.4,5.39v4.56H835.7a6.2,6.2,0,0,1,6.2,6.2v5.18a6.21,6.21,0,0,0,6.2,6.21h29V171.15a5.4,5.4,0,0,0-5.39-5.39Z"/><path class="cls-5" d="M883.48,199.5v37.16a6.21,6.21,0,0,1-6.2,6.2H805.93a6.21,6.21,0,0,1-6.2-6.2V181.91a6.2,6.2,0,0,1,6.2-6.2H835.7a6.2,6.2,0,0,1,6.2,6.2v5.18a6.21,6.21,0,0,0,6.2,6.21h29.18a6.2,6.2,0,0,1,6.2,6.2Z"/><path class="cls-3" d="M805.93,244.86a8.21,8.21,0,0,1-8.2-8.2V181.91a8.21,8.21,0,0,1,8.2-8.2H835.7a8.21,8.21,0,0,1,8.2,8.2v5.18a4.21,4.21,0,0,0,4.2,4.21h29.18a8.2,8.2,0,0,1,8.2,8.2v37.16a8.21,8.21,0,0,1-8.2,8.2Zm0-67.15a4.2,4.2,0,0,0-4.2,4.2v54.75a4.2,4.2,0,0,0,4.2,4.2h71.35a4.21,4.21,0,0,0,4.2-4.2V199.5a4.21,4.21,0,0,0-4.2-4.2H848.1a8.22,8.22,0,0,1-8.2-8.21v-5.18a4.2,4.2,0,0,0-4.2-4.2Z"/><path d="M835.7,174.21a7.71,7.71,0,0,1,7.7,7.7v5.18a4.72,4.72,0,0,0,4.7,4.71h29.18a7.71,7.71,0,0,1,7.7,7.7v37.16a7.71,7.71,0,0,1-7.7,7.7H805.93a7.7,7.7,0,0,1-7.7-7.7V181.91a7.71,7.71,0,0,1,7.7-7.7H835.7m-29.77,67.15h71.35a4.71,4.71,0,0,0,4.7-4.7V199.5a4.7,4.7,0,0,0-4.7-4.7H848.1a7.72,7.72,0,0,1-7.7-7.71v-5.18a4.71,4.71,0,0,0-4.7-4.7H805.93a4.71,4.71,0,0,0-4.7,4.7v54.75a4.71,4.71,0,0,0,4.7,4.7m29.77-68.15H805.93a8.71,8.71,0,0,0-8.7,8.7v54.75a8.71,8.71,0,0,0,8.7,8.7h71.35a8.71,8.71,0,0,0,8.7-8.7V199.5a8.71,8.71,0,0,0-8.7-8.7H848.1a3.71,3.71,0,0,1-3.7-3.71v-5.18a8.71,8.71,0,0,0-8.7-8.7Zm-29.77,67.15a3.7,3.7,0,0,1-3.7-3.7V181.91a3.7,3.7,0,0,1,3.7-3.7H835.7a3.7,3.7,0,0,1,3.7,3.7v5.18a8.72,8.72,0,0,0,8.7,8.71h29.18a3.7,3.7,0,0,1,3.7,3.7v37.16a3.7,3.7,0,0,1-3.7,3.7Z"/><path class="cls-5" d="M350.93,496.91A33.21,33.21,0,0,1,344,517.29l-.57.72a33.38,33.38,0,0,1-51.68,0l-.57-.72a33.36,33.36,0,0,1,25.9-53.73h1a33.36,33.36,0,0,1,32.84,33.35Z"/><path class="cls-3" d="M317.57,532.26a35.28,35.28,0,0,1-27.38-13c-.13-.15-.59-.75-.59-.75A35.36,35.36,0,0,1,291.52,473c.41-.44.83-.88,1.26-1.3a35.49,35.49,0,0,1,15.1-8.79c.66-.19,1.33-.36,2-.51a35,35,0,0,1,7.07-.85h1.23a35.36,35.36,0,0,1,27.39,56.95l-.2.25-.41.52a35.31,35.31,0,0,1-27.39,13Zm2-5,.63-.17c5-1.31,9.51-6.29,12.34-13.64l.17-.44-.44-.2a36.24,36.24,0,0,0-12.16-2.91l-.54,0ZM315,509.89a36.18,36.18,0,0,0-12.17,2.91l-.44.19.17.45c2.84,7.35,7.34,12.32,12.34,13.64l.63.17v-17.4Zm21,5.56a33.58,33.58,0,0,1-5,8.69L329.6,526l2.63-1.35.43-.23.8-.46.63-.37c.47-.29.93-.59,1.38-.91l.1-.07c.42-.3.83-.6,1.23-.91l.45-.37c.28-.22.57-.45.84-.69l.5-.45c.25-.23.5-.45.74-.69l.38-.38.94-1-.39-.35a31.52,31.52,0,0,0-3.47-2.56l-.51-.33Zm-37.69-.23a29.19,29.19,0,0,0-3.47,2.57l-.4.34.83.86.08.08.41.41c.25.24.51.47.77.7l.46.43.9.74.39.32a30.38,30.38,0,0,0,2.74,1.9l.39.24c.35.2.69.41,1,.6l.91.47,2.07,1-1.42-1.79a33.65,33.65,0,0,1-5-8.68l-.22-.56Zm41.09-15.84a52.61,52.61,0,0,1-1.79,11.28l-.1.36.33.2a34.13,34.13,0,0,1,4.84,3.44l.43.36.31-.46a31.18,31.18,0,0,0,5.36-15.11l0-.54h-9.4Zm-53.13.07a30.73,30.73,0,0,0,5.35,15.11l.32.46.42-.37a35,35,0,0,1,4.84-3.43l.33-.2-.1-.37a51.8,51.8,0,0,1-1.78-11.27l0-.47h-9.39Zm33.25,6.39.47,0a40.5,40.5,0,0,1,13.33,3.06l.54.23.14-.57a48.3,48.3,0,0,0,1.37-9.16l0-.52H319.57Zm-19.85-6.41a48.31,48.31,0,0,0,1.38,9.16l.14.57.53-.23a40.5,40.5,0,0,1,13.33-3.06l.47,0v-6.93H299.69Zm41.82-21.95a37.77,37.77,0,0,1-4.09,2.73l-.35.2.12.38a52.25,52.25,0,0,1,2.27,13.64l0,.48h9.35l0-.54a31.21,31.21,0,0,0-6.58-16.81l-.31-.39ZM333,482.39A40.29,40.29,0,0,1,320,485.28l-.47,0v9.6h15.94l0-.52a47.77,47.77,0,0,0-1.88-11.67l-.15-.53Zm-31.42.33a48.17,48.17,0,0,0-1.87,11.67l0,.52h15.94v-9.6l-.47,0a40.5,40.5,0,0,1-12.9-2.89l-.51-.2Zm-8.62-5.16a31.13,31.13,0,0,0-6.58,16.81l-.05.54h9.36v-.48a52.53,52.53,0,0,1,2.27-13.64l.12-.38-.34-.2a34.22,34.22,0,0,1-4.09-2.73l-.4-.31Zm26.66,3.74.53,0a36.07,36.07,0,0,0,11.52-2.64l.47-.19-.2-.47c-2.85-6.45-7.11-10.84-11.69-12.06l-.63-.17Zm-4.63-15.4c-4.58,1.23-8.84,5.62-11.68,12.06l-.21.47.48.19A36,36,0,0,0,315,481.26l.53,0V465.73Zm17.2,4.34a35,35,0,0,1,3.3,5.86l.23.52.49-.29c.95-.58,1.8-1.15,2.58-1.74l.48-.36-.66-.6-.46-.41-.69-.58-.5-.4c-.23-.18-.47-.37-.72-.54l-.5-.37-.76-.52-.5-.32c-.27-.18-.56-.35-.84-.52l-.45-.27-2.26-1.23ZM302,469.7l-.47.28c-.31.19-.57.34-.82.51s-.51.33-.51.33l-.75.51-.51.37-.71.54-.51.4-.68.57-.6.54-.52.48.48.36a29.62,29.62,0,0,0,2.58,1.74l.49.29.23-.52a33.67,33.67,0,0,1,3.3-5.86l1.25-1.76Z"/><path d="M317.62,462.05h.58a34.86,34.86,0,0,1,34.23,34.85,34.51,34.51,0,0,1-7.26,21.29l-.19.25-.05.06-.36.45a34.87,34.87,0,0,1-21.18,12.32,35.34,35.34,0,0,1-5.82.48,34.78,34.78,0,0,1-27-12.8l-.36-.45,0-.06-.17-.22a34.86,34.86,0,0,1,1.59-44.55h0l.27-.29,0,0c.39-.43.81-.86,1.24-1.28A35.11,35.11,0,0,1,308,463.4c.73-.21,1.38-.37,2-.51a34.64,34.64,0,0,1,6.95-.83h.68m1.45,19.78,1.07-.07a36.81,36.81,0,0,0,11.67-2.68l.95-.39-.42-.93c-2.9-6.59-7.28-11.09-12-12.34l-1.26-.34v16.75m-3,0V465.08l-1.26.34c-4.73,1.26-9.11,5.76-12,12.34l-.41.93.95.39A36.68,36.68,0,0,0,315,481.76l1.06.07m19.38-4.49,1-.59A30.54,30.54,0,0,0,339,475l1-.72-.89-.82-.08-.07-.13-.12-.48-.42c-.23-.2-.46-.4-.7-.59s-.33-.27-.5-.4l-.74-.56-.5-.37c-.25-.18-.51-.35-.78-.53l-.14-.09-.36-.23-.85-.53-.16-.09-.31-.18-.21-.12-.14-.08L329.19,467l2.54,3.58a34.06,34.06,0,0,1,3.25,5.78l.47,1m-35.75,0,.46-1a34.76,34.76,0,0,1,3.25-5.78l2.53-3.55-3.82,2.1-.12.06-.23.13-.34.2-.14.08-.84.51-.4.27-.11.07c-.26.17-.52.34-.77.52l-.52.38-.72.54-.51.41-.69.58-.48.42a1.85,1.85,0,0,0-.14.14l-.07.06-.9.82,1,.72c.79.6,1.65,1.17,2.62,1.77l1,.58M339,495.41H349.4l-.08-1.08a31.71,31.71,0,0,0-6.69-17.07l-.61-.79-.79.61a34.44,34.44,0,0,1-4,2.69l-.7.4.24.77a51.26,51.26,0,0,1,2.25,13.5l0,1m-53.29,0h10.38l0-1a52,52,0,0,1,2.25-13.5l.24-.77-.7-.4a34.87,34.87,0,0,1-4-2.69l-.78-.61-.62.79a31.59,31.59,0,0,0-6.68,17.07l-.09,1.08m13.37,0h17V484.84l-.94-.06a40,40,0,0,1-12.74-2.85l-1-.42-.31,1.07a48.59,48.59,0,0,0-1.89,11.79l-.05,1m20,0h17l0-1a48.27,48.27,0,0,0-1.9-11.79l-.31-1.07-1,.42A40.09,40.09,0,0,1,320,484.78l-.94.06v10.57m24.19,20.35.62-.92a31.53,31.53,0,0,0,5.44-15.35l.09-1.08H339l-.05.95a51.4,51.4,0,0,1-1.77,11.16l-.2.74.66.39a33.49,33.49,0,0,1,4.77,3.39l.85.72m-9-5.91.28-1.13a48.68,48.68,0,0,0,1.39-9.26l.06-1H319.07v7.9l.94.06a39.55,39.55,0,0,1,13.17,3l1.07.45m-33.35,0,1.07-.45a39.67,39.67,0,0,1,13.16-3l.94-.06v-7.9H299.16l.06,1a49.49,49.49,0,0,0,1.39,9.26l.29,1.12m-9,5.92.85-.72a33.49,33.49,0,0,1,4.77-3.39l.66-.39-.21-.74a51.49,51.49,0,0,1-1.76-11.16l-.05-.95H285.74l.08,1.08a31.27,31.27,0,0,0,5.44,15.35l.63.92m27.18,12.14,1.26-.33c5.16-1.36,9.78-6.44,12.68-14l.34-.89-.88-.38a36.54,36.54,0,0,0-12.33-3l-1.07-.07V527.9m-3,0V509.32l-1.06.07a36.65,36.65,0,0,0-12.34,3l-.88.39.35.89c2.89,7.5,7.51,12.59,12.68,14l1.25.33m-8.74-.5-2.89-3.58a33.41,33.41,0,0,1-4.88-8.55l-.45-1.13-1,.66a29.9,29.9,0,0,0-3.53,2.61l-.79.68.72.76.47.49.08.08.42.42.78.72.15.13.33.3c.3.26.6.51.91.75l.15.12.24.2c.89.69,1.83,1.34,2.78,1.94l.24.14.17.1,1.05.61.37.19.17.09.42.21,4.11,2.06m20.42.08,4.18-2.14.13-.07.24-.12.19-.09.41-.22.86-.5.1-.06.16-.09.33-.2c.5-.31,1-.61,1.4-.91l.11-.09c.46-.32.87-.62,1.25-.92l.3-.24.15-.13c.29-.23.58-.46.86-.71l.33-.29.18-.16.05,0,.69-.64.39-.39.13-.13.46-.48.73-.76-.8-.68a30.34,30.34,0,0,0-3.52-2.61l-1-.65-.45,1.12a33.26,33.26,0,0,1-4.89,8.55l-2.95,3.66m-10.13-66.43h-.68a35.76,35.76,0,0,0-7.17.86c-.68.15-1.35.33-2,.52a36,36,0,0,0-15.31,8.91c-.44.43-.87.87-1.28,1.33h0a35.86,35.86,0,0,0-1.95,46.16l.18.23c.14.18.28.36.42.52a35.79,35.79,0,0,0,27.77,13.17h0a36.93,36.93,0,0,0,6-.49,35.83,35.83,0,0,0,21.79-12.67l.42-.53.2-.25a35.85,35.85,0,0,0-2-46.14,36,36,0,0,0-25.79-11.62Zm2.45,19.71V466.38c4.44,1.18,8.57,5.46,11.36,11.78a36,36,0,0,1-11.36,2.6Zm-5,0a35.94,35.94,0,0,1-11.35-2.6c2.78-6.31,6.91-10.59,11.35-11.77v14.37Zm20.83-4.86a34.82,34.82,0,0,0-3.36-5.95,3.9,3.9,0,0,1,.35.19l.45.26.83.51.48.32.75.51.5.36.71.54.48.38c.23.19.46.38.68.58l.46.4.21.19a29.66,29.66,0,0,1-2.54,1.71Zm-36.65,0a29.66,29.66,0,0,1-2.54-1.71l.2-.19.47-.41c.22-.19.44-.38.67-.56l.49-.4.7-.53.51-.36.74-.51.49-.32.82-.5.46-.27.34-.19a34.51,34.51,0,0,0-3.35,5.95ZM340,494.41a52.9,52.9,0,0,0-2.29-13.77,36.09,36.09,0,0,0,4.15-2.77,30.79,30.79,0,0,1,6.47,16.54Zm-53.17,0a30.8,30.8,0,0,1,6.48-16.54,35.24,35.24,0,0,0,4.15,2.77,52.48,52.48,0,0,0-2.29,13.77Zm33.25,0v-8.63a41.46,41.46,0,0,0,13.06-2.92A47.84,47.84,0,0,1,335,494.41Zm-19.92,0A48.33,48.33,0,0,1,302,482.86a41.46,41.46,0,0,0,13.06,2.92v8.63Zm42.91,19.87a35.48,35.48,0,0,0-4.91-3.49,52.82,52.82,0,0,0,1.8-11.38h8.38a30.53,30.53,0,0,1-5.27,14.87Zm-9.5-5.81a41.06,41.06,0,0,0-13.49-3.1v-6h14.86a48.5,48.5,0,0,1-1.37,9.06Zm-32,0a47.69,47.69,0,0,1-1.36-9.06h14.85v6a41.06,41.06,0,0,0-13.49,3.1Zm-9.49,5.81a30.43,30.43,0,0,1-5.27-14.87h8.38a52.21,52.21,0,0,0,1.8,11.38,34.65,34.65,0,0,0-4.91,3.49Zm28,12.32V510.39a35.88,35.88,0,0,1,12,2.87c-2.76,7.18-7.17,12.07-12,13.34Zm-5,0c-4.83-1.27-9.23-6.16-12-13.34a35.88,35.88,0,0,1,12-2.87V526.6Zm-11.4-2.15-.4-.21-.53-.27-1-.59-.4-.23a29.43,29.43,0,0,1-2.69-1.88c-.13-.1-.26-.2-.38-.31-.3-.24-.6-.48-.89-.73l-.46-.42c-.25-.22-.51-.45-.75-.69l-.48-.48-.46-.48a28.89,28.89,0,0,1,3.41-2.52,34.05,34.05,0,0,0,5,8.81Zm27.81,0a34.34,34.34,0,0,0,5-8.81,31.31,31.31,0,0,1,3.41,2.52l-.45.47-.5.49-.72.68c-.17.14-.33.29-.49.44l-.83.68c-.15.12-.29.25-.44.36-.4.31-.8.61-1.22.9l-.1.07c-.44.31-.9.61-1.36.89l-.47.29-.93.53c-.19.11-.39.2-.58.3l-.36.19Z"/><path class="cls-5" d="M216.65,170.69h-1.82a23.28,23.28,0,0,0-33.28-20.31A35.47,35.47,0,0,0,117,170.69h-.57a17.74,17.74,0,0,0,0,35.48H216.65a17.74,17.74,0,0,0,0-35.48Z"/><path class="cls-3" d="M116.43,208.17a19.74,19.74,0,0,1-1.82-39.4l.43,0,0-.43A37.47,37.47,0,0,1,182,147.61l.23.29.34-.13a25.3,25.3,0,0,1,34.09,20.49l.06.42h.43a19.74,19.74,0,0,1-.49,39.48Zm0-35.48a15.74,15.74,0,0,0,0,31.48H216.65a15.74,15.74,0,0,0,0-31.48h-1.82a2,2,0,0,1-2-1.94,21.28,21.28,0,0,0-30.42-18.56,2,2,0,0,1-.86.19,2,2,0,0,1-1.64-.85A33.47,33.47,0,0,0,119,170.69a2,2,0,0,1-2,2Z"/><path d="M152.47,133.71a37.28,37.28,0,0,1,29.13,14.21l.45.58.69-.26a24.8,24.8,0,0,1,33.42,20.08l.1.85.87,0a19.24,19.24,0,0,1-.48,38.48H116.43a19.24,19.24,0,0,1-1.77-38.4l.85-.08.06-.85a37,37,0,0,1,36.9-34.63m-36,71H216.65a16.24,16.24,0,0,0,0-32.48h-1.82a1.5,1.5,0,0,1-1.5-1.46,21.77,21.77,0,0,0-31.13-19,1.62,1.62,0,0,1-.65.14,1.5,1.5,0,0,1-1.23-.64,34,34,0,0,0-61.83,19.45,1.5,1.5,0,0,1-1.5,1.5h-.56a16.24,16.24,0,0,0,0,32.48m36-72a38,38,0,0,0-37.9,35.56,20.24,20.24,0,0,0,1.86,40.4H216.65a20.24,20.24,0,0,0,.5-40.48,25.79,25.79,0,0,0-34.77-20.88,38,38,0,0,0-29.91-14.6Zm-36,71a15.24,15.24,0,0,1,0-30.48H117a2.5,2.5,0,0,0,2.5-2.5,33,33,0,0,1,60-18.87,2.52,2.52,0,0,0,2.05,1.06,2.57,2.57,0,0,0,1.08-.24,20.78,20.78,0,0,1,29.71,18.12,2.5,2.5,0,0,0,2.49,2.43h1.82a15.24,15.24,0,0,1,0,30.48Z"/><path class="cls-3" d="M711.48,309.21a2,2,0,0,1,0-4h113.3a14.84,14.84,0,0,0,14.82-14.82v-39a2,2,0,0,1,4,0v39a18.84,18.84,0,0,1-18.82,18.82Z"/><path d="M841.6,249.88a1.5,1.5,0,0,1,1.5,1.5v39a18.34,18.34,0,0,1-18.32,18.32H711.48a1.5,1.5,0,0,1,0-3h113.3a15.33,15.33,0,0,0,15.32-15.32v-39a1.51,1.51,0,0,1,1.5-1.5m0-1a2.5,2.5,0,0,0-2.5,2.5v39a14.33,14.33,0,0,1-14.32,14.32H711.48a2.5,2.5,0,0,0,0,5h113.3a19.34,19.34,0,0,0,19.32-19.32v-39a2.5,2.5,0,0,0-2.5-2.5Z"/><rect class="cls-4" x="143.95" y="191.97" width="44.52" height="44.52" rx="5.2"/><path d="M183.28,192.47a4.7,4.7,0,0,1,4.69,4.7V231.3a4.69,4.69,0,0,1-4.69,4.69H149.15a4.7,4.7,0,0,1-4.7-4.69V197.17a4.71,4.71,0,0,1,4.7-4.7h34.13m0-1H149.15a5.7,5.7,0,0,0-5.7,5.7V231.3a5.7,5.7,0,0,0,5.7,5.69h34.13A5.69,5.69,0,0,0,189,231.3V197.17a5.7,5.7,0,0,0-5.69-5.7Z"/><path class="cls-5" d="M162.35,222.3a2.53,2.53,0,0,1-1.75-.71L151.74,213a2.5,2.5,0,1,1,3.49-3.58l7.3,7.11,14.88-11.61a2.5,2.5,0,0,1,3.07,3.94l-16.59,13a2.54,2.54,0,0,1-1.54.53Z"/><circle class="cls-4" cx="225.09" cy="389.74" r="18.25"/><path d="M225.09,372a17.75,17.75,0,1,1-17.75,17.74A17.76,17.76,0,0,1,225.09,372m0-1a18.75,18.75,0,1,0,18.75,18.74A18.75,18.75,0,0,0,225.09,371Z"/><path class="cls-5" d="M757.65,394.68a13.82,13.82,0,1,1-13.82-13.82,13.81,13.81,0,0,1,13.82,13.82Z"/><path class="cls-3" d="M743.83,410.49a15.82,15.82,0,1,1,15.82-15.81A15.82,15.82,0,0,1,743.83,410.49Zm0-27.63a11.82,11.82,0,1,0,11.82,11.82A11.83,11.83,0,0,0,743.83,382.86Z"/><path d="M743.83,379.36a15.32,15.32,0,1,1-15.31,15.32,15.33,15.33,0,0,1,15.31-15.32m0,27.63a12.32,12.32,0,1,0-12.31-12.31A12.33,12.33,0,0,0,743.83,407m0-28.63a16.32,16.32,0,1,0,16.32,16.32,16.33,16.33,0,0,0-16.32-16.32Zm0,27.63a11.32,11.32,0,1,1,11.32-11.31A11.32,11.32,0,0,1,743.83,406Z"/><path class="cls-5" d="M311.06,170.9a9,9,0,1,1-9-9,9,9,0,0,1,9,9Z"/><path class="cls-3" d="M302.06,181.9a11,11,0,1,1,11-11A11,11,0,0,1,302.06,181.9Zm0-18a7,7,0,1,0,7,7A7,7,0,0,0,302.06,163.9Z"/><path d="M302.06,160.4a10.5,10.5,0,1,1-10.51,10.5,10.51,10.51,0,0,1,10.51-10.5m0,18a7.5,7.5,0,1,0-7.51-7.5,7.52,7.52,0,0,0,7.51,7.5m0-19a11.5,11.5,0,1,0,11.5,11.5,11.52,11.52,0,0,0-11.5-11.5Zm0,18a6.5,6.5,0,1,1,6.5-6.5,6.51,6.51,0,0,1-6.5,6.5Z"/><path class="cls-3" d="M731.53,478.61h-.23a2,2,0,0,1-1.34-.74,2,2,0,0,1-.42-1.47,150.92,150.92,0,0,0,0-34.84,2,2,0,0,1,1.75-2.22h.24a2,2,0,0,1,2,1.77,154.87,154.87,0,0,1,.06,35.75A2,2,0,0,1,731.53,478.61Z"/><path d="M731.48,439.82h0a1.49,1.49,0,0,1,1.48,1.32,154,154,0,0,1,.06,35.65,1.5,1.5,0,0,1-1.49,1.32h-.17a1.48,1.48,0,0,1-1.32-1.66A151.22,151.22,0,0,0,730,441.5a1.51,1.51,0,0,1,1.32-1.67h.18m0-1-.3,0a2.5,2.5,0,0,0-2.19,2.77,150.44,150.44,0,0,1,.06,34.72,2.5,2.5,0,0,0,2.19,2.77h.29A2.49,2.49,0,0,0,734,476.9,155.35,155.35,0,0,0,734,441a2.5,2.5,0,0,0-2.48-2.21Z"/><path class="cls-3" d="M744.42,473.73a1.68,1.68,0,0,1-.45-.05,2,2,0,0,1-1.51-2.39,61.53,61.53,0,0,0,1.27-19.51,2,2,0,0,1,1.8-2.18h.19a2,2,0,0,1,2,1.81,65.38,65.38,0,0,1-1.35,20.78A2,2,0,0,1,744.42,473.73Z"/><path d="M745.72,450.09a1.52,1.52,0,0,1,1.5,1.36,65.27,65.27,0,0,1-1.34,20.62,1.53,1.53,0,0,1-1.46,1.17,1.86,1.86,0,0,1-.34,0,1.52,1.52,0,0,1-1.13-1.8,62.24,62.24,0,0,0,1.28-19.67,1.49,1.49,0,0,1,1.35-1.63h.14m0-1h-.23a2.5,2.5,0,0,0-2.26,2.73A61.12,61.12,0,0,1,742,471.18a2.49,2.49,0,0,0,1.88,3,2.15,2.15,0,0,0,.56.07,2.5,2.5,0,0,0,2.43-1.95,65.8,65.8,0,0,0,1.36-20.94,2.51,2.51,0,0,0-2.49-2.26Z"/><path class="cls-3" d="M418.41,580.12l-24.29-8.53,8.23-18.69a109.74,109.74,0,0,0-24.17-122.76,39.25,39.25,0,0,1-12-28.13c0-.73,0-1.5.08-2.35l.36-6c1.2,0,2.43-.11,3.67-.24C388,391.62,404,382.51,418,366.36c35.14-7.24,68.64-22.32,85.49-30.68.77-.37,1.51-.75,2.22-1.1l.63-.32.11-.06,3-1.51c4.83-2.5,7.78-4.17,8.24-4.43.21-.05.87-.21,2-.43A293.42,293.42,0,0,1,577,322c8,0,15.76.38,23.13,1.11l0,0h.22c1.58.17,3.15.34,4.74.54,25.62,3.19,46.68,10.9,62.61,22.92.27.21.55.41.81.62l1.33,1c.72.58,1.42,1.18,2.11,1.78,25.84,22.63,34.1,62.51,36.47,92a312.28,312.28,0,0,1-1,58.78l-34.7.66-2.42,0-52.53,1-2.36,0-8.71.18c-.06-3.6-.75-25.62-7.46-47.38-9.71-31.46-27.57-48.09-51.64-48.09a59,59,0,0,0-7.29.47,8.27,8.27,0,0,0-5.8,3.53,8.18,8.18,0,0,0-1.17,6.59c4.67,18.36,10.74,46.64,9.51,80.1-1.59,43.25-15.06,80.88-40.05,111.87Z"/><path d="M577,322.51c7.9,0,15.61.37,22.92,1.09l0,0h.38c1.67.18,3.21.35,4.71.54h.06c25.5,3.19,46.46,10.87,62.31,22.83.27.19.54.4.84.63s.86.67,1.29,1c.7.57,1.4,1.16,2.09,1.77,11.33,9.92,20.24,24,26.48,41.82,5,14.31,8.31,31.06,9.82,49.79a311.52,311.52,0,0,1-.95,58.28l-32.16.61-2.1,0-2.42,0L619.9,502l-2.14,0-2.36,0-8.21.16c-.12-4.83-1-26.05-7.47-47-9.79-31.69-27.81-48.44-52.12-48.44a60,60,0,0,0-7.35.47,8.76,8.76,0,0,0-6.15,3.74,8.64,8.64,0,0,0-1.24,7c4.66,18.33,10.72,46.57,9.49,80-1.58,43-14.94,80.45-39.72,111.3l-35-12.3-4.26-1.5-44.81-15.75-2.17-.76-2.13-.75L394.8,571.3l8-18.2a110.23,110.23,0,0,0-24.28-123.32A38.74,38.74,0,0,1,366.72,402c0-.73,0-1.49.08-2.33l.27-4.41.06-1.12c1.07,0,2.16-.11,3.25-.22,17.75-1.83,33.86-10.95,47.9-27.12,35.13-7.27,68.6-22.34,85.45-30.69L506,335l.5-.25h0l.21-.11,2.4-1.23.57-.29c4.65-2.4,7.57-4.05,8.2-4.4.26-.07.89-.21,1.87-.42a293.61,293.61,0,0,1,57.24-5.8m0-1a292.47,292.47,0,0,0-57.45,5.83c-1.33.28-2,.45-2,.45s-3,1.72-8.29,4.46l-3,1.51h0c-.93.47-1.91,1-2.95,1.48-18,8.92-50.87,23.55-85.54,30.67-11.95,13.85-27.56,25-47.47,27-1.39.14-2.75.22-4.09.24l-.12,2-.27,4.41c-.05.8-.08,1.59-.08,2.39a39.54,39.54,0,0,0,12.11,28.48,108.85,108.85,0,0,1,24.06,122.2l-8.44,19.19,20.49,7.2,2.13.75,2.17.75,44.81,15.75,4.26,1.5L503,610.38c58.94-72.8,38.46-162.8,30.86-192.68a7.69,7.69,0,0,1,6.54-9.5,57,57,0,0,1,7.23-.47c58.28,0,58.61,95.48,58.61,95.48l9.21-.18,2.36,0,2.14,0,50.39-.94,2.42,0,2.1,0,33-.62s14.69-107.62-35.58-151.63c-.69-.61-1.4-1.21-2.12-1.79-.44-.36-.89-.71-1.34-1.06l-.82-.62c-18.07-13.64-40.67-20.26-62.84-23h0c-1.61-.2-3.21-.38-4.81-.55h0c-8-.8-15.82-1.13-23.34-1.13Z"/><path class="cls-5" d="M457.53,196.49c-2.25,7.58-6.59,14.92-14.48,19.86-20.77,13-47.1,2-53.06-16.28a25,25,0,0,1-1.24-7.89s-18.76,1.13-20.34-13.47c-.75-7,2.66-11,7.09-12.28l.21-.06a12.57,12.57,0,0,1,9,1.17h0a10.1,10.1,0,0,1,3.71,6.2c.82,3.54,7.66-.25,10.61-2.08,5.12-3.18,9.61-9.17,12.15-14.6a16,16,0,0,1,3.74,2c12.16,7.1,26.86,9.3,40.71,7.39.94-.14,1.89-.29,2.82-.48.65,3.29,3,17.29-1,30.53Z"/><path class="cls-3" d="M390.53,174.71c-1.18,0-1.46-.58-1.58-1.08a10.79,10.79,0,0,0-3.79-6.4l-.08-.18h-.19a9.77,9.77,0,0,0-5.7-1.64,13.72,13.72,0,0,0-3.47.45c-2.75-4.23-5.29-8.42-6.39-13a17.19,17.19,0,0,1,4.36-15.93c2.12-2.31,6.52-6.18,12.17-6.21h.57l-.08-.57c-.72-5.35,2-11.26,6.75-14.71a21.31,21.31,0,0,1,12.47-3.81,24.88,24.88,0,0,1,3.85.31,35.26,35.26,0,0,1,15.6,7l.49.36.26-.54c3.54-7.29,9.75-12.67,16.61-14.4a19.33,19.33,0,0,1,4.7-.57c6.3,0,12.12,2.92,15.19,7.63a19.66,19.66,0,0,1,2.88,8.45c.79,6.66-1.35,13.14-5.59,16.9l-1.29,1.15,1.71-.28a28.14,28.14,0,0,1,4.75-.44,12.93,12.93,0,0,1,7.44,2c3.55,2.38,5.35,7.27,4.39,11.89a17.15,17.15,0,0,1-7.92,10.64,29.79,29.79,0,0,1-10.24,3.81c-.92.18-1.86.34-2.8.47a70.16,70.16,0,0,1-9.49.65,61.13,61.13,0,0,1-30.89-8c-.31-.18-.61-.37-.9-.56a11.22,11.22,0,0,0-3-1.47l-.41-.11-.18.38c-2.22,4.74-6.53,11-12,14.38C397.13,172.28,393,174.71,390.53,174.71Z"/><path d="M447.08,104.26c6.13,0,11.79,2.83,14.77,7.4a19.14,19.14,0,0,1,2.8,8.24c.78,6.5-1.3,12.81-5.42,16.46l-2.59,2.3,3.42-.56a28.2,28.2,0,0,1,4.66-.43,12.54,12.54,0,0,1,7.18,1.88c3.37,2.27,5.09,6.94,4.17,11.37a16.59,16.59,0,0,1-7.7,10.31A28.94,28.94,0,0,1,458.3,165c-.9.18-1.83.33-2.76.46a67.72,67.72,0,0,1-9.43.65,60.72,60.72,0,0,1-30.64-7.9l-.89-.55a11.43,11.43,0,0,0-3.09-1.53l-.81-.23-.36.77c-2.2,4.68-6.44,10.86-11.78,14.17-3.47,2.15-6.39,3.39-8,3.39-.86,0-1-.33-1.09-.69a11.3,11.3,0,0,0-3.88-6.61l-.17-.37H385a10.27,10.27,0,0,0-5.84-1.64,14.66,14.66,0,0,0-3.25.37c-2.65-4.08-5.07-8.14-6.12-12.58a16.67,16.67,0,0,1,4.24-15.48c2.06-2.25,6.34-6,11.8-6.05H387l-.15-1.12c-.7-5.18,1.93-10.9,6.54-14.25a20.8,20.8,0,0,1,12.18-3.71,24.08,24.08,0,0,1,3.78.3,34.81,34.81,0,0,1,15.37,6.94l1,.73.53-1.09c3.48-7.16,9.56-12.44,16.28-14.13a18.41,18.41,0,0,1,4.58-.56m0-1a19.57,19.57,0,0,0-4.82.59c-7.48,1.88-13.57,7.72-16.94,14.66a36.14,36.14,0,0,0-15.82-7.13,25.82,25.82,0,0,0-3.93-.31A21.74,21.74,0,0,0,392.8,115c-4.73,3.44-7.72,9.39-6.94,15.19-4.82,0-9.28,2.82-12.54,6.37a17.61,17.61,0,0,0-4.48,16.39c1.17,4.91,3.9,9.29,6.66,13.51l.21-.06a13.23,13.23,0,0,1,3.48-.47,9.29,9.29,0,0,1,5.53,1.64h0a10.1,10.1,0,0,1,3.71,6.2,1.87,1.87,0,0,0,2.07,1.46c2.48,0,6.47-2.26,8.54-3.54,5.12-3.18,9.61-9.17,12.15-14.6a16,16,0,0,1,3.74,2,61.77,61.77,0,0,0,31.15,8,70.75,70.75,0,0,0,9.56-.65c.94-.14,1.89-.29,2.82-.48a30.25,30.25,0,0,0,10.41-3.88c4-2.49,7.2-6.38,8.15-11s-.71-9.79-4.6-12.4a13.57,13.57,0,0,0-7.73-2.05,30,30,0,0,0-4.83.44c4.74-4.2,6.5-11,5.76-17.33a20.34,20.34,0,0,0-3-8.66c-3.33-5.11-9.47-7.86-15.6-7.86Z"/><path class="cls-3" d="M423.36,223.59a39.53,39.53,0,0,1-13.52-2.4c-10.37-3.76-18.35-11.47-21.34-20.63a26.74,26.74,0,0,1-1.25-6.31l0-.45-.45,0c-3.07-.07-18.43-1.13-19.92-14.9-.87-8,3.37-12.37,7.77-13.82l.54,1.5.95-.31-.43-1.49a13.56,13.56,0,0,1,3-.33,14.56,14.56,0,0,1,6.82,1.72,1.37,1.37,0,0,1,.2.13,11.57,11.57,0,0,1,4.3,7l.09.35.35,0h.17c1.13,0,3.73-.87,7.67-3.32,5.23-3.24,9.4-9.32,11.56-13.92a1.59,1.59,0,0,1,1.42-.91,1.52,1.52,0,0,1,.42.06,12.08,12.08,0,0,1,3.24,1.59c.32.2.59.38.88.55a60,60,0,0,0,30.29,7.83,69.32,69.32,0,0,0,9.41-.65c.91-.13,1.83-.28,2.74-.46l.3,0a1.59,1.59,0,0,1,1.54,1.27c.77,4,3,17.88-1,31.28-2.74,9.18-7.83,16.16-15.15,20.74A38.64,38.64,0,0,1,423.36,223.59Zm-34.61-33a1.58,1.58,0,0,1,1.08.43,1.54,1.54,0,0,1,.49,1.15,23.6,23.6,0,0,0,1.16,7.4c2.7,8.24,10,15.22,19.43,18.65a36.56,36.56,0,0,0,12.45,2.21A35.5,35.5,0,0,0,442.22,215c6.65-4.17,11.3-10.55,13.81-19,3.32-11.14,2-23.12,1.28-27.76l-.08-.49-1.34.2a72.4,72.4,0,0,1-9.83.68,63.23,63.23,0,0,1-31.89-8.26l-1-.6-.77-.47-.45-.27-.25.46c-1.47,2.76-5.58,9.58-11.84,13.47-4,2.48-7.25,3.79-9.41,3.79a3.82,3.82,0,0,1-1.61-.32,3.25,3.25,0,0,1-1.94-2.37,8.78,8.78,0,0,0-3-5.2,11.3,11.3,0,0,0-5.28-1.33,10.29,10.29,0,0,0-2.49.3l-.28.08c-4.35,1.25-6.5,5.11-5.91,10.6,1.22,11.22,13.81,12.09,17.64,12.09.58,0,1,0,1.05,0Z"/><path d="M411.22,156a1.45,1.45,0,0,1,.29,0,11.88,11.88,0,0,1,3.11,1.54l.07,0c.27.17.54.34.82.5a60.45,60.45,0,0,0,30.54,7.9,70.35,70.35,0,0,0,9.48-.65c.92-.13,1.85-.29,2.76-.47l.21,0a1.07,1.07,0,0,1,1,.87c.78,3.92,3,17.75-1,31-2.7,9.06-7.73,16-14.94,20.47a38.18,38.18,0,0,1-20.26,5.83A39.06,39.06,0,0,1,410,220.72c-10.23-3.71-18.09-11.3-21-20.31a25.9,25.9,0,0,1-1.22-6.2l-.06-.9-.91,0c-3-.07-18-1.09-19.43-14.45-.81-7.46,2.92-11.6,7-13.14l.37,1,1.9-.61-.28-1a12.86,12.86,0,0,1,2.33-.21,14,14,0,0,1,6.32,1.53l.27.14a.42.42,0,0,1,.14.09,11.14,11.14,0,0,1,4.11,6.69l.16.7.72.06h.21c1.2,0,3.91-.89,7.94-3.39,5.32-3.31,9.56-9.47,11.74-14.14a1.08,1.08,0,0,1,1-.62h0m-20.73,20.29a3.27,3.27,0,0,1-1.41-.28,2.76,2.76,0,0,1-1.66-2,9.2,9.2,0,0,0-3.19-5.48l-.07-.05-.07,0a11.86,11.86,0,0,0-5.44-1.34,10.8,10.8,0,0,0-2.62.32h0l-.25.07c-4.53,1.3-6.87,5.46-6.25,11.13,1.26,11.64,14.2,12.54,18.13,12.54.6,0,1,0,1.07,0h.07a1.08,1.08,0,0,1,1.07,1.08,24,24,0,0,0,1.18,7.55c2.75,8.39,10.13,15.49,19.74,19A37,37,0,0,0,423.36,221a36.06,36.06,0,0,0,19.13-5.51c6.57-4.11,11.21-10.35,13.8-18.54h0l.21-.72c3.35-11.24,2-23.31,1.29-28l-.15-1-1,.15-.84.12a71.27,71.27,0,0,1-9.76.68A62.64,62.64,0,0,1,414.43,160c-.33-.19-.64-.39-.95-.59l-.78-.48-.9-.54-.5.92c-1.45,2.72-5.51,9.46-11.67,13.29-4.94,3.07-7.7,3.71-9.14,3.71M411.22,155a2.08,2.08,0,0,0-1.87,1.19c-2.13,4.55-6.24,10.53-11.37,13.72-3.91,2.43-6.44,3.24-7.41,3.24h-.12a12.06,12.06,0,0,0-4.49-7.26h0l-.26-.17h0a15.12,15.12,0,0,0-7.06-1.78,13.34,13.34,0,0,0-3.46.44l-.13,0,.58,2-.7-1.95c-4.76,1.36-9.51,5.88-8.58,14.5,1.29,11.89,12.91,15.17,20.4,15.34a27.32,27.32,0,0,0,1.27,6.44c3,9.3,11.14,17.13,21.65,20.94a40,40,0,0,0,13.69,2.43,39,39,0,0,0,20.79-6c7.43-4.65,12.6-11.72,15.37-21,4-13.5,1.79-27.54,1-31.51a2.08,2.08,0,0,0-2-1.68,2.71,2.71,0,0,0-.4,0c-.89.18-1.8.33-2.71.46a68.62,68.62,0,0,1-9.34.64,59.58,59.58,0,0,1-30-7.76l-.86-.53a12.18,12.18,0,0,0-3.37-1.66,2.16,2.16,0,0,0-.56-.08Zm-20.73,22.29c1.67,0,4.58-.7,9.67-3.86s9.47-8.89,12-13.66c.25.14.5.3.76.47l1,.6a63.76,63.76,0,0,0,32.14,8.33,73.76,73.76,0,0,0,9.9-.68l.85-.13c.77,4.95,2,16.61-1.26,27.54h0c-2.48,8.3-7.05,14.6-13.59,18.7a35,35,0,0,1-18.6,5.35,36,36,0,0,1-12.28-2.18c-9.33-3.38-16.48-10.24-19.13-18.34a23.1,23.1,0,0,1-1.13-7.23,2.05,2.05,0,0,0-.64-1.52,2.12,2.12,0,0,0-1.43-.57h-.12c-.09,0-.45,0-1,0-3.68,0-16-.82-17.14-11.65-.56-5.22,1.48-8.89,5.53-10.05l.28-.08a9.38,9.38,0,0,1,2.37-.29,10.91,10.91,0,0,1,5,1.23,8.31,8.31,0,0,1,2.82,4.91,3.73,3.73,0,0,0,2.24,2.72,4.27,4.27,0,0,0,1.8.36Z"/><path class="cls-3" d="M386.2,183.75a1.59,1.59,0,0,1-1.19-.54c-2.3-2.68-8.73-4.93-8.8-5a1.57,1.57,0,0,1,.52-3,1.81,1.81,0,0,1,.51.08c.74.26,7.34,2.6,10.15,5.87a1.55,1.55,0,0,1-.17,2.21A1.52,1.52,0,0,1,386.2,183.75Z"/><path d="M376.73,175.71a1,1,0,0,1,.34.06c2.65.91,7.73,3.14,9.94,5.71a1.07,1.07,0,0,1,.26.78,1.07,1.07,0,0,1-1.88.62c-2.39-2.78-8.95-5.07-9-5.09a1.07,1.07,0,0,1,.35-2.08m0-1a2.07,2.07,0,0,0-.68,4c1.76.61,6.74,2.67,8.58,4.8a2.07,2.07,0,1,0,3.14-2.7c-2.9-3.36-9.61-5.75-10.37-6a2,2,0,0,0-.67-.11Z"/><path class="cls-3" d="M426.53,202.93a17,17,0,0,1-2-.12c-8.33-1-13.45-8-13.67-8.27a1.59,1.59,0,0,1,.35-2.19,1.6,1.6,0,0,1,.92-.3,1.56,1.56,0,0,1,1.27.65c.19.25,4.67,6.17,11.54,7a14.12,14.12,0,0,0,1.59.09c3.84,0,7.76-1.65,11.64-4.92a1.57,1.57,0,0,1,2,2.41C435.7,201,431.11,202.93,426.53,202.93Z"/><path d="M412.1,192.55a1.06,1.06,0,0,1,.87.44c0,.07,4.73,6.34,11.88,7.2a13,13,0,0,0,1.65.1c4,0,8-1.69,12-5a1.1,1.1,0,0,1,.69-.25,1.07,1.07,0,0,1,.69,1.89c-4.37,3.68-8.85,5.54-13.31,5.54a16.15,16.15,0,0,1-2-.12c-8.11-1-13.11-7.77-13.32-8.06a1.06,1.06,0,0,1,.24-1.49,1,1,0,0,1,.62-.21h0m0-1a2,2,0,0,0-1.21.4,2.06,2.06,0,0,0-.46,2.89c.22.3,5.47,7.42,14,8.46a16.44,16.44,0,0,0,2.1.13c4.7,0,9.39-1.93,14-5.77a2.07,2.07,0,0,0-1.33-3.66,2,2,0,0,0-1.33.49c-3.8,3.19-7.6,4.8-11.32,4.8a13.08,13.08,0,0,1-1.53-.09c-6.72-.81-11.13-6.72-11.19-6.8a2.1,2.1,0,0,0-1.68-.85Z"/><path class="cls-3" d="M413,185a2.83,2.83,0,1,1,2.83-2.83A2.83,2.83,0,0,1,413,185Z"/><path d="M413,179.85a2.34,2.34,0,1,1-2.33,2.33,2.33,2.33,0,0,1,2.33-2.33m0-1a3.34,3.34,0,1,0,3.33,3.33,3.33,3.33,0,0,0-3.33-3.33Z"/><path class="cls-3" d="M443.06,186.06a2.83,2.83,0,1,1,2.83-2.83A2.84,2.84,0,0,1,443.06,186.06Z"/><path d="M443.05,180.9a2.33,2.33,0,1,1-2.33,2.33,2.33,2.33,0,0,1,2.33-2.33m0-1a3.33,3.33,0,1,0,3.34,3.33,3.33,3.33,0,0,0-3.34-3.33Z"/><path class="cls-5" d="M654.86,212.46S621.33,336.23,512.1,309.88c2.08,6.47,4,12.68,5.4,17.86,0,0-47.86,27.46-99.75,38.13-11.95,13.85-27.56,25-47.48,27a40.57,40.57,0,0,1-4.09.24c-55.47.78-69.74-103-52.3-144.7,14.59-34.87,60-45.6,76.11-48.37,6,18.23,32.29,29.29,53.06,16.28,7.89-4.94,12.23-12.28,14.48-19.86a81.65,81.65,0,0,1,44.38,30.3c9.35,12.78,23.54,25.26,42,21.65,35.47-6.93,61.5-57.18,61.5-57.18l3.06,1.31,43.32,18.58,3.05,1.31Z"/><path class="cls-5" d="M491.45,257.6c-1.05,1.16-2.75,1.39-4.32,1.51a83.5,83.5,0,0,1-20-1,29.88,29.88,0,0,1,5.94,7.63c1.38,2.56,2.4,5.62,1.38,8.34-1.1,2.9-4.36,4.59-7.45,4.57H466a5.7,5.7,0,0,1-.58,4.45,6.27,6.27,0,0,1-4.28,2.57,18,18,0,0,1-5.13-.1,22.1,22.1,0,0,1-13.64,10.51L406.3,272.45a61.17,61.17,0,0,1,71.47-29.56c5,1.51,10.11,3.87,13.12,8.18,1.36,1.94,2.14,4.78.56,6.53Z"/><path class="cls-5" d="M687.89,184.21a9.47,9.47,0,0,1-3.24,2.13,46.73,46.73,0,0,1-20.29,4.26c0,7.91-5.48,17-12.55,20.55l-43.32-18.58c-.8-16.51-1.42-33.76,5.48-48.78,1-2.29,2.51-4.71,4.93-5.45,2.69-.82,5.66.88,7.1,3.29s1.66,5.36,1.57,8.17a45.72,45.72,0,0,1-2.5,13.61,78.21,78.21,0,0,1,26.12-31.16c2.07-1.45,4.72-2.83,7-1.75,1.86.87,2.71,3.18,2.51,5.24a15.46,15.46,0,0,1-2.23,5.73l-8.22,14.82a58.1,58.1,0,0,1,20.32-16.64c2.33-1.15,5.34-2.07,7.31-.4a4.83,4.83,0,0,1,1.56,3.47c.25,3.72-2.24,7-4.6,9.92q-4.9,6-9.8,12.05a45.19,45.19,0,0,1,16.8-6.89c2.42-.45,5.51-.4,6.63,1.81a4.74,4.74,0,0,1-.47,4.32,17.07,17.07,0,0,1-4.58,4.82,85.56,85.56,0,0,1-12.37,8.07,64.58,64.58,0,0,1,13.1,1c1.89.34,4.06,1,4.69,2.82a3.8,3.8,0,0,1-1,3.62Z"/><path class="cls-3" d="M365.58,394.72c-15.52,0-29.24-8.17-39.68-23.62-22.62-33.49-25.82-93.76-13.47-123.27,14.68-35.07,58.94-46.16,77.29-49.3a1.24,1.24,0,0,1,.27,0,1.57,1.57,0,0,1,1.49,1.08c2.7,8.25,10,15.23,19.43,18.66a36.56,36.56,0,0,0,12.45,2.21A35.5,35.5,0,0,0,442.22,215c6.65-4.17,11.3-10.55,13.81-19a1.58,1.58,0,0,1,1.5-1.12,2,2,0,0,1,.42.05,83.6,83.6,0,0,1,45.23,30.89c7.22,9.87,19.05,21.63,34.44,21.63a31.55,31.55,0,0,0,6-.59C578,240.19,603.78,191,604,190.53a1.55,1.55,0,0,1,1.39-.84,1.67,1.67,0,0,1,.62.12l.73.32v-.79c-.68-14.79-.85-31.78,5.77-46.2,1-2.25,2.77-5.34,5.9-6.3a6.49,6.49,0,0,1,1.9-.29,8.65,8.65,0,0,1,7,4.28c1.74,2.9,1.87,6.35,1.79,9,0,.46,0,.91-.06,1.37L629,153l1-1.5A78.79,78.79,0,0,1,650.3,131c1-.66,3.46-2.41,6.14-2.41a5.52,5.52,0,0,1,2.42.53c2.68,1.26,3.64,4.33,3.4,6.81a16.86,16.86,0,0,1-2.41,6.33l-2.23,4,1.94-1.51a59.12,59.12,0,0,1,10.32-6.48,12.33,12.33,0,0,1,5.31-1.46,5.56,5.56,0,0,1,3.7,1.27,6.31,6.31,0,0,1,2.12,4.57c.28,4.2-2.29,7.74-5,11l-4.68,5.75,1.77-.7a46.6,46.6,0,0,1,8.39-2.42,14.08,14.08,0,0,1,2.57-.26c2.81,0,4.79,1,5.76,2.9a6.14,6.14,0,0,1-.5,5.79,18.46,18.46,0,0,1-5,5.29c-2,1.59-4.18,3.12-6.36,4.53l-1.24.8,1.47.12c2,.17,4.12.43,6.16.79,1.2.22,4.86.88,5.89,3.86a5.32,5.32,0,0,1-1.25,5.17,11.05,11.05,0,0,1-3.77,2.52,48.67,48.67,0,0,1-19,4.4h-.44l-.05.43a27.38,27.38,0,0,1-10,17.83l-.5.39.5.4a1.57,1.57,0,0,1,.56,1.64c-.09.31-8.77,31.63-30.71,59.16-13,16.26-27.95,28.09-44.56,35.19a100.27,100.27,0,0,1-39.57,7.89h0a125.23,125.23,0,0,1-26.26-2.9l-.84-.18.26.82c1.8,5.73,3.22,10.46,4.31,14.48a1.56,1.56,0,0,1-.73,1.77c-.48.28-48.36,27.49-99.53,38.16l-.17,0-.11.12c-14.07,16.11-30.23,25.21-48,27.05-1.46.15-2.89.23-4.24.24Zm23-192.8c-17.42,3.19-59.43,14.17-73.22,47.12-5.92,14.15-8.22,36.12-6.13,58.78,2.26,24.59,9.11,46.44,19.3,61.52,10,14.76,22.44,22.24,37.06,22.24h.6c1.27,0,2.6-.1,4-.24,17.17-1.77,32.8-10.68,46.44-26.5,20.47-23.73,30.26-56.22,32-62.49l.1-.36L399.75,270.5l-.26.44c-4.95,8.31-22.41,36.07-39.28,44.37a1.49,1.49,0,0,1-.69.16,1.56,1.56,0,0,1-1.48-2.08,1.55,1.55,0,0,1,.79-.9c4.09-2,8.59-5.49,13.4-10.34l.27-.27-.19-.33A100.16,100.16,0,0,1,361,273.1a1.56,1.56,0,0,1,.21-1.19,1.55,1.55,0,0,1,1-.69,1.34,1.34,0,0,1,.35,0,1.58,1.58,0,0,1,1.52,1.22,97,97,0,0,0,10.32,26.51l.34.6.46-.51c12.45-13.66,22.53-31.31,22.63-31.49a1.6,1.6,0,0,1,1-.74,1.65,1.65,0,0,1,.38,0,1.62,1.62,0,0,1,.85.25l5.51,3.55.26-.45a62.78,62.78,0,0,1,72.38-28.68c6.66,2,11.22,4.87,14,8.78,1.76,2.51,2.58,6.11.44,8.47-1.58,1.76-4.05,1.94-5.37,2-1.92.14-3.94.22-6,.22-2.94,0-6-.15-8.76-.43l-1.13-.11.68.91a31.17,31.17,0,0,1,2.39,3.74c2,3.69,2.49,6.93,1.47,9.65a9.23,9.23,0,0,1-7.63,5.5l-.43.05,0,.43a6.56,6.56,0,0,1-1,3.33,7.76,7.76,0,0,1-5.34,3.26,12.17,12.17,0,0,1-2.15.17,21.07,21.07,0,0,1-2.12-.11l-.3,0-.17.25a23.72,23.72,0,0,1-9.86,8.67l-.82.38,5.32,3.42a1.59,1.59,0,0,1,.67,1.7c-.34,1.38-8.69,34.15-29.29,60.6l-.87,1.11,1.38-.32c44-10.15,84.43-31.68,92.08-35.9l.35-.19-.11-.38c-1.25-4.45-2.87-9.76-4.94-16.23-6.73-21-15.5-45.15-15.58-45.39a1.56,1.56,0,0,1,.94-2,1.39,1.39,0,0,1,.53-.1,1.59,1.59,0,0,1,1.48,1c.9,2.48,8.85,24.52,15.25,44.37l.09.27.27.06A124.9,124.9,0,0,0,541.85,312c31.81,0,59.18-14.11,81.37-41.95,18.52-23.24,27.35-49,29.61-56.29l.13-.43-1.81-.77,0,0L607.87,194l-1.74-.74-.21.4c-4.57,8.28-29,49.93-61.69,56.31a35,35,0,0,1-6.66.65c-13.19,0-26-7.92-36.93-22.91A80.47,80.47,0,0,0,459,198.55l-.45-.14-.16.46c-.38,1.08-.81,2.17-1.28,3.25l-.06.13,0,.14c.67,4.93,3.46,29.68-7.47,31.94a13,13,0,0,1-2.57.26c-6.84,0-12.56-5.65-15.36-9l-.56-.68-.3.83c-1.86,5.28-6.22,14.39-14.58,16.14a7.14,7.14,0,0,1-1.45.15c-11.88,0-20.49-30.66-20.57-31a1.18,1.18,0,0,1,0-.34v-.17l-.11-.14a29.94,29.94,0,0,1-5-8.17l-.15-.38Zm71.7,40a59.31,59.31,0,0,0-51.64,29.59l-.23.41,34.3,22.46.22-.07a20.67,20.67,0,0,0,11.8-9.54,1.57,1.57,0,0,1,1.35-.77h.18a26.1,26.1,0,0,0,3.06.24,8.94,8.94,0,0,0,1.62-.13,4.71,4.71,0,0,0,3.22-1.86,4.12,4.12,0,0,0,.4-3.21v-.15l0-.05a9.87,9.87,0,0,0-1.34-3c-2.93-4.44-7.88-7.45-12.25-10.11a1.57,1.57,0,0,1,.8-2.92,1.53,1.53,0,0,1,.81.23c4.66,2.83,9.94,6,13.26,11.08a14.06,14.06,0,0,1,1.32,2.56l.13.35.37,0c1.92-.16,4.47-1.18,5.36-3.51.69-1.83.25-4.2-1.29-7.05A28.28,28.28,0,0,0,458,254.07a1.57,1.57,0,0,1,1.23-2.89,30.63,30.63,0,0,1,8.44,5.38l.11.1.14,0a79.49,79.49,0,0,0,13.37,1.06c2,0,3.91-.06,5.71-.2,1.46-.11,2.58-.31,3.2-.92l.07-.08c.93-1,.36-3.08-.68-4.57-2.32-3.31-6.34-5.79-12.29-7.58A59.51,59.51,0,0,0,460.25,241.93Zm-60.93-25.36c1.89,5.23,8.62,22.32,15.46,22.32a4,4,0,0,0,.84-.09c7.08-1.49,10.86-9.91,12.49-14.79l.24-.74-.77.08a37.47,37.47,0,0,1-4.23.23,39.46,39.46,0,0,1-13.51-2.39,38.54,38.54,0,0,1-9.76-5.19l-1.33-1Zm54.32-8.19a33.5,33.5,0,0,1-9.75,9.3,38.46,38.46,0,0,1-10,4.45l-.73.21.47.59c2.53,3.18,7.64,8.52,13.48,8.52a9.55,9.55,0,0,0,1.92-.2c6.21-1.28,5.95-16.24,5.55-22.62l-.09-1.43ZM620.33,139.7a3.45,3.45,0,0,0-1,.14c-1.93.59-3.18,2.91-4,4.61-6.93,15.07-6.08,32.64-5.4,46.75v.31l41.73,17.9.22-.12c6-3.5,10.79-11.71,10.83-18.7a1.56,1.56,0,0,1,.47-1.11,1.52,1.52,0,0,1,1.06-.45h.85A45.33,45.33,0,0,0,684,184.91a8.15,8.15,0,0,0,2.73-1.74,2.26,2.26,0,0,0,.63-2.07c-.29-.83-1.42-1.42-3.48-1.79a63.58,63.58,0,0,0-10.92-.95l-1.86,0h0a1.59,1.59,0,0,1-1.56-1.17,1.56,1.56,0,0,1,.78-1.79,82.7,82.7,0,0,0,12.14-7.92,15.57,15.57,0,0,0,4.18-4.35,3.27,3.27,0,0,0,.44-2.85c-.39-.76-1.4-1.17-2.93-1.17a11.14,11.14,0,0,0-2,.2A44,44,0,0,0,665.91,166a1.52,1.52,0,0,1-.87.27,1.57,1.57,0,0,1-1.22-2.56l9.8-12.06c2.36-2.89,4.46-5.75,4.26-8.82a3.37,3.37,0,0,0-1-2.37,2.58,2.58,0,0,0-1.71-.54,9.82,9.82,0,0,0-3.9,1.14,56.67,56.67,0,0,0-19.78,16.2,1.55,1.55,0,0,1-1.24.61,1.6,1.6,0,0,1-.86-.25,1.58,1.58,0,0,1-.51-2.08l8.22-14.82a14.41,14.41,0,0,0,2-5.13c.13-1.38-.38-3.08-1.62-3.66a2.42,2.42,0,0,0-1.09-.23,8.13,8.13,0,0,0-4.33,1.85,76.39,76.39,0,0,0-24.74,28.74l-.2.42.4.23c3.94,2.35,12.86,9.62,10.65,26.28a1.57,1.57,0,0,1-1.55,1.36h-.21a1.58,1.58,0,0,1-1.35-1.77c2.48-18.68-10-23.7-10.58-23.91a1.33,1.33,0,0,1-.24-.12,1.57,1.57,0,0,1-.69-1.86A44.17,44.17,0,0,0,626,149.76c.06-2.25,0-5.11-1.36-7.32A5.44,5.44,0,0,0,620.33,139.7Z"/><path d="M656.44,129.05a5.2,5.2,0,0,1,2.21.48c2.46,1.16,3.34,4,3.11,6.31a16.54,16.54,0,0,1-2.35,6.15l-1,1.85-2.38,4.3,3.87-3a59.27,59.27,0,0,1,10.23-6.42,11.76,11.76,0,0,1,5.09-1.41,5.13,5.13,0,0,1,3.39,1.15,5.88,5.88,0,0,1,1.93,4.22c.27,4-2.25,7.47-4.84,10.66l-3.48,4.27-2.4,3,3.54-1.39a45.73,45.73,0,0,1,8.31-2.4,13.79,13.79,0,0,1,2.47-.25c1.82,0,4.21.46,5.31,2.62a5.68,5.68,0,0,1-.49,5.33,17.79,17.79,0,0,1-4.84,5.13c-2,1.59-4.16,3.11-6.32,4.52l-2.47,1.59,2.93.24c2,.17,4.09.43,6.11.79,1.13.2,4.57.82,5.51,3.52a4.82,4.82,0,0,1-1.16,4.68l0,0a10.41,10.41,0,0,1-3.58,2.37,48.06,48.06,0,0,1-18.8,4.36l-.88,0-.09.87A26.9,26.9,0,0,1,655.51,210l-1,.79,1,.79a1,1,0,0,1,.38,1.12c-.08.31-8.72,31.51-30.61,59-12.91,16.19-27.83,28-44.37,35a99.8,99.8,0,0,1-39.37,7.86,125,125,0,0,1-26.16-2.9l-1.68-.36.52,1.64c1.81,5.73,3.22,10.46,4.31,14.46a1.07,1.07,0,0,1-.5,1.21c-.47.27-48.13,27.42-99.38,38.1l-.33.07-.22.25c-14,16-30,25.06-47.71,26.88-1.45.15-2.86.23-4.19.24h-.62c-15.34,0-28.92-8.09-39.26-23.4-22.54-33.36-25.73-93.4-13.43-122.8,14.58-34.83,58.65-45.87,76.92-49l.18,0a1.06,1.06,0,0,1,1,.74c2.75,8.39,10.13,15.49,19.74,19A37,37,0,0,0,423.36,221a36.06,36.06,0,0,0,19.13-5.51c6.75-4.23,11.47-10.71,14-19.26a1.06,1.06,0,0,1,1-.76,1,1,0,0,1,.29,0,83,83,0,0,1,44.95,30.7c7.29,10,19.25,21.83,34.85,21.83a31.87,31.87,0,0,0,6.11-.6c34.55-6.75,60.49-56.13,60.75-56.63a1.07,1.07,0,0,1,.95-.57,1.24,1.24,0,0,1,.45.09l1.46.62-.07-1.58c-.68-14.74-.85-31.65,5.73-46,1-2.16,2.64-5.13,5.58-6a5.87,5.87,0,0,1,1.76-.27,8.11,8.11,0,0,1,6.58,4c1.67,2.79,1.8,6.14,1.72,8.75q0,.67-.06,1.35l-.21,3.63,2-3a78.45,78.45,0,0,1,20.18-20.44c.91-.64,3.32-2.32,5.85-2.32m-19.78,61h-.14a1.07,1.07,0,0,1-.92-1.2c2.46-18.56-9.66-23.94-10.83-24.41l0,0-.05,0h0l-.11,0-.07-.05a1.06,1.06,0,0,1-.41-1.23,44.48,44.48,0,0,0,2.45-13.29c.06-2.31,0-5.26-1.43-7.59a5.94,5.94,0,0,0-4.75-3,3.79,3.79,0,0,0-1.12.16c-2.12.65-3.45,3.1-4.26,4.88-7,15.18-6.14,32.82-5.45,47l0,.62.57.25,41.22,17.67.46.2.43-.25c6.17-3.58,11-12,11.08-19.12a1,1,0,0,1,.32-.76,1,1,0,0,1,.71-.31h.85a45.82,45.82,0,0,0,19-4.17,8.78,8.78,0,0,0,2.9-1.87,2.75,2.75,0,0,0,.73-2.57c-.36-1-1.59-1.7-3.87-2.11a63.55,63.55,0,0,0-11-1l-1.89,0a1.09,1.09,0,0,1-1-.8,1.07,1.07,0,0,1,.53-1.22,82.43,82.43,0,0,0,12.22-8,16.15,16.15,0,0,0,4.31-4.49,3.69,3.69,0,0,0,.44-3.32c-.49-1-1.62-1.45-3.37-1.45a12.16,12.16,0,0,0-2.11.21,44.41,44.41,0,0,0-16.4,6.73,1,1,0,0,1-.59.18,1.07,1.07,0,0,1-.83-1.75l1.5-1.85L674,152c2.42-3,4.58-5.92,4.36-9.17a3.81,3.81,0,0,0-1.17-2.72,3,3,0,0,0-2-.66,10.19,10.19,0,0,0-4.12,1.2A57,57,0,0,0,651.1,157a1.09,1.09,0,0,1-.85.41,1.12,1.12,0,0,1-.59-.17,1.09,1.09,0,0,1-.35-1.42l8.23-14.83a14.61,14.61,0,0,0,2.09-5.31c.16-1.56-.45-3.48-1.9-4.16a2.92,2.92,0,0,0-1.3-.28,8.64,8.64,0,0,0-4.62,1.94,76.9,76.9,0,0,0-24.9,28.93l-.41.83.8.47c3.85,2.3,12.59,9.42,10.42,25.78a1.08,1.08,0,0,1-1.06.93m-99.09,60.06c-13,0-25.65-7.85-36.52-22.71a81.1,81.1,0,0,0-41.87-29.35l-.92-.27-.31.9c-.38,1.07-.8,2.16-1.27,3.22l-.11.25,0,.28c.41,3,3.65,29.17-7.07,31.39a12,12,0,0,1-2.46.25c-6.65,0-12.24-5.53-15-8.83L431,223.9l-.59,1.66c-1.82,5.18-6.1,14.12-14.21,15.82a6.26,6.26,0,0,1-1.35.14c-11.58,0-20-30.28-20.08-30.59a.75.75,0,0,1,0-.23v-.35l-.23-.27a29.59,29.59,0,0,1-4.89-8l-.31-.76-.8.15c-17.5,3.2-59.71,14.24-73.59,47.42-5.95,14.22-8.26,36.28-6.17,59,2.27,24.67,9.15,46.6,19.39,61.75,10.07,14.9,22.67,22.46,37.47,22.46h.61c1.28,0,2.62-.09,4-.23,17.3-1.78,33-10.76,46.77-26.67,20.54-23.81,30.36-56.4,32.12-62.69l.2-.71-.62-.4-48.18-31-.87-.56-.53.89c-4.93,8.28-22.32,35.93-39.07,44.17a1.08,1.08,0,0,1-.47.11,1.07,1.07,0,0,1-1-1.42,1,1,0,0,1,.54-.61c4.14-2,8.69-5.55,13.54-10.44l.54-.54-.39-.67A99.58,99.58,0,0,1,361.53,273a1.07,1.07,0,0,1,.81-1.28l.24,0a1.08,1.08,0,0,1,1,.84A97.43,97.43,0,0,0,374,299.16l.68,1.2.93-1c12.51-13.73,22.6-31.4,22.7-31.58a1.08,1.08,0,0,1,.67-.51,1.15,1.15,0,0,1,.26,0,1.12,1.12,0,0,1,.58.17l5.07,3.27.88.56.53-.9a62.27,62.27,0,0,1,71.8-28.45c6.54,2,11,4.77,13.69,8.59,1.64,2.35,2.43,5.69.48,7.85-1.44,1.6-3.69,1.77-5,1.87-1.9.13-3.92.21-6,.21-2.93,0-5.94-.15-8.71-.42l-2.26-.23,1.36,1.82a31,31,0,0,1,2.35,3.68c1.92,3.55,2.41,6.66,1.44,9.23a8.72,8.72,0,0,1-7.22,5.19l-.85.1,0,.85a6,6,0,0,1-.94,3.08,7.29,7.29,0,0,1-5,3,12.3,12.3,0,0,1-2.07.17,20.56,20.56,0,0,1-2.07-.12l-.61-.06-.33.51a23.18,23.18,0,0,1-9.65,8.48l-1.64.77,1.52,1,4.56,2.93a1.08,1.08,0,0,1,.46,1.16c-.35,1.38-8.66,34-29.2,60.41l-1.73,2.22,2.74-.63c44.08-10.16,84.55-31.73,92.21-35.95l.7-.38-.22-.76c-1.25-4.46-2.87-9.78-4.95-16.26-6.76-21.06-15.5-45.17-15.58-45.4a1.06,1.06,0,0,1,.64-1.37.92.92,0,0,1,.36-.07,1.09,1.09,0,0,1,1,.74c.88,2.44,8.83,24.46,15.24,44.32l.17.54.55.13a125.29,125.29,0,0,0,28.37,3.43c32,0,59.47-14.18,81.76-42.14,18.58-23.31,27.43-49.1,29.7-56.45l.26-.86-.82-.35-1.32-.57-.09-.05h-.05l-43.17-18.51h0l-.05,0-1.31-.56-.84-.36-.43.79c-4.55,8.25-28.9,49.73-61.34,56.07a34.17,34.17,0,0,1-6.57.64h0M447.08,232a9.9,9.9,0,0,0,2-.21c6.59-1.36,6.36-16.64,5.95-23.14l-.18-2.86-1.64,2.35a32.94,32.94,0,0,1-9.61,9.17,38,38,0,0,1-9.9,4.39l-1.44.41.93,1.18c2.58,3.25,7.82,8.71,13.87,8.71m-32.3,7.44a5,5,0,0,0,.94-.1c7.33-1.54,11.2-10.14,12.86-15.13l.49-1.48-1.55.18A39.05,39.05,0,0,1,410,220.72a37.87,37.87,0,0,1-9.63-5.13l-2.66-2,1.13,3.1c2.47,6.81,9,22.65,15.93,22.65m27.82,55.55.45-.14A21.19,21.19,0,0,0,455.13,285a1.08,1.08,0,0,1,.92-.52h.13a26.62,26.62,0,0,0,3.11.25,10,10,0,0,0,1.71-.14,5.15,5.15,0,0,0,3.55-2.08A4.52,4.52,0,0,0,465,279v-.31l-.1-.09a10.26,10.26,0,0,0-1.38-3c-3-4.54-8-7.58-12.42-10.27a1.11,1.11,0,0,1-.48-.66,1.06,1.06,0,0,1,1.59-1.17c4.62,2.8,9.85,6,13.1,10.92a13.39,13.39,0,0,1,1.27,2.47l.27.7.75-.06c2.06-.17,4.81-1.28,5.78-3.84.74-2,.29-4.47-1.32-7.45a28.84,28.84,0,0,0-13.87-12.65,1.07,1.07,0,0,1,.42-2.05,1.25,1.25,0,0,1,.42.08,30.33,30.33,0,0,1,8.3,5.3l.21.18.28.05a79.5,79.5,0,0,0,13.46,1.07c2,0,3.93-.07,5.75-.2a5.83,5.83,0,0,0,3.44-1l0,0,.11-.13,0,0,0,0c1.12-1.28.44-3.57-.67-5.15-2.39-3.41-6.49-6-12.56-7.77a59.4,59.4,0,0,0-17.21-2.49,59.82,59.82,0,0,0-52.07,29.84l-.48.82.8.52,33.71,22.07.39.26M656.44,128.05c-2.85,0-5.43,1.8-6.43,2.5a80.09,80.09,0,0,0-20.43,20.7c0-.46,0-.92.06-1.39.08-2.74-.06-6.27-1.86-9.29a9.09,9.09,0,0,0-7.44-4.52,7,7,0,0,0-2.05.31c-3.33,1-5.13,4.24-6.2,6.57-6.79,14.76-6.49,32-5.82,46.43h0a2.17,2.17,0,0,0-.82-.16,2.08,2.08,0,0,0-1.84,1.11c-.25.5-26,49.45-60.05,56.11a31.39,31.39,0,0,1-5.92.58c-15,0-26.62-11.29-34-21.42a84.06,84.06,0,0,0-45.5-31.08,2.08,2.08,0,0,0-2.53,1.41c-2.48,8.3-7.05,14.6-13.59,18.7a35,35,0,0,1-18.6,5.35,36,36,0,0,1-12.28-2.18c-9.33-3.38-16.48-10.24-19.13-18.34a2.07,2.07,0,0,0-2-1.43,2,2,0,0,0-.35,0c-18.43,3.16-62.9,14.31-77.67,49.61-12.4,29.62-9.19,90.13,13.52,123.74,10.54,15.61,24.4,23.84,40.09,23.84h.63c1.37,0,2.81-.1,4.28-.25,17.93-1.85,34.2-11,48.36-27.21,51.36-10.71,99.2-37.94,99.68-38.21a2.06,2.06,0,0,0,1-2.34c-1.09-4-2.51-8.77-4.32-14.5a125.78,125.78,0,0,0,26.37,2.92,100.35,100.35,0,0,0,39.76-7.94c16.69-7.13,31.75-19,44.76-35.34,22.05-27.66,30.71-59,30.8-59.34a2.08,2.08,0,0,0-.73-2.17,28,28,0,0,0,10.18-18.16,49,49,0,0,0,19.2-4.45,11.19,11.19,0,0,0,3.92-2.63h0a5.79,5.79,0,0,0,1.35-5.68c-1.13-3.25-5-3.95-6.28-4.18-2-.36-4.13-.63-6.2-.79,2.2-1.43,4.34-2.95,6.39-4.57a19.07,19.07,0,0,0,5.11-5.43,6.67,6.67,0,0,0,.5-6.27c-1-2.07-3.25-3.17-6.2-3.17a14.2,14.2,0,0,0-2.66.27,46.11,46.11,0,0,0-8.48,2.45c1.15-1.43,2.31-2.85,3.47-4.28,2.73-3.34,5.36-7,5.07-11.35a6.9,6.9,0,0,0-2.29-4.93,6.11,6.11,0,0,0-4-1.38,12.7,12.7,0,0,0-5.53,1.51,59.87,59.87,0,0,0-10.41,6.54l1-1.86a17.28,17.28,0,0,0,2.48-6.53c.25-2.66-.79-5.95-3.69-7.32a6.1,6.1,0,0,0-2.63-.57Zm-19.78,63a2.08,2.08,0,0,0,2.05-1.8C641,172.39,632,165,627.81,162.5A75.69,75.69,0,0,1,652.38,134a7.92,7.92,0,0,1,4-1.76,2.07,2.07,0,0,1,.88.18c1,.48,1.44,2,1.33,3.16a13.9,13.9,0,0,1-2,4.93l-8.22,14.83a2.07,2.07,0,0,0,3.45,2.27,56.18,56.18,0,0,1,19.6-16.06,9.46,9.46,0,0,1,3.68-1.09,2.1,2.1,0,0,1,1.39.43,2.93,2.93,0,0,1,.82,2c.19,2.9-1.85,5.66-4.15,8.48l-8.32,10.23-1.48,1.82a2.07,2.07,0,0,0,2.76,3,43.16,43.16,0,0,1,16-6.57,10.25,10.25,0,0,1,1.92-.2c1.13,0,2.14.24,2.48.9a2.83,2.83,0,0,1-.43,2.38,15.19,15.19,0,0,1-4,4.2A82.88,82.88,0,0,1,670.07,175a2.07,2.07,0,0,0,1,3.9h.05c.61,0,1.23,0,1.84,0a62.66,62.66,0,0,1,10.84.95c2.28.41,2.94,1,3.09,1.45a1.8,1.8,0,0,1-.53,1.57,7.61,7.61,0,0,1-2.57,1.63,44.83,44.83,0,0,1-18.61,4.08h-.85a2,2,0,0,0-1.41.59,2.05,2.05,0,0,0-.62,1.47c0,6.9-4.71,14.87-10.58,18.26L610.5,191.18c-.73-15.07-1.34-32,5.35-46.52.74-1.61,1.92-3.81,3.65-4.34a2.61,2.61,0,0,1,.83-.12,5,5,0,0,1,3.89,2.49c1.26,2.11,1.35,4.88,1.29,7.05a43.86,43.86,0,0,1-2.39,13,2.06,2.06,0,0,0,.85,2.42l0,0,.28.14h0c.52.2,12.69,5.07,10.26,23.38a2.07,2.07,0,0,0,1.78,2.32l.28,0Zm-99.09,60.06h0a35.43,35.43,0,0,0,6.76-.66c32.72-6.39,57-47.5,62-56.56l1.32.56h0L651,213.05h0l1.35.58c-2.11,6.83-10.93,32.79-29.53,56.12-22.14,27.79-49.3,41.76-81,41.76a123.89,123.89,0,0,1-28.14-3.4c-6.71-20.8-15.18-44.15-15.26-44.39a2.08,2.08,0,0,0-1.95-1.37,1.93,1.93,0,0,0-.7.13,2.06,2.06,0,0,0-1.24,2.65c.08.24,8.83,24.37,15.57,45.37,2.08,6.47,3.7,11.79,4.94,16.22-7.9,4.35-48.09,25.73-92,35.85,20.66-26.53,29-59.33,29.39-60.79a2.08,2.08,0,0,0-.89-2.24l-4.56-2.93a24.34,24.34,0,0,0,10.07-8.84c.7.06,1.42.12,2.17.12a13.26,13.26,0,0,0,2.24-.18,8.34,8.34,0,0,0,5.67-3.49,7,7,0,0,0,1.1-3.58,9.7,9.7,0,0,0,8-5.83c1.08-2.85.58-6.24-1.49-10.06a32.19,32.19,0,0,0-2.43-3.8c2.82.28,5.83.43,8.81.43,2.06,0,4.1-.07,6-.22,1.4-.1,4-.29,5.71-2.19,2.32-2.57,1.47-6.42-.4-9.09-2.81-4-7.46-6.95-14.23-9a63.21,63.21,0,0,0-72.95,28.91l-5.07-3.27a2.06,2.06,0,0,0-1.12-.33,2.14,2.14,0,0,0-.5.06,2.06,2.06,0,0,0-1.3,1c-.14.25-10.22,17.84-22.57,31.4a96.14,96.14,0,0,1-10.26-26.38,2.07,2.07,0,0,0-2-1.61,2.5,2.5,0,0,0-.47.05,2.08,2.08,0,0,0-1.56,2.48,100.63,100.63,0,0,0,11.33,28.59c-4.34,4.37-8.86,8.07-13.27,10.24a2.07,2.07,0,0,0,1.82,3.72c17.13-8.43,34.9-36.86,39.49-44.56l48.18,31c-2,7.06-11.66,38.82-31.92,62.3-13.56,15.72-29.07,24.58-46.12,26.34-1.34.13-2.65.21-3.9.23h-.6c-14.48,0-26.77-7.41-36.64-22-10.15-15-17-36.78-19.23-61.28-2.07-22.58.21-44.47,6.1-58.54,13.55-32.38,54.2-43.41,72.85-46.83a30.13,30.13,0,0,0,5.06,8.31,1.82,1.82,0,0,0,.06.46c.08.33,8.63,31.34,21.05,31.34a7.49,7.49,0,0,0,1.55-.16c8.56-1.79,13-11,14.95-16.46,3.13,3.75,8.85,9.19,15.76,9.19a12.84,12.84,0,0,0,2.66-.27c11.37-2.35,8.55-27.47,7.86-32.5.47-1.06.91-2.16,1.3-3.29a79.89,79.89,0,0,1,41.35,29c11.15,15.24,23.94,23.12,37.33,23.12ZM447.08,231c-5.61,0-10.58-5.18-13.09-8.34a39,39,0,0,0,10.16-4.51,33.76,33.76,0,0,0,9.9-9.44c.58,9.2-.09,21.06-5.16,22.1a8.7,8.7,0,0,1-1.81.19Zm-32.3,7.44c-5.6,0-11.66-12.79-15-22a39.06,39.06,0,0,0,9.88,5.26,40.15,40.15,0,0,0,13.68,2.42,38.23,38.23,0,0,0,4.28-.23c-1.52,4.58-5.22,13-12.12,14.46a3.63,3.63,0,0,1-.73.08Zm28,55.45-33.71-22.07a59.45,59.45,0,0,1,68.12-26.9c5.84,1.76,9.78,4.17,12,7.39.92,1.31,1.44,3.15.72,3.95h0c-.53.58-1.73.75-2.94.84-1.81.13-3.73.19-5.67.19A79.57,79.57,0,0,1,468,256.19a31.35,31.35,0,0,0-8.58-5.47,2.13,2.13,0,0,0-.81-.16,2.07,2.07,0,0,0-.82,4,27.06,27.06,0,0,1,7.86,5.11h0a27.67,27.67,0,0,1,5.53,7.09c1.47,2.72,1.89,4.95,1.26,6.63-.74,1.95-2.93,3-4.93,3.19a14.53,14.53,0,0,0-1.36-2.66c-3.38-5.13-8.71-8.37-13.42-11.23a2.07,2.07,0,0,0-2.15,3.54c4.33,2.63,9.24,5.62,12.11,10a9.25,9.25,0,0,1,1.31,2.94h0a3.66,3.66,0,0,1-.32,2.88,4.25,4.25,0,0,1-2.88,1.64,9.8,9.8,0,0,1-1.54.12,25.6,25.6,0,0,1-3-.24h-.24a2.07,2.07,0,0,0-1.78,1,20.13,20.13,0,0,1-11.51,9.32Z"/><path class="cls-5" d="M481.47,698.41c-3.85,4.82-9.58,9-17.34,7-16.06-4.12-87-48.51-91.8-71.35-1.61-7.65,1.22-15.36,5.71-22.24,6,11,42.17,72,103.43,86.61Z"/><path class="cls-5" d="M484.64,693.66a37,37,0,0,1-3.17,4.75C420.21,683.76,384.09,622.76,378,611.8c4.81-7.39,11.52-13.81,16.68-18.16a15.53,15.53,0,0,1,21.81,1.57,13.81,13.81,0,0,1,1.88,2.87c4.15,8.42,1.74,16.79,10.83,18.2,0,0,11.33,59.42,50.88,58.69l4.29,7.16a11.46,11.46,0,0,1,.23,11.53Z"/><path class="cls-5" d="M480.12,675c-39.55.73-50.88-58.69-50.88-58.69,9.1,1.4,25.45-6.15,32.58,7.77,4.4,8.6,5.58,18.06,5.83,24a25.84,25.84,0,0,0,3.66,12.23L480.12,675Z"/><path class="cls-5" d="M465.18,597.1,457.23,616c-5.72-3.42-12.89-2.67-19-2a37.28,37.28,0,0,1-8.66.29c-2.24-.34-3.56-1.12-4.46-2.48s-1.41-3.32-2-6a38.51,38.51,0,0,0-2.79-8.57,16.46,16.46,0,0,0-2.15-3.29,16.79,16.79,0,0,0-5.78-4.42l3.73-9.62,49.11,17.26Z"/><path class="cls-3" d="M468,707.47a17.51,17.51,0,0,1-4.3-.56c-16.43-4.21-87.86-48.51-92.94-72.55-1.52-7.19.48-15.07,5.92-23.41l.08-.13h0c5-7.6,11.94-14.18,16.91-18.37a17.4,17.4,0,0,1,11.22-4.1c.39,0,.79,0,1.19,0a17,17,0,0,1,3.86.71l.44.14,3.81-9.51,3.35,1.17-4,9.81.35.22a15.83,15.83,0,0,1,5.87,6.47,38.22,38.22,0,0,1,2.75,8.46c.66,2.8,1.16,4.75,2.11,6.17a6.38,6.38,0,0,0,4.8,2.7,16.74,16.74,0,0,0,2.5.17,61.32,61.32,0,0,0,6.29-.46,76.79,76.79,0,0,1,7.85-.53,22.83,22.83,0,0,1,8.9,1.53l.46.19L463.33,597l3.31,1.17-8.14,19.31.29.23a17.36,17.36,0,0,1,4.43,5.65,51.66,51.66,0,0,1,4.15,11.37l.27,1.1.63-.95a25.1,25.1,0,0,1,6.39-6.19,29.41,29.41,0,0,1,6-3.27,28,28,0,0,1,6.48-1.75,19.31,19.31,0,0,1,2.81-.22,11.35,11.35,0,0,1,3.64.54,7.67,7.67,0,0,1,5.09,4.83,7.78,7.78,0,0,1-1.68,7.13,13.78,13.78,0,0,1-5.57,3.78,28.24,28.24,0,0,1-6.88,1.89l-1.65.24,1.51.71a24.79,24.79,0,0,1,5.69,3.67c2,1.77,4.51,4.67,4.67,8.41a6.1,6.1,0,0,1-.86,3.54,6.46,6.46,0,0,1-4.92,2.57,11.9,11.9,0,0,1-1.2.06c-5.68,0-12.2-4-17.45-10.71l-1.15-1.48.26,1.86a24,24,0,0,0,3.19,9l13.11,21.8a13.19,13.19,0,0,1,1.89,6.81,12.89,12.89,0,0,1-1.65,6.31,38.09,38.09,0,0,1-3.16,4.78l-.15.17C478.42,704.75,473.5,707.47,468,707.47Zm-90.5-91.82c-3.6,6.49-4.83,12.57-3.67,18.07,4.49,21.24,74,65.87,90.65,70.15a14,14,0,0,0,3.37.41,13.15,13.15,0,0,0,9.89-4.26l.34-.39-.41-.32c-1.21-1-3.27-1.48-5.25-1.95-.91-.22-1.77-.42-2.45-.66-2.67-.92-5.3-1.93-7.84-3a139.37,139.37,0,0,1-15-7.43,160.69,160.69,0,0,1-26.34-19L419,665.67a211.64,211.64,0,0,1-39.64-48.48,1.83,1.83,0,0,1-.15-.25l-.38-.63-.4-.67-.44-.76Zm2.57-3.36.22.39a206.13,206.13,0,0,0,17.57,25.93c17.25,21.72,36.55,38,57.35,48.49a127.3,127.3,0,0,0,15.67,6.61c2.42.82,4.87,1.57,7.28,2.22a6.24,6.24,0,0,0,1.64.26c1.61,0,2.17-1,3-2.6l.39-.71c2.93-5.17,0-10.57-2.91-14.7a4.81,4.81,0,0,0-1.23-1.35c-1-.67-2.68-.71-4.31-.75a15.1,15.1,0,0,1-2.1-.14,35.31,35.31,0,0,1-6-1.66,41.61,41.61,0,0,1-10.74-6,63.12,63.12,0,0,1-16-18.92,116.13,116.13,0,0,1-10.24-24.9l0-.12c-.15-.49-.29-1-.43-1.46s-.25-.94-.35-1.41c-.37-1.59-.74-3.23-2.11-4.12a15.26,15.26,0,0,0-1.53-.88,7.73,7.73,0,0,1-2.5-1.77c-1.89-2.16-2.57-5.09-3.22-7.93l0-.19a35.36,35.36,0,0,0-2.51-7.78,12.28,12.28,0,0,0-1.68-2.56,13.15,13.15,0,0,0-4.27-3.34,13.53,13.53,0,0,0-5.16-1.37c-.32,0-.65,0-1,0a14.29,14.29,0,0,0-9.2,3.37,89.57,89.57,0,0,0-15.68,16.77l-.23.34.23.24,0,0Zm66.09,41,.14.16c.89,1.31,1.93,2.7,3.05,4.09a1,1,0,0,0,.13.14c.21.27.47.58.72.87l.11.14.79.9,0,0,.06.06a49.06,49.06,0,0,0,3.58,3.62,1.31,1.31,0,0,0,.16.14c.21.21.5.46.79.71l.16.14.79.67.2.16a44.32,44.32,0,0,0,4.09,2.93l.16.09.6.36.61.35c.31.18.61.35.92.5a3.27,3.27,0,0,0,.33.18l.89.45.23.11c1.07.5,2.11.93,3.23,1.33l.37.13.82.27.6.18.84.23.59.15.67.16.81.17.8.16.79.12.18,0,1,.13.88.09,1,.1L470,661.13a27.44,27.44,0,0,1-3.87-13c-.26-6.14-1.46-15.18-5.67-23.39a13.47,13.47,0,0,0-4.57-5.3c-2.48-1.66-5.58-2.44-9.74-2.44a73.49,73.49,0,0,0-7.52.53l-.51.05c-2.09.21-4.07.42-5.95.42h-.91l.31,1.22c0,.13.05.19.07.24l.09.41.05.14c.05.24.1.41.15.59s0,.17.07.27.08.31.13.47a2.19,2.19,0,0,0,.08.27l0,.14c0,.15.08.31.13.47l.29,1,.11.39.14.49a2.3,2.3,0,0,1,.1.35v.06l0,.05.14.45.14.48.15.46a5.43,5.43,0,0,0,.17.53c0,.12.08.29.13.44l.21.65.51,1.48c.05.18.09.29.13.41s.11.32.18.5l.05.14c0,.12.09.27.14.42l.24.66a3.38,3.38,0,0,1,.13.37l.48,1.28c.33.87.67,1.76,1,2.66l.39.94.1.26.38.88c0,.1.09.22.14.34l.08.19c.1.22.19.45.29.67l.12.26c.56,1.27,1.21,2.64,2,4.19l.06.1.63,1.24c.13.26.27.51.4.76l.11.2a2,2,0,0,0,.14.25c.92,1.73,2,3.54,3.12,5.33a1.1,1.1,0,0,0,.13.21l.59.94.14.18.56.84Zm23.36-10.67a7.3,7.3,0,0,0,.82,1.94c2.69,4.51,9.78,13,17.35,13a7.72,7.72,0,0,0,1,0,3.49,3.49,0,0,0,2.6-1.17,3,3,0,0,0,.35-1.67c-.12-2.77-2.3-5.06-3.59-6.18-5-4.32-11.86-5.73-17.95-6.54l-.73-.1Zm20.36-16.1a16.8,16.8,0,0,0-2.32.18,25.86,25.86,0,0,0-11.13,4.49,20.12,20.12,0,0,0-6,6L470,638h.86a41.14,41.14,0,0,1,4.72.38h.12c1.22.16,2.18.27,3.16.32.53,0,1.05,0,1.58,0a25.85,25.85,0,0,0,9.76-1.93,11,11,0,0,0,4.37-2.9,4.07,4.07,0,0,0-2-7A8.58,8.58,0,0,0,489.92,626.56Z"/><path d="M414.51,580.35l1.23.43,1.18.41-3.63,8.93-.31.78.71.44a15.49,15.49,0,0,1,3.66,3.18,14.93,14.93,0,0,1,2,3.09,37.75,37.75,0,0,1,2.72,8.35c.66,2.86,1.18,4.85,2.18,6.34,1.08,1.64,2.67,2.54,5.14,2.91a16.25,16.25,0,0,0,2.57.18c2,0,4.2-.24,6.34-.46a76.19,76.19,0,0,1,7.79-.53,22.38,22.38,0,0,1,8.71,1.49l.92.38.39-.92,7.48-17.75,2.36.84-7.78,18.47-.29.69.57.47a16.77,16.77,0,0,1,4.31,5.49,51.79,51.79,0,0,1,4.11,11.25l.54,2.21,1.26-1.89a24.4,24.4,0,0,1,6.26-6.06,28.86,28.86,0,0,1,5.9-3.22,27.71,27.71,0,0,1,6.37-1.72,19.75,19.75,0,0,1,2.74-.21,11,11,0,0,1,3.49.52,7.16,7.16,0,0,1,4.76,4.5,7.28,7.28,0,0,1-1.58,6.66,13.44,13.44,0,0,1-5.38,3.64,27.83,27.83,0,0,1-6.76,1.86l-3.3.46,3,1.43a24.29,24.29,0,0,1,5.58,3.6c2,1.71,4.35,4.49,4.5,8a5.54,5.54,0,0,1-.78,3.24,6,6,0,0,1-4.55,2.35,11.07,11.07,0,0,1-1.15.06c-5.52,0-11.9-3.94-17.05-10.52l-2.31-2.95.53,3.71a24.57,24.57,0,0,0,3.25,9.24L481,674.42l4.3,7.15a12.71,12.71,0,0,1,1.82,6.55,12.45,12.45,0,0,1-1.58,6.06,38,38,0,0,1-3,4.52h0l-.3.37c-4.17,5.24-9,7.9-14.26,7.9a17.36,17.36,0,0,1-4.17-.54c-7.59-1.95-29.08-13.52-50.59-28.83-24.56-17.48-39.87-33.28-42-43.34-1.49-7.06.48-14.81,5.85-23l.15-.23c4.94-7.52,11.82-14,16.74-18.17a16.93,16.93,0,0,1,10.9-4c.38,0,.77,0,1.15,0a17.37,17.37,0,0,1,3.76.7l.88.27.34-.85,3.45-8.64M379.64,612.5h0l0,0h0l.22.37a205.92,205.92,0,0,0,17.62,26c17.29,21.78,36.65,38.14,57.52,48.63a128.47,128.47,0,0,0,15.73,6.63c2.43.83,4.89,1.58,7.31,2.23a6.87,6.87,0,0,0,1.77.28c1.9,0,2.6-1.26,3.47-2.87l.39-.69c3.06-5.42,0-11-2.94-15.23a5.31,5.31,0,0,0-1.36-1.48c-1.11-.76-2.87-.8-4.58-.84a15.4,15.4,0,0,1-2-.13,35.19,35.19,0,0,1-5.92-1.64,41,41,0,0,1-10.61-5.95,62.51,62.51,0,0,1-15.85-18.77c-3.93-6.83-7.17-14.7-10.2-24.79l0-.06c-.15-.5-.31-1-.45-1.53s-.24-.91-.35-1.37c-.36-1.61-.78-3.43-2.31-4.43a17.39,17.39,0,0,0-1.58-.9,7.22,7.22,0,0,1-2.36-1.66c-1.8-2.06-2.46-4.94-3.1-7.71l-.06-.23a35.41,35.41,0,0,0-2.53-7.85,12.86,12.86,0,0,0-1.75-2.66,13.55,13.55,0,0,0-4.43-3.47,14.29,14.29,0,0,0-5.34-1.42c-.34,0-.68,0-1,0a14.81,14.81,0,0,0-9.53,3.49,90.35,90.35,0,0,0-15.77,16.87l-.47.69.48.48m88.25,92.28a13.65,13.65,0,0,0,10.27-4.43l.67-.78-.8-.65c-1.31-1.06-3.42-1.56-5.46-2-.89-.21-1.74-.41-2.39-.64-2.66-.92-5.29-1.92-7.81-3a137.5,137.5,0,0,1-15-7.4A159.26,159.26,0,0,1,421.18,667l-.7.72.66-.76,0,0,0,0-1.77-1.59a211.16,211.16,0,0,1-39.58-48.41c0-.07-.08-.12-.13-.22l-.05-.08-.33-.55-.09-.16-.08-.12-.12-.2-.1-.17-.88-1.52-.86,1.54c-3.66,6.6-4.91,12.79-3.72,18.41,2.7,12.79,26.84,31.69,41,41.81,19.4,13.89,41.38,26.5,50,28.72a13.9,13.9,0,0,0,3.49.43m-35.77-87.25h-.24l-1.31,0,.33,1.27.13.49,0,.09v0h0a.85.85,0,0,0,0,.17c0,.07,0,.15.05.22l0,.2a1.09,1.09,0,0,0,.05.17v0c0,.17.08.34.13.52s.05.19.08.29l.12.46c0,.1.06.2.08.29l0,.13c0,.16.08.33.13.48l0,.14v0l.18.62.05.18c0,.13.07.26.13.44s0,.16.07.25l.07.25a2.45,2.45,0,0,1,.08.29l0,.12v0l0,0,.11.35.15.51.08.25.07.21a5.43,5.43,0,0,0,.17.53c0,.14.09.31.14.46s.12.35.18.55a.62.62,0,0,0,0,.1c.08.25.17.49.25.74l.25.74,0,.08c0,.11.07.21.11.32a5.17,5.17,0,0,0,.18.51l0,.12c0,.15.1.31.14.42l.12.33.14.4a2.83,2.83,0,0,1,.11.31v0l.27.72.05.14a1.32,1.32,0,0,1,.08.22l.06.15c.33.88.68,1.79,1.05,2.7h0v0l0,0,.19.45.16.37c0,.1.07.18.1.27l0,.06h0l.18.41.17.4c.05.12.1.25.15.35l.08.19c.1.23.2.46.3.67l0,.11.07.16c.57,1.28,1.22,2.66,2,4.21l0,.07h0v0l0,.06.18.34.3.6a1.09,1.09,0,0,1,.08.15l0,.08c.13.26.27.51.4.76l.12.22,0,.05h0l.09.17c.95,1.77,2,3.56,3.13,5.34a1.2,1.2,0,0,0,.15.24c.11.18.23.37.36.56l.24.37,0,.08,0,0,0,.07c.17.25.33.5.5.74v.12l.23.22c.93,1.34,1.95,2.72,3.06,4.09l0,0,0,0,.06.06c.24.31.49.61.74.9l.12.15.42.48.36.41,0,0h0l0,0c1.17,1.31,2.39,2.53,3.6,3.65l.15.13c.27.25.55.5.85.75l.12.11,0,0,0,0c.23.2.46.4.7.59l.16.14,0,0,0,0,.09.08a43.83,43.83,0,0,0,4.08,2.9l0,0,.06,0,0,0,.62.38.32.19.16.09.15.08c.35.21.65.37.89.49l.37.2.9.45.26.12,0,0a34.25,34.25,0,0,0,3.22,1.32l.14.05.2.08c.28.1.56.19.85.27l.08,0,.23.07.29.08c.28.09.57.17.85.24l.46.12.13,0,.74.18.11,0,.36.08.33.07.31.06.49.09c.26.05.53.09.79.12l.1,0h.12l1,.13.89.09,2,.19-1-1.7-6.85-11.39a26.93,26.93,0,0,1-3.8-12.73c-.27-6.19-1.47-15.31-5.72-23.6a14.14,14.14,0,0,0-4.74-5.49c-2.57-1.72-5.75-2.52-10-2.52a74.26,74.26,0,0,0-7.57.53l-.52.05a57.2,57.2,0,0,1-5.9.42m37.05,21h1.72a39.92,39.92,0,0,1,4.65.36l.12,0c1.2.15,2.2.26,3.2.32.53,0,1.08,0,1.62,0a26.22,26.22,0,0,0,9.94-2,11.54,11.54,0,0,0,4.57-3,5.21,5.21,0,0,0,1.18-4.66,5.12,5.12,0,0,0-3.38-3.09,8.84,8.84,0,0,0-2.87-.42,16.36,16.36,0,0,0-2.39.19,26.43,26.43,0,0,0-11.35,4.57A20.79,20.79,0,0,0,470,637l-.85,1.5m18.56,19.66c.34,0,.68,0,1,0a3.88,3.88,0,0,0,3-1.39,3.31,3.31,0,0,0,.44-2c-.13-2.94-2.41-5.35-3.77-6.53-5.07-4.41-12.05-5.84-18.2-6.66l-1.48-.19.38,1.44a8.32,8.32,0,0,0,.88,2.07c2.74,4.6,10,13.29,17.78,13.29m-73.79-79.06-3.81,9.53a17.6,17.6,0,0,0-4-.74c-.41,0-.81,0-1.22,0a17.83,17.83,0,0,0-11.54,4.22c-5,4.23-12.06,10.89-17.09,18.61h0c-5.52,8.46-7.53,16.47-6,23.79,5.11,24.18,76.82,68.7,93.31,72.93A17.93,17.93,0,0,0,468,708c5.55,0,10.69-2.8,15-8.27h0a38.42,38.42,0,0,0,3.35-5,13.38,13.38,0,0,0,1.71-6.56,13.69,13.69,0,0,0-2-7.06l-4.3-7.15-8.81-14.65a23.69,23.69,0,0,1-3.12-8.87c4.58,5.85,11.25,10.9,17.84,10.9.42,0,.84,0,1.25-.06a6.92,6.92,0,0,0,5.29-2.8,6.54,6.54,0,0,0,.94-3.84c-.17-3.91-2.73-6.92-4.84-8.75a25.39,25.39,0,0,0-5.81-3.75,29.3,29.3,0,0,0,7-1.92,14.32,14.32,0,0,0,5.77-3.93,8.28,8.28,0,0,0,1.77-7.59,8.19,8.19,0,0,0-5.41-5.16,12,12,0,0,0-3.8-.57,18.85,18.85,0,0,0-2.88.23,28.56,28.56,0,0,0-6.6,1.78,30,30,0,0,0-6.11,3.33,25.25,25.25,0,0,0-6.51,6.32,52.93,52.93,0,0,0-4.19-11.47,17.86,17.86,0,0,0-4.56-5.81l8.2-19.46-4.26-1.5L455.21,615a23.4,23.4,0,0,0-9.1-1.57,76.77,76.77,0,0,0-7.89.54c-2.22.23-4.36.45-6.24.45a16.57,16.57,0,0,1-2.42-.16c-2.24-.34-3.56-1.12-4.46-2.48s-1.41-3.32-2-6a38.51,38.51,0,0,0-2.79-8.57,16.46,16.46,0,0,0-2.15-3.29,16.71,16.71,0,0,0-3.9-3.38l4-9.91-2.17-.75-2.13-.75Zm65.9,116.6a6.1,6.1,0,0,1-1.51-.24q-3.66-1-7.25-2.21a127.15,127.15,0,0,1-15.6-6.58c-22.51-11.32-41.61-28.74-57.19-48.36a204.16,204.16,0,0,1-17.53-25.88c-.1-.16-.19-.33-.28-.49l0,0a88.73,88.73,0,0,1,15.59-16.67,13.71,13.71,0,0,1,8.88-3.26c.31,0,.62,0,.94,0a13.27,13.27,0,0,1,5,1.32,12.56,12.56,0,0,1,4.11,3.22,11.9,11.9,0,0,1,1.61,2.45,34.92,34.92,0,0,1,2.47,7.68c.67,2.9,1.36,6,3.37,8.33,1.22,1.41,2.68,1.77,4.14,2.74s1.67,3.29,2.25,5.25c.15.53.31,1.06.47,1.59a117.83,117.83,0,0,0,10.29,25,63.72,63.72,0,0,0,16.11,19.07,42,42,0,0,0,10.87,6.09,36.38,36.38,0,0,0,6.09,1.69c1.65.3,4.88-.1,6.22.81a4.42,4.42,0,0,1,1.1,1.22c2.88,4.11,5.65,9.28,2.89,14.17-1.11,2-1.49,3.05-3,3.05Zm-11.95,8.09a13.49,13.49,0,0,1-3.24-.39c-16.62-4.26-85.83-48.66-90.29-69.77-1.14-5.39.08-11.34,3.62-17.72l.22.37.18.29.37.63.16.26a213.2,213.2,0,0,0,39.74,48.6l1.78,1.59.06.06a161.68,161.68,0,0,0,26.42,19A140.63,140.63,0,0,0,462,694.18c2.59,1.08,5.22,2.08,7.87,3,2.15.74,5.87,1.16,7.55,2.52a12.62,12.62,0,0,1-9.51,4.08Zm-35.77-85.25c2.07,0,4.24-.24,6.52-.47a73.73,73.73,0,0,1,7.47-.53c3.47,0,6.74.53,9.47,2.36A13,13,0,0,1,460,625c4.17,8.14,5.35,17.09,5.61,23.19a28.07,28.07,0,0,0,3.94,13.2l6.85,11.39-.88-.09-1.09-.14-.85-.13-.79-.15-.66-.14-.81-.19-.59-.15-.83-.23-.53-.16-.86-.28-.36-.13a32.72,32.72,0,0,1-3.11-1.28l-.29-.13-.89-.45-.34-.18c-.3-.15-.59-.31-.88-.48l-.3-.17c-.3-.18-.61-.35-.9-.54l-.16-.09a44.84,44.84,0,0,1-4-2.84l-.17-.14-.85-.71-.18-.16-.85-.76-.09-.08c-1.24-1.14-2.42-2.33-3.55-3.59l-.07-.08-.78-.89-.12-.15-.75-.9-.09-.1c-1.07-1.33-2.1-2.7-3.07-4.11v0c-.23-.32-.45-.65-.67-1l-.11-.15-.62-1a.86.86,0,0,1-.1-.16c-1.12-1.76-2.17-3.55-3.13-5.35,0-.06-.07-.13-.11-.2-.17-.32-.34-.63-.5-1l-.12-.23-.49-.95a.8.8,0,0,0-.08-.16c-.69-1.4-1.35-2.79-2-4.17l-.12-.27c-.13-.28-.25-.57-.37-.85-.05-.11-.1-.22-.14-.33l-.36-.83-.12-.31-.36-.85,0-.08c-.39-1-.75-1.91-1.1-2.83,0-.12-.09-.24-.13-.35l-.27-.72c0-.13-.09-.26-.14-.39l-.24-.68c-.05-.13-.1-.28-.14-.41s-.16-.43-.23-.65-.09-.26-.13-.38l-.5-1.48,0-.11-.18-.54c-.05-.15-.1-.31-.14-.46s-.11-.33-.16-.5l-.15-.47c0-.16-.1-.32-.14-.47l-.15-.47s0,0,0-.06-.07-.26-.11-.38-.09-.33-.14-.49-.08-.26-.11-.38c-.08-.28-.16-.55-.23-.82l-.06-.21c-.06-.19-.11-.39-.16-.58s-.06-.2-.08-.3-.09-.31-.13-.47a2.68,2.68,0,0,1-.07-.27,4.48,4.48,0,0,1-.12-.46c0-.08-.05-.17-.07-.24s-.07-.3-.11-.45,0-.13-.05-.2l-.15-.59Zm48.36,19.71c-.52,0-1,0-1.56,0-1-.06-2-.18-3.13-.32a41.86,41.86,0,0,0-4.9-.39,19.62,19.62,0,0,1,5.87-5.85,25.37,25.37,0,0,1,10.91-4.4,15.86,15.86,0,0,1,2.25-.18,7.88,7.88,0,0,1,2.55.37,4.13,4.13,0,0,1,2.75,2.45,4.19,4.19,0,0,1-1,3.71,10.39,10.39,0,0,1-4.18,2.75,24.89,24.89,0,0,1-9.56,1.9Zm7.25,18.91c-6.81,0-13.77-7.52-16.92-12.81a6.7,6.7,0,0,1-.77-1.8c6.53.87,13,2.35,17.68,6.42,1.23,1.07,3.31,3.24,3.42,5.82a2.44,2.44,0,0,1-.27,1.38,3.07,3.07,0,0,1-2.23,1c-.3,0-.61,0-.91,0Z"/><path class="cls-5" d="M719.2,593.18C717.11,599,713,604.75,705,605.37c-16.53,1.29-98-17.87-109.9-37.93-4-6.72-3.8-14.93-1.77-22.89,9.26,8.42,63.12,54.52,125.83,48.63Z"/><path class="cls-5" d="M720.66,587.66a36.55,36.55,0,0,1-1.46,5.52c-62.71,5.89-116.57-40.21-125.83-48.63,2.17-8.55,6.45-16.8,9.93-22.57a15.53,15.53,0,0,1,21.16-5.55,14.18,14.18,0,0,1,2.7,2.11c6.64,6.63,7.06,15.33,16.12,13.73,0,0,29.89,52.6,67.08,39.16l6.38,5.38a11.49,11.49,0,0,1,3.92,10.85Z"/><path class="cls-5" d="M710.36,571.43c-37.19,13.44-67.08-39.16-67.08-39.16,9.06-1.6,22.1-14,33.35-3.14,6.94,6.72,11.1,15.3,13.27,20.88a25.88,25.88,0,0,0,7.4,10.39l13.06,11Z"/><path class="cls-5" d="M672.73,502,671,523.32c-7-2.15-14,1.1-20,3.85a38.23,38.23,0,0,1-8.1,3.07,10.09,10.09,0,0,1-1.72.17c-3.2,0-4.65-2.08-7.17-6.12a38.64,38.64,0,0,0-5.4-7.21,16.38,16.38,0,0,0-3.1-2.41,16.71,16.71,0,0,0-8.43-2.43l.68-9.25,55-1Z"/><path class="cls-3" d="M703.32,607c-20,0-97.37-18.33-109.53-38.77a25.82,25.82,0,0,1-3.4-13.36,44.13,44.13,0,0,1,1.45-10.72c2.26-8.87,6.75-17.4,10.12-23a17.33,17.33,0,0,1,10.43-7.84,16.64,16.64,0,0,1,2.62-.49l.43,0,.45-9.27,3.5-.06-.45,9.41.44.07a16.3,16.3,0,0,1,8.9,4.49,38,38,0,0,1,5.32,7.12c2.54,4.06,4.14,6.36,7.6,6.36a10.61,10.61,0,0,0,1.81-.18,38.08,38.08,0,0,0,8.09-3.05l.13-.06c4.58-2.1,9.76-4.49,15-4.49a16.65,16.65,0,0,1,2.66.22l.54.09,1.31-20.94,3.52-.06-1.39,22.15.29.14a18.08,18.08,0,0,1,4.52,3.26,52,52,0,0,1,7.59,9.42l.61,1,.29-1.09a25,25,0,0,1,4-7.92,29,29,0,0,1,10.21-8.79,13.76,13.76,0,0,1,6.21-1.77h.11a7.64,7.64,0,0,1,6.26,2.93,7.74,7.74,0,0,1,.71,7.28,13.88,13.88,0,0,1-4,5.39,28.44,28.44,0,0,1-5.91,4l-1.48.75,1.65.19a24.35,24.35,0,0,1,6.57,1.64c2.51,1,5.78,3,7.13,6.46a5.88,5.88,0,0,1,.33,3.61,6.39,6.39,0,0,1-3.82,4,13.9,13.9,0,0,1-5.79,1.18c-4.61,0-10.19-1.91-15.3-5.24l-1.56-1,.84,1.66a24.69,24.69,0,0,0,5.94,7.55l13.07,11,6.37,5.39a13.07,13.07,0,0,1,4.68,10,13.71,13.71,0,0,1-.22,2.35,38.35,38.35,0,0,1-1.53,5.76c-2.91,8.09-8.28,12.66-15.52,13.23C704.63,607,704,607,703.32,607ZM594.15,548.35c-1.32,7.29-.53,13.45,2.34,18.29,10.63,17.88,85.4,37.23,106.52,37.23.7,0,1.34,0,1.91-.07,4.55-.35,10.18-3.52,11.34-8l.14-.52-.53-.09a9.5,9.5,0,0,0-1.79-.15c-.82,0-1.66.07-2.47.13s-1.44.12-2.1.13H708.3c-1.71,0-3.45,0-5.17-.09-4.09-.16-8.26-.52-12.4-1.07a158.1,158.1,0,0,1-54-17.82,261.83,261.83,0,0,1-22.77-13.67c-3.44-2.35-6.84-4.82-10.1-7.34-1.21-.93-2.41-2-3.57-3a58.41,58.41,0,0,0-5.25-4.19l-.68-.69Zm22.65-32.47a14.17,14.17,0,0,0-12.15,6.91,89,89,0,0,0-9.44,20.93c-.22.78,1,2.1,8.51,7.54l1.16.86c3.56,2.78,7.27,5.49,11,8.07,1.89,1.29,3.36,2.27,4.76,3.17a210.21,210.21,0,0,0,21.14,12c22.45,11.09,44.8,16.72,66.43,16.72,2.91,0,5.83-.11,8.7-.31a1.78,1.78,0,0,0,.94-.28,1.76,1.76,0,0,0,.57-1.09c.89-4.13,1.49-8.85-2.74-12.42l-1.79-1.52-3.19-2.7a1.81,1.81,0,0,0-.76-.43l-.22,0a1.92,1.92,0,0,0-.59.12,33.58,33.58,0,0,1-10.4,1.59,42,42,0,0,1-7.77-.75C673.6,571,657.63,558,643.52,535.69l-.44-.71-.47-.76-.08-.09-.16-.15-.22,0c-.33,0-.64,0-.95,0-5.37,0-7.85-4-10.25-7.79a34.56,34.56,0,0,0-4.9-6.6,12.29,12.29,0,0,0-2.4-1.87A13.25,13.25,0,0,0,616.8,515.88Zm29.51,18.17c.64.73,3.41,4.67,5.09,7.08,1.17,1.66,2.09,3,2.35,3.3a107.63,107.63,0,0,0,9.37,10.41c8.07,7.81,20.74,17.13,35.29,17.13a33.87,33.87,0,0,0,7.83-.93l1-.23-10.91-9.21a27.54,27.54,0,0,1-7.86-11c-2.22-5.72-6.27-13.89-12.89-20.31a14.54,14.54,0,0,0-4.68-3.11,12.61,12.61,0,0,0-4.69-.87c-4.52,0-9.15,2.13-13.63,4.19a63.51,63.51,0,0,1-6.2,2.61l-2.91,1Zm54.12,8.25a52.52,52.52,0,0,0-10.17,1.18l-.73.15.41.62a7.73,7.73,0,0,0,1.41,1.58c4.29,3.64,11.19,7.31,17,7.31a11,11,0,0,0,4.57-.92,3.51,3.51,0,0,0,2.08-1.94,2.85,2.85,0,0,0-.22-1.71c-1-2.58-3.8-4-5.38-4.68A23.25,23.25,0,0,0,700.43,542.3Zm6.3-20.37a11,11,0,0,0-4.84,1.44,25.69,25.69,0,0,0-9.09,7.83,20.21,20.21,0,0,0-3.75,7.62l-.17.85.82-.28a38.62,38.62,0,0,1,4.71-1.18l.29-.07c1-.21,1.9-.4,2.8-.65A25.54,25.54,0,0,0,707.63,532a11,11,0,0,0,3.21-4.15,4.72,4.72,0,0,0-.32-4.31,4.64,4.64,0,0,0-3.73-1.65h-.06Z"/><path d="M673.76,503l-1.33,21.27,0,.67.59.29a17.75,17.75,0,0,1,4.39,3.17,51.76,51.76,0,0,1,7.52,9.33l1.21,1.91.59-2.18a24.6,24.6,0,0,1,4-7.76,28.37,28.37,0,0,1,10-8.63,13.28,13.28,0,0,1,6-1.72h.1a6.68,6.68,0,0,1,6.5,9.53,13.34,13.34,0,0,1-3.91,5.19,27.67,27.67,0,0,1-5.8,3.93l-3,1.51,3.31.38a24.15,24.15,0,0,1,6.43,1.6c2.42,1,5.57,2.86,6.86,6.18a5.52,5.52,0,0,1,.31,3.31,5.92,5.92,0,0,1-3.55,3.7,13.4,13.4,0,0,1-5.58,1.13c-4.52,0-10-1.88-15-5.16l-3.13-2,1.7,3.33a25,25,0,0,0,6.06,7.7l13.06,11,6.37,5.39a12.42,12.42,0,0,1,4.3,11.85,38,38,0,0,1-1.51,5.69c-2.84,7.89-8.06,12.35-15.1,12.9-.51,0-1.09.07-1.79.07-9.56,0-33.78-4.4-57.76-11.76-27.94-8.58-46.18-18.08-51.34-26.76a25.4,25.4,0,0,1-3.33-13.11,43.24,43.24,0,0,1,1.44-10.6c2.24-8.81,6.7-17.29,10.06-22.86a16.85,16.85,0,0,1,12.68-8.09l.85-.09,0-.85.41-8.38,1.43,0,1.07,0-.41,8.44,0,.89.89.14a15.85,15.85,0,0,1,5.7,2.09,15.36,15.36,0,0,1,2.91,2.26,37.82,37.82,0,0,1,5.26,7c2.39,3.82,4.11,6.59,8,6.59a11.71,11.71,0,0,0,1.9-.19,38.63,38.63,0,0,0,8.22-3.09l.12-.06c4.53-2.08,9.66-4.44,14.83-4.44a15.46,15.46,0,0,1,2.57.21l1.1.18.07-1.1L671.25,503l1.5,0,1,0m34.49,89.66c2.92,0,5.86-.11,8.7-.31a1.91,1.91,0,0,0,2-1.76c1-4.6,1.32-9.34-2.9-12.91l-1.74-1.47-3.26-2.77a2.29,2.29,0,0,0-1-.52,1.63,1.63,0,0,0-.31,0,2.46,2.46,0,0,0-.78.15,32.82,32.82,0,0,1-10.21,1.56,41.13,41.13,0,0,1-7.68-.74c-17.25-3.25-33.11-16.17-47.15-38.4a3.45,3.45,0,0,1-.2-.32l-.22-.35,0,0h0l-.09-.13h2.68c.81,1,3.34,4.61,4.91,6.85,1.34,1.91,2.11,3,2.37,3.33a107.34,107.34,0,0,0,9.41,10.46c8.14,7.88,20.93,17.27,35.64,17.27a34.27,34.27,0,0,0,7.94-.94l1.93-.46-1.52-1.28-10.15-8.57a27,27,0,0,1-7.71-10.83c-2.25-5.77-6.33-14-13-20.49a15.06,15.06,0,0,0-4.84-3.22,13.33,13.33,0,0,0-4.87-.9c-4.63,0-9.31,2.15-13.84,4.24a63.53,63.53,0,0,1-6.15,2.59l-3.34,1.12-.27-.27-.46,0c-.31,0-.61,0-.91,0-5.09,0-7.39-3.67-9.84-7.58a34.93,34.93,0,0,0-5-6.66,12.72,12.72,0,0,0-2.51-1.95,13.76,13.76,0,0,0-7.1-2,14.2,14.2,0,0,0-3.73.49,14.67,14.67,0,0,0-8.85,6.66,90.14,90.14,0,0,0-9.5,21.06c-.26,1,0,1.77,8.7,8.08.56.4,1,.7,1.15.84,3.56,2.78,7.28,5.5,11.07,8.09,1.89,1.29,3.36,2.27,4.77,3.18a211.23,211.23,0,0,0,21.19,12.06c22.52,11.13,44.94,16.77,66.65,16.77m-20-52.19,1.63-.56a38.27,38.27,0,0,1,4.66-1.17l.33-.07c1-.21,1.88-.4,2.78-.65A26.08,26.08,0,0,0,708,532.42a11.42,11.42,0,0,0,3.34-4.36,4.56,4.56,0,0,0-4.51-6.62h-.07a11.36,11.36,0,0,0-5.05,1.48,26.07,26.07,0,0,0-9.27,8,20.61,20.61,0,0,0-3.84,7.81l-.33,1.7m20.08,13.22a11.42,11.42,0,0,0,4.77-1,3.94,3.94,0,0,0,2.37-2.28,3.4,3.4,0,0,0-.24-2c-1.07-2.75-4-4.29-5.66-5a23.66,23.66,0,0,0-9.12-1.63A52.67,52.67,0,0,0,690.16,543l-1.45.29.81,1.25a8.18,8.18,0,0,0,1.51,1.68c4.35,3.7,11.38,7.43,17.28,7.43M703,604.37c.72,0,1.37,0,2-.07,4.72-.36,10.57-3.68,11.79-8.42l.26-1-1-.2a10.53,10.53,0,0,0-1.88-.15c-.83,0-1.69.07-2.51.13s-1.42.12-2.06.13h-1.23c-1.71,0-3.43,0-5.13-.09-4.08-.16-8.23-.52-12.36-1.07a157.34,157.34,0,0,1-53.86-17.76,264.3,264.3,0,0,1-22.73-13.64c-3.44-2.35-6.83-4.82-10.07-7.33-1.2-.92-2.4-2-3.55-3a56.8,56.8,0,0,0-5.25-4.2L594,546.38l-.34,1.88c-1.34,7.41-.53,13.68,2.41,18.64,6.47,10.88,34.09,20.75,50,25.66,21.77,6.73,46.26,11.81,57,11.81M674.83,501.93l-2.1,0-2.42,0L669,522.86a15.92,15.92,0,0,0-2.74-.23c-5.37,0-10.63,2.42-15.25,4.54a38.23,38.23,0,0,1-8.1,3.07,11.21,11.21,0,0,1-1.72.17c-3.2,0-4.65-2.08-7.17-6.12a38.64,38.64,0,0,0-5.4-7.21,16.38,16.38,0,0,0-3.1-2.41,16.81,16.81,0,0,0-6.07-2.22l.46-9.5-2.14,0-2.36,0-.46,9.31a18.28,18.28,0,0,0-2.7.5,17.82,17.82,0,0,0-10.73,8.07c-3.39,5.63-7.9,14.2-10.17,23.13a44.22,44.22,0,0,0-1.47,10.84,26.3,26.3,0,0,0,3.47,13.62c12.22,20.54,89.54,39,110,39,.69,0,1.32,0,1.88-.07,7.45-.58,13-5.27,15.95-13.56A38.23,38.23,0,0,0,722.7,588a13.33,13.33,0,0,0,.23-2.43,13.63,13.63,0,0,0-4.86-10.37l-6.37-5.4-13.06-11a23.85,23.85,0,0,1-5.82-7.39c4.7,3.06,10.38,5.32,15.57,5.32a14.41,14.41,0,0,0,6-1.22,6.89,6.89,0,0,0,4.1-4.36,6.43,6.43,0,0,0-.35-3.92c-1.42-3.67-4.81-5.68-7.41-6.74a25.53,25.53,0,0,0-6.7-1.68,28.72,28.72,0,0,0,6-4.06,14.34,14.34,0,0,0,4.19-5.59,8.23,8.23,0,0,0-.77-7.75,8.1,8.1,0,0,0-6.67-3.14h-.11a14.34,14.34,0,0,0-6.44,1.83,29.43,29.43,0,0,0-10.38,8.94,25.4,25.4,0,0,0-4.13,8.08,52.14,52.14,0,0,0-7.66-9.51,18.54,18.54,0,0,0-4.64-3.35l1.4-22.36Zm33.42,89.68c-23,0-45.63-6.5-66.21-16.66a211,211,0,0,1-21.09-12c-1.6-1-3.18-2.1-4.75-3.16q-5.64-3.85-11-8c-1-.81-9.77-6.89-9.5-7.87a88.36,88.36,0,0,1,9.39-20.81,13.67,13.67,0,0,1,8.25-6.21,13.35,13.35,0,0,1,3.47-.46,12.75,12.75,0,0,1,6.59,1.83,11.81,11.81,0,0,1,2.31,1.8,34,34,0,0,1,4.81,6.48c2.48,4,5,8,10.69,8,.32,0,.65,0,1,0l0,0,.41.67,0,0,.44.7c10.95,17.34,26.77,34.87,47.81,38.84a43.32,43.32,0,0,0,7.86.75,34,34,0,0,0,10.52-1.6,1.53,1.53,0,0,1,.47-.11l.12,0a1.34,1.34,0,0,1,.54.31l5,4.23c3.85,3.25,3.53,7.49,2.57,11.93a1.26,1.26,0,0,1-.38.79,1.22,1.22,0,0,1-.68.18q-4.33.32-8.66.31Zm-18.71-52.69a19.66,19.66,0,0,1,3.67-7.42,25.1,25.1,0,0,1,8.91-7.68,10.43,10.43,0,0,1,4.61-1.38h.06a4.11,4.11,0,0,1,3.33,1.44,4.18,4.18,0,0,1,.25,3.83,10.45,10.45,0,0,1-3.07,4,25.05,25.05,0,0,1-9.93,5.34c-1,.27-2,.48-3.06.71a40.1,40.1,0,0,0-4.77,1.2Zm8.87,32.55c-13.25,0-25.51-7.85-34.94-17a108,108,0,0,1-9.33-10.37c-.73-.92-7.33-10.56-7.64-10.56a63.29,63.29,0,0,0,6.25-2.63c4.46-2.06,9-4.15,13.42-4.15a12.05,12.05,0,0,1,4.51.84,13.91,13.91,0,0,1,4.51,3c6.56,6.36,10.57,14.46,12.78,20.14A28,28,0,0,0,696,562l10.15,8.57a33.12,33.12,0,0,1-7.71.91Zm9.9-18.83c-5.9,0-12.75-3.9-16.63-7.19a7,7,0,0,1-1.32-1.47,52.25,52.25,0,0,1,10.07-1.18,22.84,22.84,0,0,1,8.74,1.56c1.51.61,4.18,2,5.11,4.4a2.41,2.41,0,0,1,.2,1.4,3.09,3.09,0,0,1-1.81,1.61,10.46,10.46,0,0,1-4.36.87ZM703,603.37c-20.36,0-95.42-19-106.09-37-2.81-4.74-3.58-10.76-2.28-17.95l.08.07c3.08,2.07,5.84,4.88,8.8,7.15q5,3.83,10.12,7.36a261.68,261.68,0,0,0,22.81,13.69,159.35,159.35,0,0,0,54.21,17.88c4.13.55,8.29.91,12.45,1.07,1.72.06,3.44.09,5.17.09h1.24c1.42,0,3.05-.26,4.56-.26a9.36,9.36,0,0,1,1.7.14c-1.13,4.4-6.72,7.36-10.9,7.68-.56,0-1.18.06-1.87.06Z"/><path class="cls-5" d="M522.81,268.61l-23.63,92.94-59.37,2.69a8.32,8.32,0,0,0-7.93,8.68h0a8.32,8.32,0,0,0,8.69,7.93l54.32-2.46,145.86-6.62,17.44-.79a8.32,8.32,0,0,0,7.68-6.26L691,265.81a8.32,8.32,0,0,0-8.44-10.36l-152.1,6.9a8.33,8.33,0,0,0-7.68,6.26Z"/><path class="cls-3" d="M440.18,382.86a10.32,10.32,0,0,1-.46-20.62l57.88-2.63,23.27-91.49a10.27,10.27,0,0,1,9.53-7.77l152.1-6.9H683a10.32,10.32,0,0,1,10,12.86l-25.16,98.91a10.24,10.24,0,0,1-9.53,7.76l-217.62,9.88Zm242.5-125.41-152.1,6.9a6.29,6.29,0,0,0-5.83,4.75L501.12,362a2,2,0,0,1-1.85,1.5l-59.37,2.7a6.31,6.31,0,0,0,.26,12.62h.32L658.1,369a6.3,6.3,0,0,0,5.84-4.75l25.15-98.92a6.31,6.31,0,0,0-6.11-7.87Zm-183.5,104.6h0v0Z"/><path d="M683,253.94a9.82,9.82,0,0,1,9.5,12.24l-25.15,98.91a9.78,9.78,0,0,1-9.07,7.39l-217.62,9.87h-.46a9.82,9.82,0,0,1-.44-19.62l57.52-2.61.74,0,.18-.72,23.18-91.14a9.77,9.77,0,0,1,9.07-7.39L682.52,254H683M440.16,379.36h.34l217.62-9.87a6.79,6.79,0,0,0,6.3-5.13l25.15-98.91a6.81,6.81,0,0,0-6.59-8.5h-.32l-152.1,6.9a6.79,6.79,0,0,0-6.3,5.13l-23.63,92.94a1.5,1.5,0,0,1-1.38,1.12l-59.37,2.7a6.81,6.81,0,0,0,.28,13.62m59-16.81v-2h0v2M683,252.94h-.5l-152.1,6.91a10.74,10.74,0,0,0-10,8.13l-23.18,91.14-57.51,2.61a10.82,10.82,0,0,0,.48,21.62h.5l217.62-9.88a10.75,10.75,0,0,0,10-8.13l25.15-98.92A10.82,10.82,0,0,0,683,252.94ZM440.16,378.36a5.71,5.71,0,0,1-3.89-1.52,5.81,5.81,0,0,1,3.65-10.1l59.37-2.7a2.5,2.5,0,0,0,2.31-1.88l23.63-92.93a5.8,5.8,0,0,1,5.38-4.38l152.1-6.9H683a5.81,5.81,0,0,1,5.62,7.25L663.45,364.1a5.79,5.79,0,0,1-5.37,4.38l-217.63,9.88Zm59-16.81h0Z"/><path class="cls-3" d="M604.73,322.69A17.3,17.3,0,0,1,593,318.16a2,2,0,0,1-.65-1.39,2,2,0,0,1,.52-1.44,2,2,0,0,1,2.82-.12,13.39,13.39,0,0,0,18.87-.86,2,2,0,0,1,2.83-.13,2,2,0,0,1,.65,1.39,2,2,0,0,1-.52,1.44A17.43,17.43,0,0,1,604.73,322.69Z"/><path d="M616.08,314.2h0a1.5,1.5,0,0,1,1.11,2.51,16.89,16.89,0,0,1-23.82,1.08,1.53,1.53,0,0,1-.49-1,1.54,1.54,0,0,1,.4-1.08,1.49,1.49,0,0,1,2.11-.1,13.88,13.88,0,0,0,19.58-.88,1.49,1.49,0,0,1,1.11-.49m0-1a2.48,2.48,0,0,0-1.84.81,12.89,12.89,0,0,1-18.17.83,2.5,2.5,0,0,0-3.37,3.69,17.88,17.88,0,0,0,25.23-1.15,2.49,2.49,0,0,0-1.85-4.18Z"/><path class="cls-3" d="M596.25,309.21a2.46,2.46,0,0,1-.11-4.91h.12a2.46,2.46,0,0,1,.11,4.92Z"/><path d="M596.26,304.79a2,2,0,0,1,.08,3.92h-.09a2,2,0,0,1-2-1.87,1.95,1.95,0,0,1,1.87-2h.09m0-1h-.14a3,3,0,0,0,.13,5.91h.14a3,3,0,0,0-.13-5.92Z"/><path class="cls-3" d="M612.68,308.46a2.45,2.45,0,0,1-2.46-2.34,2.48,2.48,0,0,1,2.35-2.57h.12a2.46,2.46,0,0,1,.1,4.91Z"/><path d="M612.68,304.05a2,2,0,0,1,2,1.87,1.95,1.95,0,0,1-1.87,2h-.09a2,2,0,0,1-.09-3.91h.09m0-1h-.13a3,3,0,0,0,.13,5.91h.13a3,3,0,0,0-.13-5.91Z"/><path class="cls-4" d="M542,124.46a.5.5,0,0,1-.5-.5v-2a.51.51,0,0,1,.4-.51l4.6-.89V97.46h-5.3l-.14.15-.87.89c-1,1-1,1-1.57,1h-.51l-1.11,0a.5.5,0,0,1-.5-.5V92a.5.5,0,0,1,.5-.5h26a.5.5,0,0,1,.5.5v7a.5.5,0,0,1-.5.5l-1,0h-.5c-.7,0-.7,0-1.56-.89-.25-.26-.57-.58-1-1l-.15-.15H553.5v23.1l4.6.9a.49.49,0,0,1,.4.49v2a.5.5,0,0,1-.5.5Z"/><path d="M563,92v7l-1,0h-.49c-.49,0-.49,0-1.2-.73-.26-.27-.57-.59-1-1L559,97h-6v24l.81.16L558,122v2H542v-2l4.2-.82L547,121V97h-6l-.29.3-.87.89c-.8.84-.8.84-1.21.84h-.49L537,99V92h26m0-1H537a1,1,0,0,0-1,1v7a1,1,0,0,0,1,1c.76,0,1.26,0,1.62,0,1,0,1-.23,2.79-2H546v22.18l-4.2.82a1,1,0,0,0-.8,1v2a1,1,0,0,0,1,1h16a1,1,0,0,0,1-1v-2a1,1,0,0,0-.8-1l-4.2-.82V98h4.59c1.85,1.81,1.72,2,2.89,2l1.52,0a1,1,0,0,0,1-1V92a1,1,0,0,0-1-1Z"/><path d="M538,88h-3a1,1,0,0,1,0-2h3a1,1,0,0,1,0,2Z"/><path d="M545,88h-3a1,1,0,0,1,0-2h3a1,1,0,0,1,0,2Z"/><path d="M565,88h-3a1,1,0,0,1,0-2h3a1,1,0,0,1,0,2Z"/><path d="M558,88h-3a1,1,0,0,1,0-2h3a1,1,0,0,1,0,2Z"/><path d="M551,88h-2a1,1,0,0,1,0-2h2a1,1,0,0,1,0,2Z"/><path d="M528,123v-3a1,1,0,0,1,2,0v3a1,1,0,1,1-2,0Z"/><path d="M528,116v-3a1,1,0,0,1,2,0v3a1,1,0,1,1-2,0Z"/><path d="M528,96V93a1,1,0,0,1,2,0v3a1,1,0,1,1-2,0Z"/><path d="M528,103v-3a1,1,0,0,1,2,0v3a1,1,0,1,1-2,0Z"/><path d="M528,109v-2a1,1,0,0,1,2,0v2a1,1,0,1,1-2,0Z"/><path d="M565,130h-3a1,1,0,1,1,0-2h3a1,1,0,0,1,0,2Z"/><path d="M558,130h-3a1,1,0,1,1,0-2h3a1,1,0,0,1,0,2Z"/><path d="M538,130h-3a1,1,0,1,1,0-2h3a1,1,0,0,1,0,2Z"/><path d="M545,130h-3a1,1,0,1,1,0-2h3a1,1,0,0,1,0,2Z"/><path d="M551,130h-2a1,1,0,1,1,0-2h2a1,1,0,0,1,0,2Z"/><path d="M570,96V93a1,1,0,0,1,2,0v3a1,1,0,1,1-2,0Z"/><path d="M570,103v-3a1,1,0,0,1,2,0v3a1,1,0,1,1-2,0Z"/><path d="M570,123v-3a1,1,0,0,1,2,0v3a1,1,0,1,1-2,0Z"/><path d="M570,116v-3a1,1,0,0,1,2,0v3a1,1,0,1,1-2,0Z"/><path d="M570,109v-2a1,1,0,0,1,2,0v2a1,1,0,1,1-2,0Z"/><rect x="526" y="83.96" width="6" height="6" rx="1"/><rect x="568" y="83.96" width="6" height="6" rx="1"/><rect x="526" y="125.96" width="6" height="6" rx="1"/><rect x="568" y="125.96" width="6" height="6" rx="1"/></g></g></svg>