<svg id="Capa_1" data-name="Capa 1" xmlns="http://www.w3.org/2000/svg" viewBox="0 0 208.859 94.381"><path d="M168.89,14.574a26.7,26.7,0,0,0-11.635-10.7Q149.484,0,138.261,0H81.345V18.46H141.1q6.547,0,9.763,3.07,3.218,3.085,3.211,8.7t-3.211,8.7q-3.216,3.069-9.763,3.07H81.345v51.9h22.869V60.181h34.047q11.495,0,19.255-4.147a27.5,27.5,0,0,0,11.5-10.9,30.278,30.278,0,0,0,3.744-14.912A31.169,31.169,0,0,0,168.89,14.574Z"/><path d="M138.262,73.17h-.546L149.4,94.381h25.818L160.438,69.018A55.7,55.7,0,0,1,138.262,73.17Z"/><path d="M11.675,66.874,0,47.187l11.675-19.68H21.1L9.422,47.187,21.1,66.874Z"/><path d="M187.762,66.874l11.675-19.687-11.675-19.68h9.422l11.675,19.68L197.184,66.874Z"/><path d="M66.364,10.413,44.569,83.968H37.235l21.79-73.555Z"/></svg>