<svg id="Capa_1" data-name="Capa 1" xmlns="http://www.w3.org/2000/svg" viewBox="0 0 58.286 26.339"><path d="M47.132,4.067a7.461,7.461,0,0,0-3.247-2.986A11.8,11.8,0,0,0,38.584,0H22.7V5.152H39.377a3.817,3.817,0,0,1,2.725.856A3.2,3.2,0,0,1,43,8.435a3.2,3.2,0,0,1-.9,2.427,3.817,3.817,0,0,1-2.725.857H22.7V26.2h6.382V16.794h9.5a11.25,11.25,0,0,0,5.373-1.157,7.669,7.669,0,0,0,3.211-3.04,8.447,8.447,0,0,0,1.045-4.162A8.7,8.7,0,0,0,47.132,4.067Z" fill="#fff"/><path d="M38.584,20.419h-.152l3.261,5.92H48.9l-4.125-7.078A15.547,15.547,0,0,1,38.584,20.419Z" fill="#fff"/><path d="M3.258,18.662,0,13.168,3.258,7.676h2.63L2.629,13.168l3.259,5.494Z" fill="#fff"/><path d="M52.4,18.662l3.258-5.494L52.4,7.676h2.63l3.258,5.492-3.258,5.494Z" fill="#fff"/><path d="M18.52,2.906,12.438,23.433H10.391L16.472,2.906Z" fill="#fff"/></svg>