<svg xmlns="http://www.w3.org/2000/svg" xmlns:xlink="http://www.w3.org/1999/xlink" viewBox="0 0 626 427"><defs><style>.cls-1{fill:#fff;}.cls-2{mask:url(#mask);}.cls-3{fill:#0019ff;}.cls-4{mask:url(#mask-2);}.cls-5{mask:url(#mask-9);}.cls-6{mask:url(#mask-10);}.cls-7{mask:url(#mask-41);}.cls-8{mask:url(#mask-42);}.cls-9{mask:url(#mask-56);}.cls-10{fill:#0f3dfb;}.cls-11{fill:#5cfbd8;}.cls-12{mask:url(#mask-89);}.cls-13{mask:url(#mask-90);}</style><mask id="mask" x="22" y="0" width="162" height="152" maskUnits="userSpaceOnUse"><g id="path-1-inside-1"><path class="cls-1" d="M34,7a5,5,0,1,1-5-5A5,5,0,0,1,34,7Z"/><path class="cls-1" d="M54,7a5,5,0,1,1-5-5A5,5,0,0,1,54,7Z"/><path class="cls-1" d="M74,7a5,5,0,1,1-5-5A5,5,0,0,1,74,7Z"/><path class="cls-1" d="M94,7a5,5,0,1,1-5-5A5,5,0,0,1,94,7Z"/><path class="cls-1" d="M114,7a5,5,0,1,1-5-5A5,5,0,0,1,114,7Z"/><path class="cls-1" d="M134,7a5,5,0,1,1-5-5A5,5,0,0,1,134,7Z"/><path class="cls-1" d="M154,7a5,5,0,1,1-5-5A5,5,0,0,1,154,7Z"/><path class="cls-1" d="M174,7a5,5,0,1,1-5-5A5,5,0,0,1,174,7Z"/><path class="cls-1" d="M34,35a5,5,0,1,1-5-5A5,5,0,0,1,34,35Z"/><path class="cls-1" d="M54,35a5,5,0,1,1-5-5A5,5,0,0,1,54,35Z"/><path class="cls-1" d="M74,35a5,5,0,1,1-5-5A5,5,0,0,1,74,35Z"/><path class="cls-1" d="M94,35a5,5,0,1,1-5-5A5,5,0,0,1,94,35Z"/><path class="cls-1" d="M114,35a5,5,0,1,1-5-5A5,5,0,0,1,114,35Z"/><path class="cls-1" d="M134,35a5,5,0,1,1-5-5A5,5,0,0,1,134,35Z"/><path class="cls-1" d="M154,35a5,5,0,1,1-5-5A5,5,0,0,1,154,35Z"/><path class="cls-1" d="M174,35a5,5,0,1,1-5-5A5,5,0,0,1,174,35Z"/><path class="cls-1" d="M34,63a5,5,0,1,1-5-5A5,5,0,0,1,34,63Z"/><path class="cls-1" d="M54,63a5,5,0,1,1-5-5A5,5,0,0,1,54,63Z"/><path class="cls-1" d="M74,63a5,5,0,1,1-5-5A5,5,0,0,1,74,63Z"/><path class="cls-1" d="M94,63a5,5,0,1,1-5-5A5,5,0,0,1,94,63Z"/><path class="cls-1" d="M114,63a5,5,0,1,1-5-5A5,5,0,0,1,114,63Z"/><path class="cls-1" d="M134,63a5,5,0,1,1-5-5A5,5,0,0,1,134,63Z"/><path class="cls-1" d="M154,63a5,5,0,1,1-5-5A5,5,0,0,1,154,63Z"/><path class="cls-1" d="M174,63a5,5,0,1,1-5-5A5,5,0,0,1,174,63Z"/><path class="cls-1" d="M34,91a5,5,0,1,1-5-5A5,5,0,0,1,34,91Z"/><path class="cls-1" d="M54,91a5,5,0,1,1-5-5A5,5,0,0,1,54,91Z"/><path class="cls-1" d="M74,91a5,5,0,1,1-5-5A5,5,0,0,1,74,91Z"/><path class="cls-1" d="M94,91a5,5,0,1,1-5-5A5,5,0,0,1,94,91Z"/><path class="cls-1" d="M114,91a5,5,0,1,1-5-5A5,5,0,0,1,114,91Z"/><path class="cls-1" d="M134,91a5,5,0,1,1-5-5A5,5,0,0,1,134,91Z"/><path class="cls-1" d="M154,91a5,5,0,1,1-5-5A5,5,0,0,1,154,91Z"/><path class="cls-1" d="M174,91a5,5,0,1,1-5-5A5,5,0,0,1,174,91Z"/><path class="cls-1" d="M34,119a5,5,0,1,1-5-5A5,5,0,0,1,34,119Z"/><path class="cls-1" d="M54,119a5,5,0,1,1-5-5A5,5,0,0,1,54,119Z"/><path class="cls-1" d="M74,119a5,5,0,1,1-5-5A5,5,0,0,1,74,119Z"/><path class="cls-1" d="M94,119a5,5,0,1,1-5-5A5,5,0,0,1,94,119Z"/><path class="cls-1" d="M114,119a5,5,0,1,1-5-5A5,5,0,0,1,114,119Z"/><path class="cls-1" d="M134,119a5,5,0,1,1-5-5A5,5,0,0,1,134,119Z"/><path class="cls-1" d="M154,119a5,5,0,1,1-5-5A5,5,0,0,1,154,119Z"/><path class="cls-1" d="M174,119a5,5,0,1,1-5-5A5,5,0,0,1,174,119Z"/><path class="cls-1" d="M34,147a5,5,0,1,1-5-5A5,5,0,0,1,34,147Z"/><path class="cls-1" d="M54,147a5,5,0,1,1-5-5A5,5,0,0,1,54,147Z"/><path class="cls-1" d="M74,147a5,5,0,1,1-5-5A5,5,0,0,1,74,147Z"/><path class="cls-1" d="M94,147a5,5,0,1,1-5-5A5,5,0,0,1,94,147Z"/><path class="cls-1" d="M114,147a5,5,0,1,1-5-5A5,5,0,0,1,114,147Z"/><path class="cls-1" d="M134,147a5,5,0,1,1-5-5A5,5,0,0,1,134,147Z"/><path class="cls-1" d="M154,147a5,5,0,1,1-5-5A5,5,0,0,1,154,147Z"/><path class="cls-1" d="M174,147a5,5,0,1,1-5-5A5,5,0,0,1,174,147Z"/><path class="cls-1" d="M44,21a5,5,0,1,1-5-5A5,5,0,0,1,44,21Z"/><path class="cls-1" d="M64,21a5,5,0,1,1-5-5A5,5,0,0,1,64,21Z"/><path class="cls-1" d="M84,21a5,5,0,1,1-5-5A5,5,0,0,1,84,21Z"/><path class="cls-1" d="M104,21a5,5,0,1,1-5-5A5,5,0,0,1,104,21Z"/><path class="cls-1" d="M124,21a5,5,0,1,1-5-5A5,5,0,0,1,124,21Z"/><path class="cls-1" d="M144,21a5,5,0,1,1-5-5A5,5,0,0,1,144,21Z"/><path class="cls-1" d="M164,21a5,5,0,1,1-5-5A5,5,0,0,1,164,21Z"/><path class="cls-1" d="M184,21a5,5,0,1,1-5-5A5,5,0,0,1,184,21Z"/><path class="cls-1" d="M44,49a5,5,0,1,1-5-5A5,5,0,0,1,44,49Z"/><path class="cls-1" d="M64,49a5,5,0,1,1-5-5A5,5,0,0,1,64,49Z"/><path class="cls-1" d="M84,49a5,5,0,1,1-5-5A5,5,0,0,1,84,49Z"/><path class="cls-1" d="M104,49a5,5,0,1,1-5-5A5,5,0,0,1,104,49Z"/><path class="cls-1" d="M124,49a5,5,0,1,1-5-5A5,5,0,0,1,124,49Z"/><path class="cls-1" d="M144,49a5,5,0,1,1-5-5A5,5,0,0,1,144,49Z"/><path class="cls-1" d="M164,49a5,5,0,1,1-5-5A5,5,0,0,1,164,49Z"/><path class="cls-1" d="M184,49a5,5,0,1,1-5-5A5,5,0,0,1,184,49Z"/><path class="cls-1" d="M44,77a5,5,0,1,1-5-5A5,5,0,0,1,44,77Z"/><path class="cls-1" d="M64,77a5,5,0,1,1-5-5A5,5,0,0,1,64,77Z"/><path class="cls-1" d="M84,77a5,5,0,1,1-5-5A5,5,0,0,1,84,77Z"/><path class="cls-1" d="M104,77a5,5,0,1,1-5-5A5,5,0,0,1,104,77Z"/><path class="cls-1" d="M124,77a5,5,0,1,1-5-5A5,5,0,0,1,124,77Z"/><path class="cls-1" d="M144,77a5,5,0,1,1-5-5A5,5,0,0,1,144,77Z"/><path class="cls-1" d="M164,77a5,5,0,1,1-5-5A5,5,0,0,1,164,77Z"/><path class="cls-1" d="M184,77a5,5,0,1,1-5-5A5,5,0,0,1,184,77Z"/><path class="cls-1" d="M44,105a5,5,0,1,1-5-5A5,5,0,0,1,44,105Z"/><path class="cls-1" d="M64,105a5,5,0,1,1-5-5A5,5,0,0,1,64,105Z"/><path class="cls-1" d="M84,105a5,5,0,1,1-5-5A5,5,0,0,1,84,105Z"/><path class="cls-1" d="M104,105a5,5,0,1,1-5-5A5,5,0,0,1,104,105Z"/><path class="cls-1" d="M124,105a5,5,0,1,1-5-5A5,5,0,0,1,124,105Z"/><path class="cls-1" d="M144,105a5,5,0,1,1-5-5A5,5,0,0,1,144,105Z"/><path class="cls-1" d="M164,105a5,5,0,1,1-5-5A5,5,0,0,1,164,105Z"/><path class="cls-1" d="M184,105a5,5,0,1,1-5-5A5,5,0,0,1,184,105Z"/><path class="cls-1" d="M44,133a5,5,0,1,1-5-5A5,5,0,0,1,44,133Z"/><path class="cls-1" d="M64,133a5,5,0,1,1-5-5A5,5,0,0,1,64,133Z"/><path class="cls-1" d="M84,133a5,5,0,1,1-5-5A5,5,0,0,1,84,133Z"/><path class="cls-1" d="M104,133a5,5,0,1,1-5-5A5,5,0,0,1,104,133Z"/><path class="cls-1" d="M124,133a5,5,0,1,1-5-5A5,5,0,0,1,124,133Z"/><path class="cls-1" d="M144,133a5,5,0,1,1-5-5A5,5,0,0,1,144,133Z"/><path class="cls-1" d="M164,133a5,5,0,1,1-5-5A5,5,0,0,1,164,133Z"/><path class="cls-1" d="M184,133a5,5,0,1,1-5-5A5,5,0,0,1,184,133Z"/></g></mask><mask id="mask-2" x="24" y="0" width="160" height="152" maskUnits="userSpaceOnUse"><g id="path-1-inside-1-2" data-name="path-1-inside-1"><path class="cls-1" d="M34,7a5,5,0,1,1-5-5A5,5,0,0,1,34,7Z"/><path class="cls-1" d="M54,7a5,5,0,1,1-5-5A5,5,0,0,1,54,7Z"/><path class="cls-1" d="M74,7a5,5,0,1,1-5-5A5,5,0,0,1,74,7Z"/><path class="cls-1" d="M94,7a5,5,0,1,1-5-5A5,5,0,0,1,94,7Z"/><path class="cls-1" d="M114,7a5,5,0,1,1-5-5A5,5,0,0,1,114,7Z"/><path class="cls-1" d="M134,7a5,5,0,1,1-5-5A5,5,0,0,1,134,7Z"/><path class="cls-1" d="M154,7a5,5,0,1,1-5-5A5,5,0,0,1,154,7Z"/><path class="cls-1" d="M174,7a5,5,0,1,1-5-5A5,5,0,0,1,174,7Z"/><path class="cls-1" d="M34,35a5,5,0,1,1-5-5A5,5,0,0,1,34,35Z"/><path class="cls-1" d="M54,35a5,5,0,1,1-5-5A5,5,0,0,1,54,35Z"/><path class="cls-1" d="M74,35a5,5,0,1,1-5-5A5,5,0,0,1,74,35Z"/><path class="cls-1" d="M94,35a5,5,0,1,1-5-5A5,5,0,0,1,94,35Z"/><path class="cls-1" d="M114,35a5,5,0,1,1-5-5A5,5,0,0,1,114,35Z"/><path class="cls-1" d="M134,35a5,5,0,1,1-5-5A5,5,0,0,1,134,35Z"/><path class="cls-1" d="M154,35a5,5,0,1,1-5-5A5,5,0,0,1,154,35Z"/><path class="cls-1" d="M174,35a5,5,0,1,1-5-5A5,5,0,0,1,174,35Z"/><path class="cls-1" d="M34,63a5,5,0,1,1-5-5A5,5,0,0,1,34,63Z"/><path class="cls-1" d="M54,63a5,5,0,1,1-5-5A5,5,0,0,1,54,63Z"/><path class="cls-1" d="M74,63a5,5,0,1,1-5-5A5,5,0,0,1,74,63Z"/><path class="cls-1" d="M94,63a5,5,0,1,1-5-5A5,5,0,0,1,94,63Z"/><path class="cls-1" d="M114,63a5,5,0,1,1-5-5A5,5,0,0,1,114,63Z"/><path class="cls-1" d="M134,63a5,5,0,1,1-5-5A5,5,0,0,1,134,63Z"/><path class="cls-1" d="M154,63a5,5,0,1,1-5-5A5,5,0,0,1,154,63Z"/><path class="cls-1" d="M174,63a5,5,0,1,1-5-5A5,5,0,0,1,174,63Z"/><path class="cls-1" d="M34,91a5,5,0,1,1-5-5A5,5,0,0,1,34,91Z"/><path class="cls-1" d="M54,91a5,5,0,1,1-5-5A5,5,0,0,1,54,91Z"/><path class="cls-1" d="M74,91a5,5,0,1,1-5-5A5,5,0,0,1,74,91Z"/><path class="cls-1" d="M94,91a5,5,0,1,1-5-5A5,5,0,0,1,94,91Z"/><path class="cls-1" d="M114,91a5,5,0,1,1-5-5A5,5,0,0,1,114,91Z"/><path class="cls-1" d="M134,91a5,5,0,1,1-5-5A5,5,0,0,1,134,91Z"/><path class="cls-1" d="M154,91a5,5,0,1,1-5-5A5,5,0,0,1,154,91Z"/><path class="cls-1" d="M174,91a5,5,0,1,1-5-5A5,5,0,0,1,174,91Z"/><path class="cls-1" d="M34,119a5,5,0,1,1-5-5A5,5,0,0,1,34,119Z"/><path class="cls-1" d="M54,119a5,5,0,1,1-5-5A5,5,0,0,1,54,119Z"/><path class="cls-1" d="M74,119a5,5,0,1,1-5-5A5,5,0,0,1,74,119Z"/><path class="cls-1" d="M94,119a5,5,0,1,1-5-5A5,5,0,0,1,94,119Z"/><path class="cls-1" d="M114,119a5,5,0,1,1-5-5A5,5,0,0,1,114,119Z"/><path class="cls-1" d="M134,119a5,5,0,1,1-5-5A5,5,0,0,1,134,119Z"/><path class="cls-1" d="M154,119a5,5,0,1,1-5-5A5,5,0,0,1,154,119Z"/><path class="cls-1" d="M174,119a5,5,0,1,1-5-5A5,5,0,0,1,174,119Z"/><path class="cls-1" d="M34,147a5,5,0,1,1-5-5A5,5,0,0,1,34,147Z"/><path class="cls-1" d="M54,147a5,5,0,1,1-5-5A5,5,0,0,1,54,147Z"/><path class="cls-1" d="M74,147a5,5,0,1,1-5-5A5,5,0,0,1,74,147Z"/><path class="cls-1" d="M94,147a5,5,0,1,1-5-5A5,5,0,0,1,94,147Z"/><path class="cls-1" d="M114,147a5,5,0,1,1-5-5A5,5,0,0,1,114,147Z"/><path class="cls-1" d="M134,147a5,5,0,1,1-5-5A5,5,0,0,1,134,147Z"/><path class="cls-1" d="M154,147a5,5,0,1,1-5-5A5,5,0,0,1,154,147Z"/><path class="cls-1" d="M174,147a5,5,0,1,1-5-5A5,5,0,0,1,174,147Z"/><path class="cls-1" d="M44,21a5,5,0,1,1-5-5A5,5,0,0,1,44,21Z"/><path class="cls-1" d="M64,21a5,5,0,1,1-5-5A5,5,0,0,1,64,21Z"/><path class="cls-1" d="M84,21a5,5,0,1,1-5-5A5,5,0,0,1,84,21Z"/><path class="cls-1" d="M104,21a5,5,0,1,1-5-5A5,5,0,0,1,104,21Z"/><path class="cls-1" d="M124,21a5,5,0,1,1-5-5A5,5,0,0,1,124,21Z"/><path class="cls-1" d="M144,21a5,5,0,1,1-5-5A5,5,0,0,1,144,21Z"/><path class="cls-1" d="M164,21a5,5,0,1,1-5-5A5,5,0,0,1,164,21Z"/><path class="cls-1" d="M184,21a5,5,0,1,1-5-5A5,5,0,0,1,184,21Z"/><path class="cls-1" d="M44,49a5,5,0,1,1-5-5A5,5,0,0,1,44,49Z"/><path class="cls-1" d="M64,49a5,5,0,1,1-5-5A5,5,0,0,1,64,49Z"/><path class="cls-1" d="M84,49a5,5,0,1,1-5-5A5,5,0,0,1,84,49Z"/><path class="cls-1" d="M104,49a5,5,0,1,1-5-5A5,5,0,0,1,104,49Z"/><path class="cls-1" d="M124,49a5,5,0,1,1-5-5A5,5,0,0,1,124,49Z"/><path class="cls-1" d="M144,49a5,5,0,1,1-5-5A5,5,0,0,1,144,49Z"/><path class="cls-1" d="M164,49a5,5,0,1,1-5-5A5,5,0,0,1,164,49Z"/><path class="cls-1" d="M184,49a5,5,0,1,1-5-5A5,5,0,0,1,184,49Z"/><path class="cls-1" d="M44,77a5,5,0,1,1-5-5A5,5,0,0,1,44,77Z"/><path class="cls-1" d="M64,77a5,5,0,1,1-5-5A5,5,0,0,1,64,77Z"/><path class="cls-1" d="M84,77a5,5,0,1,1-5-5A5,5,0,0,1,84,77Z"/><path class="cls-1" d="M104,77a5,5,0,1,1-5-5A5,5,0,0,1,104,77Z"/><path class="cls-1" d="M124,77a5,5,0,1,1-5-5A5,5,0,0,1,124,77Z"/><path class="cls-1" d="M144,77a5,5,0,1,1-5-5A5,5,0,0,1,144,77Z"/><path class="cls-1" d="M164,77a5,5,0,1,1-5-5A5,5,0,0,1,164,77Z"/><path class="cls-1" d="M184,77a5,5,0,1,1-5-5A5,5,0,0,1,184,77Z"/><path class="cls-1" d="M44,105a5,5,0,1,1-5-5A5,5,0,0,1,44,105Z"/><path class="cls-1" d="M64,105a5,5,0,1,1-5-5A5,5,0,0,1,64,105Z"/><path class="cls-1" d="M84,105a5,5,0,1,1-5-5A5,5,0,0,1,84,105Z"/><path class="cls-1" d="M104,105a5,5,0,1,1-5-5A5,5,0,0,1,104,105Z"/><path class="cls-1" d="M124,105a5,5,0,1,1-5-5A5,5,0,0,1,124,105Z"/><path class="cls-1" d="M144,105a5,5,0,1,1-5-5A5,5,0,0,1,144,105Z"/><path class="cls-1" d="M164,105a5,5,0,1,1-5-5A5,5,0,0,1,164,105Z"/><path class="cls-1" d="M184,105a5,5,0,1,1-5-5A5,5,0,0,1,184,105Z"/><path class="cls-1" d="M44,133a5,5,0,1,1-5-5A5,5,0,0,1,44,133Z"/><path class="cls-1" d="M64,133a5,5,0,1,1-5-5A5,5,0,0,1,64,133Z"/><path class="cls-1" d="M84,133a5,5,0,1,1-5-5A5,5,0,0,1,84,133Z"/><path class="cls-1" d="M104,133a5,5,0,1,1-5-5A5,5,0,0,1,104,133Z"/><path class="cls-1" d="M124,133a5,5,0,1,1-5-5A5,5,0,0,1,124,133Z"/><path class="cls-1" d="M144,133a5,5,0,1,1-5-5A5,5,0,0,1,144,133Z"/><path class="cls-1" d="M164,133a5,5,0,1,1-5-5A5,5,0,0,1,164,133Z"/><path class="cls-1" d="M184,133a5,5,0,1,1-5-5A5,5,0,0,1,184,133Z"/></g></mask><mask id="mask-9" x="22" y="2" width="162" height="150" maskUnits="userSpaceOnUse"><g id="path-1-inside-1-9" data-name="path-1-inside-1"><path class="cls-1" d="M34,7a5,5,0,1,1-5-5A5,5,0,0,1,34,7Z"/><path class="cls-1" d="M54,7a5,5,0,1,1-5-5A5,5,0,0,1,54,7Z"/><path class="cls-1" d="M74,7a5,5,0,1,1-5-5A5,5,0,0,1,74,7Z"/><path class="cls-1" d="M94,7a5,5,0,1,1-5-5A5,5,0,0,1,94,7Z"/><path class="cls-1" d="M114,7a5,5,0,1,1-5-5A5,5,0,0,1,114,7Z"/><path class="cls-1" d="M134,7a5,5,0,1,1-5-5A5,5,0,0,1,134,7Z"/><path class="cls-1" d="M154,7a5,5,0,1,1-5-5A5,5,0,0,1,154,7Z"/><path class="cls-1" d="M174,7a5,5,0,1,1-5-5A5,5,0,0,1,174,7Z"/><path class="cls-1" d="M34,35a5,5,0,1,1-5-5A5,5,0,0,1,34,35Z"/><path class="cls-1" d="M54,35a5,5,0,1,1-5-5A5,5,0,0,1,54,35Z"/><path class="cls-1" d="M74,35a5,5,0,1,1-5-5A5,5,0,0,1,74,35Z"/><path class="cls-1" d="M94,35a5,5,0,1,1-5-5A5,5,0,0,1,94,35Z"/><path class="cls-1" d="M114,35a5,5,0,1,1-5-5A5,5,0,0,1,114,35Z"/><path class="cls-1" d="M134,35a5,5,0,1,1-5-5A5,5,0,0,1,134,35Z"/><path class="cls-1" d="M154,35a5,5,0,1,1-5-5A5,5,0,0,1,154,35Z"/><path class="cls-1" d="M174,35a5,5,0,1,1-5-5A5,5,0,0,1,174,35Z"/><path class="cls-1" d="M34,63a5,5,0,1,1-5-5A5,5,0,0,1,34,63Z"/><path class="cls-1" d="M54,63a5,5,0,1,1-5-5A5,5,0,0,1,54,63Z"/><path class="cls-1" d="M74,63a5,5,0,1,1-5-5A5,5,0,0,1,74,63Z"/><path class="cls-1" d="M94,63a5,5,0,1,1-5-5A5,5,0,0,1,94,63Z"/><path class="cls-1" d="M114,63a5,5,0,1,1-5-5A5,5,0,0,1,114,63Z"/><path class="cls-1" d="M134,63a5,5,0,1,1-5-5A5,5,0,0,1,134,63Z"/><path class="cls-1" d="M154,63a5,5,0,1,1-5-5A5,5,0,0,1,154,63Z"/><path class="cls-1" d="M174,63a5,5,0,1,1-5-5A5,5,0,0,1,174,63Z"/><path class="cls-1" d="M34,91a5,5,0,1,1-5-5A5,5,0,0,1,34,91Z"/><path class="cls-1" d="M54,91a5,5,0,1,1-5-5A5,5,0,0,1,54,91Z"/><path class="cls-1" d="M74,91a5,5,0,1,1-5-5A5,5,0,0,1,74,91Z"/><path class="cls-1" d="M94,91a5,5,0,1,1-5-5A5,5,0,0,1,94,91Z"/><path class="cls-1" d="M114,91a5,5,0,1,1-5-5A5,5,0,0,1,114,91Z"/><path class="cls-1" d="M134,91a5,5,0,1,1-5-5A5,5,0,0,1,134,91Z"/><path class="cls-1" d="M154,91a5,5,0,1,1-5-5A5,5,0,0,1,154,91Z"/><path class="cls-1" d="M174,91a5,5,0,1,1-5-5A5,5,0,0,1,174,91Z"/><path class="cls-1" d="M34,119a5,5,0,1,1-5-5A5,5,0,0,1,34,119Z"/><path class="cls-1" d="M54,119a5,5,0,1,1-5-5A5,5,0,0,1,54,119Z"/><path class="cls-1" d="M74,119a5,5,0,1,1-5-5A5,5,0,0,1,74,119Z"/><path class="cls-1" d="M94,119a5,5,0,1,1-5-5A5,5,0,0,1,94,119Z"/><path class="cls-1" d="M114,119a5,5,0,1,1-5-5A5,5,0,0,1,114,119Z"/><path class="cls-1" d="M134,119a5,5,0,1,1-5-5A5,5,0,0,1,134,119Z"/><path class="cls-1" d="M154,119a5,5,0,1,1-5-5A5,5,0,0,1,154,119Z"/><path class="cls-1" d="M174,119a5,5,0,1,1-5-5A5,5,0,0,1,174,119Z"/><path class="cls-1" d="M34,147a5,5,0,1,1-5-5A5,5,0,0,1,34,147Z"/><path class="cls-1" d="M54,147a5,5,0,1,1-5-5A5,5,0,0,1,54,147Z"/><path class="cls-1" d="M74,147a5,5,0,1,1-5-5A5,5,0,0,1,74,147Z"/><path class="cls-1" d="M94,147a5,5,0,1,1-5-5A5,5,0,0,1,94,147Z"/><path class="cls-1" d="M114,147a5,5,0,1,1-5-5A5,5,0,0,1,114,147Z"/><path class="cls-1" d="M134,147a5,5,0,1,1-5-5A5,5,0,0,1,134,147Z"/><path class="cls-1" d="M154,147a5,5,0,1,1-5-5A5,5,0,0,1,154,147Z"/><path class="cls-1" d="M174,147a5,5,0,1,1-5-5A5,5,0,0,1,174,147Z"/><path class="cls-1" d="M44,21a5,5,0,1,1-5-5A5,5,0,0,1,44,21Z"/><path class="cls-1" d="M64,21a5,5,0,1,1-5-5A5,5,0,0,1,64,21Z"/><path class="cls-1" d="M84,21a5,5,0,1,1-5-5A5,5,0,0,1,84,21Z"/><path class="cls-1" d="M104,21a5,5,0,1,1-5-5A5,5,0,0,1,104,21Z"/><path class="cls-1" d="M124,21a5,5,0,1,1-5-5A5,5,0,0,1,124,21Z"/><path class="cls-1" d="M144,21a5,5,0,1,1-5-5A5,5,0,0,1,144,21Z"/><path class="cls-1" d="M164,21a5,5,0,1,1-5-5A5,5,0,0,1,164,21Z"/><path class="cls-1" d="M184,21a5,5,0,1,1-5-5A5,5,0,0,1,184,21Z"/><path class="cls-1" d="M44,49a5,5,0,1,1-5-5A5,5,0,0,1,44,49Z"/><path class="cls-1" d="M64,49a5,5,0,1,1-5-5A5,5,0,0,1,64,49Z"/><path class="cls-1" d="M84,49a5,5,0,1,1-5-5A5,5,0,0,1,84,49Z"/><path class="cls-1" d="M104,49a5,5,0,1,1-5-5A5,5,0,0,1,104,49Z"/><path class="cls-1" d="M124,49a5,5,0,1,1-5-5A5,5,0,0,1,124,49Z"/><path class="cls-1" d="M144,49a5,5,0,1,1-5-5A5,5,0,0,1,144,49Z"/><path class="cls-1" d="M164,49a5,5,0,1,1-5-5A5,5,0,0,1,164,49Z"/><path class="cls-1" d="M184,49a5,5,0,1,1-5-5A5,5,0,0,1,184,49Z"/><path class="cls-1" d="M44,77a5,5,0,1,1-5-5A5,5,0,0,1,44,77Z"/><path class="cls-1" d="M64,77a5,5,0,1,1-5-5A5,5,0,0,1,64,77Z"/><path class="cls-1" d="M84,77a5,5,0,1,1-5-5A5,5,0,0,1,84,77Z"/><path class="cls-1" d="M104,77a5,5,0,1,1-5-5A5,5,0,0,1,104,77Z"/><path class="cls-1" d="M124,77a5,5,0,1,1-5-5A5,5,0,0,1,124,77Z"/><path class="cls-1" d="M144,77a5,5,0,1,1-5-5A5,5,0,0,1,144,77Z"/><path class="cls-1" d="M164,77a5,5,0,1,1-5-5A5,5,0,0,1,164,77Z"/><path class="cls-1" d="M184,77a5,5,0,1,1-5-5A5,5,0,0,1,184,77Z"/><path class="cls-1" d="M44,105a5,5,0,1,1-5-5A5,5,0,0,1,44,105Z"/><path class="cls-1" d="M64,105a5,5,0,1,1-5-5A5,5,0,0,1,64,105Z"/><path class="cls-1" d="M84,105a5,5,0,1,1-5-5A5,5,0,0,1,84,105Z"/><path class="cls-1" d="M104,105a5,5,0,1,1-5-5A5,5,0,0,1,104,105Z"/><path class="cls-1" d="M124,105a5,5,0,1,1-5-5A5,5,0,0,1,124,105Z"/><path class="cls-1" d="M144,105a5,5,0,1,1-5-5A5,5,0,0,1,144,105Z"/><path class="cls-1" d="M164,105a5,5,0,1,1-5-5A5,5,0,0,1,164,105Z"/><path class="cls-1" d="M184,105a5,5,0,1,1-5-5A5,5,0,0,1,184,105Z"/><path class="cls-1" d="M44,133a5,5,0,1,1-5-5A5,5,0,0,1,44,133Z"/><path class="cls-1" d="M64,133a5,5,0,1,1-5-5A5,5,0,0,1,64,133Z"/><path class="cls-1" d="M84,133a5,5,0,1,1-5-5A5,5,0,0,1,84,133Z"/><path class="cls-1" d="M104,133a5,5,0,1,1-5-5A5,5,0,0,1,104,133Z"/><path class="cls-1" d="M124,133a5,5,0,1,1-5-5A5,5,0,0,1,124,133Z"/><path class="cls-1" d="M144,133a5,5,0,1,1-5-5A5,5,0,0,1,144,133Z"/><path class="cls-1" d="M164,133a5,5,0,1,1-5-5A5,5,0,0,1,164,133Z"/><path class="cls-1" d="M184,133a5,5,0,1,1-5-5A5,5,0,0,1,184,133Z"/></g></mask><mask id="mask-10" x="24" y="2" width="160" height="150" maskUnits="userSpaceOnUse"><g id="path-1-inside-1-10" data-name="path-1-inside-1"><path class="cls-1" d="M34,7a5,5,0,1,1-5-5A5,5,0,0,1,34,7Z"/><path class="cls-1" d="M54,7a5,5,0,1,1-5-5A5,5,0,0,1,54,7Z"/><path class="cls-1" d="M74,7a5,5,0,1,1-5-5A5,5,0,0,1,74,7Z"/><path class="cls-1" d="M94,7a5,5,0,1,1-5-5A5,5,0,0,1,94,7Z"/><path class="cls-1" d="M114,7a5,5,0,1,1-5-5A5,5,0,0,1,114,7Z"/><path class="cls-1" d="M134,7a5,5,0,1,1-5-5A5,5,0,0,1,134,7Z"/><path class="cls-1" d="M154,7a5,5,0,1,1-5-5A5,5,0,0,1,154,7Z"/><path class="cls-1" d="M174,7a5,5,0,1,1-5-5A5,5,0,0,1,174,7Z"/><path class="cls-1" d="M34,35a5,5,0,1,1-5-5A5,5,0,0,1,34,35Z"/><path class="cls-1" d="M54,35a5,5,0,1,1-5-5A5,5,0,0,1,54,35Z"/><path class="cls-1" d="M74,35a5,5,0,1,1-5-5A5,5,0,0,1,74,35Z"/><path class="cls-1" d="M94,35a5,5,0,1,1-5-5A5,5,0,0,1,94,35Z"/><path class="cls-1" d="M114,35a5,5,0,1,1-5-5A5,5,0,0,1,114,35Z"/><path class="cls-1" d="M134,35a5,5,0,1,1-5-5A5,5,0,0,1,134,35Z"/><path class="cls-1" d="M154,35a5,5,0,1,1-5-5A5,5,0,0,1,154,35Z"/><path class="cls-1" d="M174,35a5,5,0,1,1-5-5A5,5,0,0,1,174,35Z"/><path class="cls-1" d="M34,63a5,5,0,1,1-5-5A5,5,0,0,1,34,63Z"/><path class="cls-1" d="M54,63a5,5,0,1,1-5-5A5,5,0,0,1,54,63Z"/><path class="cls-1" d="M74,63a5,5,0,1,1-5-5A5,5,0,0,1,74,63Z"/><path class="cls-1" d="M94,63a5,5,0,1,1-5-5A5,5,0,0,1,94,63Z"/><path class="cls-1" d="M114,63a5,5,0,1,1-5-5A5,5,0,0,1,114,63Z"/><path class="cls-1" d="M134,63a5,5,0,1,1-5-5A5,5,0,0,1,134,63Z"/><path class="cls-1" d="M154,63a5,5,0,1,1-5-5A5,5,0,0,1,154,63Z"/><path class="cls-1" d="M174,63a5,5,0,1,1-5-5A5,5,0,0,1,174,63Z"/><path class="cls-1" d="M34,91a5,5,0,1,1-5-5A5,5,0,0,1,34,91Z"/><path class="cls-1" d="M54,91a5,5,0,1,1-5-5A5,5,0,0,1,54,91Z"/><path class="cls-1" d="M74,91a5,5,0,1,1-5-5A5,5,0,0,1,74,91Z"/><path class="cls-1" d="M94,91a5,5,0,1,1-5-5A5,5,0,0,1,94,91Z"/><path class="cls-1" d="M114,91a5,5,0,1,1-5-5A5,5,0,0,1,114,91Z"/><path class="cls-1" d="M134,91a5,5,0,1,1-5-5A5,5,0,0,1,134,91Z"/><path class="cls-1" d="M154,91a5,5,0,1,1-5-5A5,5,0,0,1,154,91Z"/><path class="cls-1" d="M174,91a5,5,0,1,1-5-5A5,5,0,0,1,174,91Z"/><path class="cls-1" d="M34,119a5,5,0,1,1-5-5A5,5,0,0,1,34,119Z"/><path class="cls-1" d="M54,119a5,5,0,1,1-5-5A5,5,0,0,1,54,119Z"/><path class="cls-1" d="M74,119a5,5,0,1,1-5-5A5,5,0,0,1,74,119Z"/><path class="cls-1" d="M94,119a5,5,0,1,1-5-5A5,5,0,0,1,94,119Z"/><path class="cls-1" d="M114,119a5,5,0,1,1-5-5A5,5,0,0,1,114,119Z"/><path class="cls-1" d="M134,119a5,5,0,1,1-5-5A5,5,0,0,1,134,119Z"/><path class="cls-1" d="M154,119a5,5,0,1,1-5-5A5,5,0,0,1,154,119Z"/><path class="cls-1" d="M174,119a5,5,0,1,1-5-5A5,5,0,0,1,174,119Z"/><path class="cls-1" d="M34,147a5,5,0,1,1-5-5A5,5,0,0,1,34,147Z"/><path class="cls-1" d="M54,147a5,5,0,1,1-5-5A5,5,0,0,1,54,147Z"/><path class="cls-1" d="M74,147a5,5,0,1,1-5-5A5,5,0,0,1,74,147Z"/><path class="cls-1" d="M94,147a5,5,0,1,1-5-5A5,5,0,0,1,94,147Z"/><path class="cls-1" d="M114,147a5,5,0,1,1-5-5A5,5,0,0,1,114,147Z"/><path class="cls-1" d="M134,147a5,5,0,1,1-5-5A5,5,0,0,1,134,147Z"/><path class="cls-1" d="M154,147a5,5,0,1,1-5-5A5,5,0,0,1,154,147Z"/><path class="cls-1" d="M174,147a5,5,0,1,1-5-5A5,5,0,0,1,174,147Z"/><path class="cls-1" d="M44,21a5,5,0,1,1-5-5A5,5,0,0,1,44,21Z"/><path class="cls-1" d="M64,21a5,5,0,1,1-5-5A5,5,0,0,1,64,21Z"/><path class="cls-1" d="M84,21a5,5,0,1,1-5-5A5,5,0,0,1,84,21Z"/><path class="cls-1" d="M104,21a5,5,0,1,1-5-5A5,5,0,0,1,104,21Z"/><path class="cls-1" d="M124,21a5,5,0,1,1-5-5A5,5,0,0,1,124,21Z"/><path class="cls-1" d="M144,21a5,5,0,1,1-5-5A5,5,0,0,1,144,21Z"/><path class="cls-1" d="M164,21a5,5,0,1,1-5-5A5,5,0,0,1,164,21Z"/><path class="cls-1" d="M184,21a5,5,0,1,1-5-5A5,5,0,0,1,184,21Z"/><path class="cls-1" d="M44,49a5,5,0,1,1-5-5A5,5,0,0,1,44,49Z"/><path class="cls-1" d="M64,49a5,5,0,1,1-5-5A5,5,0,0,1,64,49Z"/><path class="cls-1" d="M84,49a5,5,0,1,1-5-5A5,5,0,0,1,84,49Z"/><path class="cls-1" d="M104,49a5,5,0,1,1-5-5A5,5,0,0,1,104,49Z"/><path class="cls-1" d="M124,49a5,5,0,1,1-5-5A5,5,0,0,1,124,49Z"/><path class="cls-1" d="M144,49a5,5,0,1,1-5-5A5,5,0,0,1,144,49Z"/><path class="cls-1" d="M164,49a5,5,0,1,1-5-5A5,5,0,0,1,164,49Z"/><path class="cls-1" d="M184,49a5,5,0,1,1-5-5A5,5,0,0,1,184,49Z"/><path class="cls-1" d="M44,77a5,5,0,1,1-5-5A5,5,0,0,1,44,77Z"/><path class="cls-1" d="M64,77a5,5,0,1,1-5-5A5,5,0,0,1,64,77Z"/><path class="cls-1" d="M84,77a5,5,0,1,1-5-5A5,5,0,0,1,84,77Z"/><path class="cls-1" d="M104,77a5,5,0,1,1-5-5A5,5,0,0,1,104,77Z"/><path class="cls-1" d="M124,77a5,5,0,1,1-5-5A5,5,0,0,1,124,77Z"/><path class="cls-1" d="M144,77a5,5,0,1,1-5-5A5,5,0,0,1,144,77Z"/><path class="cls-1" d="M164,77a5,5,0,1,1-5-5A5,5,0,0,1,164,77Z"/><path class="cls-1" d="M184,77a5,5,0,1,1-5-5A5,5,0,0,1,184,77Z"/><path class="cls-1" d="M44,105a5,5,0,1,1-5-5A5,5,0,0,1,44,105Z"/><path class="cls-1" d="M64,105a5,5,0,1,1-5-5A5,5,0,0,1,64,105Z"/><path class="cls-1" d="M84,105a5,5,0,1,1-5-5A5,5,0,0,1,84,105Z"/><path class="cls-1" d="M104,105a5,5,0,1,1-5-5A5,5,0,0,1,104,105Z"/><path class="cls-1" d="M124,105a5,5,0,1,1-5-5A5,5,0,0,1,124,105Z"/><path class="cls-1" d="M144,105a5,5,0,1,1-5-5A5,5,0,0,1,144,105Z"/><path class="cls-1" d="M164,105a5,5,0,1,1-5-5A5,5,0,0,1,164,105Z"/><path class="cls-1" d="M184,105a5,5,0,1,1-5-5A5,5,0,0,1,184,105Z"/><path class="cls-1" d="M44,133a5,5,0,1,1-5-5A5,5,0,0,1,44,133Z"/><path class="cls-1" d="M64,133a5,5,0,1,1-5-5A5,5,0,0,1,64,133Z"/><path class="cls-1" d="M84,133a5,5,0,1,1-5-5A5,5,0,0,1,84,133Z"/><path class="cls-1" d="M104,133a5,5,0,1,1-5-5A5,5,0,0,1,104,133Z"/><path class="cls-1" d="M124,133a5,5,0,1,1-5-5A5,5,0,0,1,124,133Z"/><path class="cls-1" d="M144,133a5,5,0,1,1-5-5A5,5,0,0,1,144,133Z"/><path class="cls-1" d="M164,133a5,5,0,1,1-5-5A5,5,0,0,1,164,133Z"/><path class="cls-1" d="M184,133a5,5,0,1,1-5-5A5,5,0,0,1,184,133Z"/></g></mask><mask id="mask-41" x="22" y="2" width="162" height="152" maskUnits="userSpaceOnUse"><g id="path-1-inside-1-41" data-name="path-1-inside-1"><path class="cls-1" d="M34,7a5,5,0,1,1-5-5A5,5,0,0,1,34,7Z"/><path class="cls-1" d="M54,7a5,5,0,1,1-5-5A5,5,0,0,1,54,7Z"/><path class="cls-1" d="M74,7a5,5,0,1,1-5-5A5,5,0,0,1,74,7Z"/><path class="cls-1" d="M94,7a5,5,0,1,1-5-5A5,5,0,0,1,94,7Z"/><path class="cls-1" d="M114,7a5,5,0,1,1-5-5A5,5,0,0,1,114,7Z"/><path class="cls-1" d="M134,7a5,5,0,1,1-5-5A5,5,0,0,1,134,7Z"/><path class="cls-1" d="M154,7a5,5,0,1,1-5-5A5,5,0,0,1,154,7Z"/><path class="cls-1" d="M174,7a5,5,0,1,1-5-5A5,5,0,0,1,174,7Z"/><path class="cls-1" d="M34,35a5,5,0,1,1-5-5A5,5,0,0,1,34,35Z"/><path class="cls-1" d="M54,35a5,5,0,1,1-5-5A5,5,0,0,1,54,35Z"/><path class="cls-1" d="M74,35a5,5,0,1,1-5-5A5,5,0,0,1,74,35Z"/><path class="cls-1" d="M94,35a5,5,0,1,1-5-5A5,5,0,0,1,94,35Z"/><path class="cls-1" d="M114,35a5,5,0,1,1-5-5A5,5,0,0,1,114,35Z"/><path class="cls-1" d="M134,35a5,5,0,1,1-5-5A5,5,0,0,1,134,35Z"/><path class="cls-1" d="M154,35a5,5,0,1,1-5-5A5,5,0,0,1,154,35Z"/><path class="cls-1" d="M174,35a5,5,0,1,1-5-5A5,5,0,0,1,174,35Z"/><path class="cls-1" d="M34,63a5,5,0,1,1-5-5A5,5,0,0,1,34,63Z"/><path class="cls-1" d="M54,63a5,5,0,1,1-5-5A5,5,0,0,1,54,63Z"/><path class="cls-1" d="M74,63a5,5,0,1,1-5-5A5,5,0,0,1,74,63Z"/><path class="cls-1" d="M94,63a5,5,0,1,1-5-5A5,5,0,0,1,94,63Z"/><path class="cls-1" d="M114,63a5,5,0,1,1-5-5A5,5,0,0,1,114,63Z"/><path class="cls-1" d="M134,63a5,5,0,1,1-5-5A5,5,0,0,1,134,63Z"/><path class="cls-1" d="M154,63a5,5,0,1,1-5-5A5,5,0,0,1,154,63Z"/><path class="cls-1" d="M174,63a5,5,0,1,1-5-5A5,5,0,0,1,174,63Z"/><path class="cls-1" d="M34,91a5,5,0,1,1-5-5A5,5,0,0,1,34,91Z"/><path class="cls-1" d="M54,91a5,5,0,1,1-5-5A5,5,0,0,1,54,91Z"/><path class="cls-1" d="M74,91a5,5,0,1,1-5-5A5,5,0,0,1,74,91Z"/><path class="cls-1" d="M94,91a5,5,0,1,1-5-5A5,5,0,0,1,94,91Z"/><path class="cls-1" d="M114,91a5,5,0,1,1-5-5A5,5,0,0,1,114,91Z"/><path class="cls-1" d="M134,91a5,5,0,1,1-5-5A5,5,0,0,1,134,91Z"/><path class="cls-1" d="M154,91a5,5,0,1,1-5-5A5,5,0,0,1,154,91Z"/><path class="cls-1" d="M174,91a5,5,0,1,1-5-5A5,5,0,0,1,174,91Z"/><path class="cls-1" d="M34,119a5,5,0,1,1-5-5A5,5,0,0,1,34,119Z"/><path class="cls-1" d="M54,119a5,5,0,1,1-5-5A5,5,0,0,1,54,119Z"/><path class="cls-1" d="M74,119a5,5,0,1,1-5-5A5,5,0,0,1,74,119Z"/><path class="cls-1" d="M94,119a5,5,0,1,1-5-5A5,5,0,0,1,94,119Z"/><path class="cls-1" d="M114,119a5,5,0,1,1-5-5A5,5,0,0,1,114,119Z"/><path class="cls-1" d="M134,119a5,5,0,1,1-5-5A5,5,0,0,1,134,119Z"/><path class="cls-1" d="M154,119a5,5,0,1,1-5-5A5,5,0,0,1,154,119Z"/><path class="cls-1" d="M174,119a5,5,0,1,1-5-5A5,5,0,0,1,174,119Z"/><path class="cls-1" d="M34,147a5,5,0,1,1-5-5A5,5,0,0,1,34,147Z"/><path class="cls-1" d="M54,147a5,5,0,1,1-5-5A5,5,0,0,1,54,147Z"/><path class="cls-1" d="M74,147a5,5,0,1,1-5-5A5,5,0,0,1,74,147Z"/><path class="cls-1" d="M94,147a5,5,0,1,1-5-5A5,5,0,0,1,94,147Z"/><path class="cls-1" d="M114,147a5,5,0,1,1-5-5A5,5,0,0,1,114,147Z"/><path class="cls-1" d="M134,147a5,5,0,1,1-5-5A5,5,0,0,1,134,147Z"/><path class="cls-1" d="M154,147a5,5,0,1,1-5-5A5,5,0,0,1,154,147Z"/><path class="cls-1" d="M174,147a5,5,0,1,1-5-5A5,5,0,0,1,174,147Z"/><path class="cls-1" d="M44,21a5,5,0,1,1-5-5A5,5,0,0,1,44,21Z"/><path class="cls-1" d="M64,21a5,5,0,1,1-5-5A5,5,0,0,1,64,21Z"/><path class="cls-1" d="M84,21a5,5,0,1,1-5-5A5,5,0,0,1,84,21Z"/><path class="cls-1" d="M104,21a5,5,0,1,1-5-5A5,5,0,0,1,104,21Z"/><path class="cls-1" d="M124,21a5,5,0,1,1-5-5A5,5,0,0,1,124,21Z"/><path class="cls-1" d="M144,21a5,5,0,1,1-5-5A5,5,0,0,1,144,21Z"/><path class="cls-1" d="M164,21a5,5,0,1,1-5-5A5,5,0,0,1,164,21Z"/><path class="cls-1" d="M184,21a5,5,0,1,1-5-5A5,5,0,0,1,184,21Z"/><path class="cls-1" d="M44,49a5,5,0,1,1-5-5A5,5,0,0,1,44,49Z"/><path class="cls-1" d="M64,49a5,5,0,1,1-5-5A5,5,0,0,1,64,49Z"/><path class="cls-1" d="M84,49a5,5,0,1,1-5-5A5,5,0,0,1,84,49Z"/><path class="cls-1" d="M104,49a5,5,0,1,1-5-5A5,5,0,0,1,104,49Z"/><path class="cls-1" d="M124,49a5,5,0,1,1-5-5A5,5,0,0,1,124,49Z"/><path class="cls-1" d="M144,49a5,5,0,1,1-5-5A5,5,0,0,1,144,49Z"/><path class="cls-1" d="M164,49a5,5,0,1,1-5-5A5,5,0,0,1,164,49Z"/><path class="cls-1" d="M184,49a5,5,0,1,1-5-5A5,5,0,0,1,184,49Z"/><path class="cls-1" d="M44,77a5,5,0,1,1-5-5A5,5,0,0,1,44,77Z"/><path class="cls-1" d="M64,77a5,5,0,1,1-5-5A5,5,0,0,1,64,77Z"/><path class="cls-1" d="M84,77a5,5,0,1,1-5-5A5,5,0,0,1,84,77Z"/><path class="cls-1" d="M104,77a5,5,0,1,1-5-5A5,5,0,0,1,104,77Z"/><path class="cls-1" d="M124,77a5,5,0,1,1-5-5A5,5,0,0,1,124,77Z"/><path class="cls-1" d="M144,77a5,5,0,1,1-5-5A5,5,0,0,1,144,77Z"/><path class="cls-1" d="M164,77a5,5,0,1,1-5-5A5,5,0,0,1,164,77Z"/><path class="cls-1" d="M184,77a5,5,0,1,1-5-5A5,5,0,0,1,184,77Z"/><path class="cls-1" d="M44,105a5,5,0,1,1-5-5A5,5,0,0,1,44,105Z"/><path class="cls-1" d="M64,105a5,5,0,1,1-5-5A5,5,0,0,1,64,105Z"/><path class="cls-1" d="M84,105a5,5,0,1,1-5-5A5,5,0,0,1,84,105Z"/><path class="cls-1" d="M104,105a5,5,0,1,1-5-5A5,5,0,0,1,104,105Z"/><path class="cls-1" d="M124,105a5,5,0,1,1-5-5A5,5,0,0,1,124,105Z"/><path class="cls-1" d="M144,105a5,5,0,1,1-5-5A5,5,0,0,1,144,105Z"/><path class="cls-1" d="M164,105a5,5,0,1,1-5-5A5,5,0,0,1,164,105Z"/><path class="cls-1" d="M184,105a5,5,0,1,1-5-5A5,5,0,0,1,184,105Z"/><path class="cls-1" d="M44,133a5,5,0,1,1-5-5A5,5,0,0,1,44,133Z"/><path class="cls-1" d="M64,133a5,5,0,1,1-5-5A5,5,0,0,1,64,133Z"/><path class="cls-1" d="M84,133a5,5,0,1,1-5-5A5,5,0,0,1,84,133Z"/><path class="cls-1" d="M104,133a5,5,0,1,1-5-5A5,5,0,0,1,104,133Z"/><path class="cls-1" d="M124,133a5,5,0,1,1-5-5A5,5,0,0,1,124,133Z"/><path class="cls-1" d="M144,133a5,5,0,1,1-5-5A5,5,0,0,1,144,133Z"/><path class="cls-1" d="M164,133a5,5,0,1,1-5-5A5,5,0,0,1,164,133Z"/><path class="cls-1" d="M184,133a5,5,0,1,1-5-5A5,5,0,0,1,184,133Z"/></g></mask><mask id="mask-42" x="24" y="2" width="160" height="152" maskUnits="userSpaceOnUse"><g id="path-1-inside-1-42" data-name="path-1-inside-1"><path class="cls-1" d="M34,7a5,5,0,1,1-5-5A5,5,0,0,1,34,7Z"/><path class="cls-1" d="M54,7a5,5,0,1,1-5-5A5,5,0,0,1,54,7Z"/><path class="cls-1" d="M74,7a5,5,0,1,1-5-5A5,5,0,0,1,74,7Z"/><path class="cls-1" d="M94,7a5,5,0,1,1-5-5A5,5,0,0,1,94,7Z"/><path class="cls-1" d="M114,7a5,5,0,1,1-5-5A5,5,0,0,1,114,7Z"/><path class="cls-1" d="M134,7a5,5,0,1,1-5-5A5,5,0,0,1,134,7Z"/><path class="cls-1" d="M154,7a5,5,0,1,1-5-5A5,5,0,0,1,154,7Z"/><path class="cls-1" d="M174,7a5,5,0,1,1-5-5A5,5,0,0,1,174,7Z"/><path class="cls-1" d="M34,35a5,5,0,1,1-5-5A5,5,0,0,1,34,35Z"/><path class="cls-1" d="M54,35a5,5,0,1,1-5-5A5,5,0,0,1,54,35Z"/><path class="cls-1" d="M74,35a5,5,0,1,1-5-5A5,5,0,0,1,74,35Z"/><path class="cls-1" d="M94,35a5,5,0,1,1-5-5A5,5,0,0,1,94,35Z"/><path class="cls-1" d="M114,35a5,5,0,1,1-5-5A5,5,0,0,1,114,35Z"/><path class="cls-1" d="M134,35a5,5,0,1,1-5-5A5,5,0,0,1,134,35Z"/><path class="cls-1" d="M154,35a5,5,0,1,1-5-5A5,5,0,0,1,154,35Z"/><path class="cls-1" d="M174,35a5,5,0,1,1-5-5A5,5,0,0,1,174,35Z"/><path class="cls-1" d="M34,63a5,5,0,1,1-5-5A5,5,0,0,1,34,63Z"/><path class="cls-1" d="M54,63a5,5,0,1,1-5-5A5,5,0,0,1,54,63Z"/><path class="cls-1" d="M74,63a5,5,0,1,1-5-5A5,5,0,0,1,74,63Z"/><path class="cls-1" d="M94,63a5,5,0,1,1-5-5A5,5,0,0,1,94,63Z"/><path class="cls-1" d="M114,63a5,5,0,1,1-5-5A5,5,0,0,1,114,63Z"/><path class="cls-1" d="M134,63a5,5,0,1,1-5-5A5,5,0,0,1,134,63Z"/><path class="cls-1" d="M154,63a5,5,0,1,1-5-5A5,5,0,0,1,154,63Z"/><path class="cls-1" d="M174,63a5,5,0,1,1-5-5A5,5,0,0,1,174,63Z"/><path class="cls-1" d="M34,91a5,5,0,1,1-5-5A5,5,0,0,1,34,91Z"/><path class="cls-1" d="M54,91a5,5,0,1,1-5-5A5,5,0,0,1,54,91Z"/><path class="cls-1" d="M74,91a5,5,0,1,1-5-5A5,5,0,0,1,74,91Z"/><path class="cls-1" d="M94,91a5,5,0,1,1-5-5A5,5,0,0,1,94,91Z"/><path class="cls-1" d="M114,91a5,5,0,1,1-5-5A5,5,0,0,1,114,91Z"/><path class="cls-1" d="M134,91a5,5,0,1,1-5-5A5,5,0,0,1,134,91Z"/><path class="cls-1" d="M154,91a5,5,0,1,1-5-5A5,5,0,0,1,154,91Z"/><path class="cls-1" d="M174,91a5,5,0,1,1-5-5A5,5,0,0,1,174,91Z"/><path class="cls-1" d="M34,119a5,5,0,1,1-5-5A5,5,0,0,1,34,119Z"/><path class="cls-1" d="M54,119a5,5,0,1,1-5-5A5,5,0,0,1,54,119Z"/><path class="cls-1" d="M74,119a5,5,0,1,1-5-5A5,5,0,0,1,74,119Z"/><path class="cls-1" d="M94,119a5,5,0,1,1-5-5A5,5,0,0,1,94,119Z"/><path class="cls-1" d="M114,119a5,5,0,1,1-5-5A5,5,0,0,1,114,119Z"/><path class="cls-1" d="M134,119a5,5,0,1,1-5-5A5,5,0,0,1,134,119Z"/><path class="cls-1" d="M154,119a5,5,0,1,1-5-5A5,5,0,0,1,154,119Z"/><path class="cls-1" d="M174,119a5,5,0,1,1-5-5A5,5,0,0,1,174,119Z"/><path class="cls-1" d="M34,147a5,5,0,1,1-5-5A5,5,0,0,1,34,147Z"/><path class="cls-1" d="M54,147a5,5,0,1,1-5-5A5,5,0,0,1,54,147Z"/><path class="cls-1" d="M74,147a5,5,0,1,1-5-5A5,5,0,0,1,74,147Z"/><path class="cls-1" d="M94,147a5,5,0,1,1-5-5A5,5,0,0,1,94,147Z"/><path class="cls-1" d="M114,147a5,5,0,1,1-5-5A5,5,0,0,1,114,147Z"/><path class="cls-1" d="M134,147a5,5,0,1,1-5-5A5,5,0,0,1,134,147Z"/><path class="cls-1" d="M154,147a5,5,0,1,1-5-5A5,5,0,0,1,154,147Z"/><path class="cls-1" d="M174,147a5,5,0,1,1-5-5A5,5,0,0,1,174,147Z"/><path class="cls-1" d="M44,21a5,5,0,1,1-5-5A5,5,0,0,1,44,21Z"/><path class="cls-1" d="M64,21a5,5,0,1,1-5-5A5,5,0,0,1,64,21Z"/><path class="cls-1" d="M84,21a5,5,0,1,1-5-5A5,5,0,0,1,84,21Z"/><path class="cls-1" d="M104,21a5,5,0,1,1-5-5A5,5,0,0,1,104,21Z"/><path class="cls-1" d="M124,21a5,5,0,1,1-5-5A5,5,0,0,1,124,21Z"/><path class="cls-1" d="M144,21a5,5,0,1,1-5-5A5,5,0,0,1,144,21Z"/><path class="cls-1" d="M164,21a5,5,0,1,1-5-5A5,5,0,0,1,164,21Z"/><path class="cls-1" d="M184,21a5,5,0,1,1-5-5A5,5,0,0,1,184,21Z"/><path class="cls-1" d="M44,49a5,5,0,1,1-5-5A5,5,0,0,1,44,49Z"/><path class="cls-1" d="M64,49a5,5,0,1,1-5-5A5,5,0,0,1,64,49Z"/><path class="cls-1" d="M84,49a5,5,0,1,1-5-5A5,5,0,0,1,84,49Z"/><path class="cls-1" d="M104,49a5,5,0,1,1-5-5A5,5,0,0,1,104,49Z"/><path class="cls-1" d="M124,49a5,5,0,1,1-5-5A5,5,0,0,1,124,49Z"/><path class="cls-1" d="M144,49a5,5,0,1,1-5-5A5,5,0,0,1,144,49Z"/><path class="cls-1" d="M164,49a5,5,0,1,1-5-5A5,5,0,0,1,164,49Z"/><path class="cls-1" d="M184,49a5,5,0,1,1-5-5A5,5,0,0,1,184,49Z"/><path class="cls-1" d="M44,77a5,5,0,1,1-5-5A5,5,0,0,1,44,77Z"/><path class="cls-1" d="M64,77a5,5,0,1,1-5-5A5,5,0,0,1,64,77Z"/><path class="cls-1" d="M84,77a5,5,0,1,1-5-5A5,5,0,0,1,84,77Z"/><path class="cls-1" d="M104,77a5,5,0,1,1-5-5A5,5,0,0,1,104,77Z"/><path class="cls-1" d="M124,77a5,5,0,1,1-5-5A5,5,0,0,1,124,77Z"/><path class="cls-1" d="M144,77a5,5,0,1,1-5-5A5,5,0,0,1,144,77Z"/><path class="cls-1" d="M164,77a5,5,0,1,1-5-5A5,5,0,0,1,164,77Z"/><path class="cls-1" d="M184,77a5,5,0,1,1-5-5A5,5,0,0,1,184,77Z"/><path class="cls-1" d="M44,105a5,5,0,1,1-5-5A5,5,0,0,1,44,105Z"/><path class="cls-1" d="M64,105a5,5,0,1,1-5-5A5,5,0,0,1,64,105Z"/><path class="cls-1" d="M84,105a5,5,0,1,1-5-5A5,5,0,0,1,84,105Z"/><path class="cls-1" d="M104,105a5,5,0,1,1-5-5A5,5,0,0,1,104,105Z"/><path class="cls-1" d="M124,105a5,5,0,1,1-5-5A5,5,0,0,1,124,105Z"/><path class="cls-1" d="M144,105a5,5,0,1,1-5-5A5,5,0,0,1,144,105Z"/><path class="cls-1" d="M164,105a5,5,0,1,1-5-5A5,5,0,0,1,164,105Z"/><path class="cls-1" d="M184,105a5,5,0,1,1-5-5A5,5,0,0,1,184,105Z"/><path class="cls-1" d="M44,133a5,5,0,1,1-5-5A5,5,0,0,1,44,133Z"/><path class="cls-1" d="M64,133a5,5,0,1,1-5-5A5,5,0,0,1,64,133Z"/><path class="cls-1" d="M84,133a5,5,0,1,1-5-5A5,5,0,0,1,84,133Z"/><path class="cls-1" d="M104,133a5,5,0,1,1-5-5A5,5,0,0,1,104,133Z"/><path class="cls-1" d="M124,133a5,5,0,1,1-5-5A5,5,0,0,1,124,133Z"/><path class="cls-1" d="M144,133a5,5,0,1,1-5-5A5,5,0,0,1,144,133Z"/><path class="cls-1" d="M164,133a5,5,0,1,1-5-5A5,5,0,0,1,164,133Z"/><path class="cls-1" d="M184,133a5,5,0,1,1-5-5A5,5,0,0,1,184,133Z"/></g></mask><mask id="mask-56" x="24" y="2" width="162" height="150" maskUnits="userSpaceOnUse"><g id="path-1-inside-1-56" data-name="path-1-inside-1"><path class="cls-1" d="M34,7a5,5,0,1,1-5-5A5,5,0,0,1,34,7Z"/><path class="cls-1" d="M54,7a5,5,0,1,1-5-5A5,5,0,0,1,54,7Z"/><path class="cls-1" d="M74,7a5,5,0,1,1-5-5A5,5,0,0,1,74,7Z"/><path class="cls-1" d="M94,7a5,5,0,1,1-5-5A5,5,0,0,1,94,7Z"/><path class="cls-1" d="M114,7a5,5,0,1,1-5-5A5,5,0,0,1,114,7Z"/><path class="cls-1" d="M134,7a5,5,0,1,1-5-5A5,5,0,0,1,134,7Z"/><path class="cls-1" d="M154,7a5,5,0,1,1-5-5A5,5,0,0,1,154,7Z"/><path class="cls-1" d="M174,7a5,5,0,1,1-5-5A5,5,0,0,1,174,7Z"/><path class="cls-1" d="M34,35a5,5,0,1,1-5-5A5,5,0,0,1,34,35Z"/><path class="cls-1" d="M54,35a5,5,0,1,1-5-5A5,5,0,0,1,54,35Z"/><path class="cls-1" d="M74,35a5,5,0,1,1-5-5A5,5,0,0,1,74,35Z"/><path class="cls-1" d="M94,35a5,5,0,1,1-5-5A5,5,0,0,1,94,35Z"/><path class="cls-1" d="M114,35a5,5,0,1,1-5-5A5,5,0,0,1,114,35Z"/><path class="cls-1" d="M134,35a5,5,0,1,1-5-5A5,5,0,0,1,134,35Z"/><path class="cls-1" d="M154,35a5,5,0,1,1-5-5A5,5,0,0,1,154,35Z"/><path class="cls-1" d="M174,35a5,5,0,1,1-5-5A5,5,0,0,1,174,35Z"/><path class="cls-1" d="M34,63a5,5,0,1,1-5-5A5,5,0,0,1,34,63Z"/><path class="cls-1" d="M54,63a5,5,0,1,1-5-5A5,5,0,0,1,54,63Z"/><path class="cls-1" d="M74,63a5,5,0,1,1-5-5A5,5,0,0,1,74,63Z"/><path class="cls-1" d="M94,63a5,5,0,1,1-5-5A5,5,0,0,1,94,63Z"/><path class="cls-1" d="M114,63a5,5,0,1,1-5-5A5,5,0,0,1,114,63Z"/><path class="cls-1" d="M134,63a5,5,0,1,1-5-5A5,5,0,0,1,134,63Z"/><path class="cls-1" d="M154,63a5,5,0,1,1-5-5A5,5,0,0,1,154,63Z"/><path class="cls-1" d="M174,63a5,5,0,1,1-5-5A5,5,0,0,1,174,63Z"/><path class="cls-1" d="M34,91a5,5,0,1,1-5-5A5,5,0,0,1,34,91Z"/><path class="cls-1" d="M54,91a5,5,0,1,1-5-5A5,5,0,0,1,54,91Z"/><path class="cls-1" d="M74,91a5,5,0,1,1-5-5A5,5,0,0,1,74,91Z"/><path class="cls-1" d="M94,91a5,5,0,1,1-5-5A5,5,0,0,1,94,91Z"/><path class="cls-1" d="M114,91a5,5,0,1,1-5-5A5,5,0,0,1,114,91Z"/><path class="cls-1" d="M134,91a5,5,0,1,1-5-5A5,5,0,0,1,134,91Z"/><path class="cls-1" d="M154,91a5,5,0,1,1-5-5A5,5,0,0,1,154,91Z"/><path class="cls-1" d="M174,91a5,5,0,1,1-5-5A5,5,0,0,1,174,91Z"/><path class="cls-1" d="M34,119a5,5,0,1,1-5-5A5,5,0,0,1,34,119Z"/><path class="cls-1" d="M54,119a5,5,0,1,1-5-5A5,5,0,0,1,54,119Z"/><path class="cls-1" d="M74,119a5,5,0,1,1-5-5A5,5,0,0,1,74,119Z"/><path class="cls-1" d="M94,119a5,5,0,1,1-5-5A5,5,0,0,1,94,119Z"/><path class="cls-1" d="M114,119a5,5,0,1,1-5-5A5,5,0,0,1,114,119Z"/><path class="cls-1" d="M134,119a5,5,0,1,1-5-5A5,5,0,0,1,134,119Z"/><path class="cls-1" d="M154,119a5,5,0,1,1-5-5A5,5,0,0,1,154,119Z"/><path class="cls-1" d="M174,119a5,5,0,1,1-5-5A5,5,0,0,1,174,119Z"/><path class="cls-1" d="M34,147a5,5,0,1,1-5-5A5,5,0,0,1,34,147Z"/><path class="cls-1" d="M54,147a5,5,0,1,1-5-5A5,5,0,0,1,54,147Z"/><path class="cls-1" d="M74,147a5,5,0,1,1-5-5A5,5,0,0,1,74,147Z"/><path class="cls-1" d="M94,147a5,5,0,1,1-5-5A5,5,0,0,1,94,147Z"/><path class="cls-1" d="M114,147a5,5,0,1,1-5-5A5,5,0,0,1,114,147Z"/><path class="cls-1" d="M134,147a5,5,0,1,1-5-5A5,5,0,0,1,134,147Z"/><path class="cls-1" d="M154,147a5,5,0,1,1-5-5A5,5,0,0,1,154,147Z"/><path class="cls-1" d="M174,147a5,5,0,1,1-5-5A5,5,0,0,1,174,147Z"/><path class="cls-1" d="M44,21a5,5,0,1,1-5-5A5,5,0,0,1,44,21Z"/><path class="cls-1" d="M64,21a5,5,0,1,1-5-5A5,5,0,0,1,64,21Z"/><path class="cls-1" d="M84,21a5,5,0,1,1-5-5A5,5,0,0,1,84,21Z"/><path class="cls-1" d="M104,21a5,5,0,1,1-5-5A5,5,0,0,1,104,21Z"/><path class="cls-1" d="M124,21a5,5,0,1,1-5-5A5,5,0,0,1,124,21Z"/><path class="cls-1" d="M144,21a5,5,0,1,1-5-5A5,5,0,0,1,144,21Z"/><path class="cls-1" d="M164,21a5,5,0,1,1-5-5A5,5,0,0,1,164,21Z"/><path class="cls-1" d="M184,21a5,5,0,1,1-5-5A5,5,0,0,1,184,21Z"/><path class="cls-1" d="M44,49a5,5,0,1,1-5-5A5,5,0,0,1,44,49Z"/><path class="cls-1" d="M64,49a5,5,0,1,1-5-5A5,5,0,0,1,64,49Z"/><path class="cls-1" d="M84,49a5,5,0,1,1-5-5A5,5,0,0,1,84,49Z"/><path class="cls-1" d="M104,49a5,5,0,1,1-5-5A5,5,0,0,1,104,49Z"/><path class="cls-1" d="M124,49a5,5,0,1,1-5-5A5,5,0,0,1,124,49Z"/><path class="cls-1" d="M144,49a5,5,0,1,1-5-5A5,5,0,0,1,144,49Z"/><path class="cls-1" d="M164,49a5,5,0,1,1-5-5A5,5,0,0,1,164,49Z"/><path class="cls-1" d="M184,49a5,5,0,1,1-5-5A5,5,0,0,1,184,49Z"/><path class="cls-1" d="M44,77a5,5,0,1,1-5-5A5,5,0,0,1,44,77Z"/><path class="cls-1" d="M64,77a5,5,0,1,1-5-5A5,5,0,0,1,64,77Z"/><path class="cls-1" d="M84,77a5,5,0,1,1-5-5A5,5,0,0,1,84,77Z"/><path class="cls-1" d="M104,77a5,5,0,1,1-5-5A5,5,0,0,1,104,77Z"/><path class="cls-1" d="M124,77a5,5,0,1,1-5-5A5,5,0,0,1,124,77Z"/><path class="cls-1" d="M144,77a5,5,0,1,1-5-5A5,5,0,0,1,144,77Z"/><path class="cls-1" d="M164,77a5,5,0,1,1-5-5A5,5,0,0,1,164,77Z"/><path class="cls-1" d="M184,77a5,5,0,1,1-5-5A5,5,0,0,1,184,77Z"/><path class="cls-1" d="M44,105a5,5,0,1,1-5-5A5,5,0,0,1,44,105Z"/><path class="cls-1" d="M64,105a5,5,0,1,1-5-5A5,5,0,0,1,64,105Z"/><path class="cls-1" d="M84,105a5,5,0,1,1-5-5A5,5,0,0,1,84,105Z"/><path class="cls-1" d="M104,105a5,5,0,1,1-5-5A5,5,0,0,1,104,105Z"/><path class="cls-1" d="M124,105a5,5,0,1,1-5-5A5,5,0,0,1,124,105Z"/><path class="cls-1" d="M144,105a5,5,0,1,1-5-5A5,5,0,0,1,144,105Z"/><path class="cls-1" d="M164,105a5,5,0,1,1-5-5A5,5,0,0,1,164,105Z"/><path class="cls-1" d="M184,105a5,5,0,1,1-5-5A5,5,0,0,1,184,105Z"/><path class="cls-1" d="M44,133a5,5,0,1,1-5-5A5,5,0,0,1,44,133Z"/><path class="cls-1" d="M64,133a5,5,0,1,1-5-5A5,5,0,0,1,64,133Z"/><path class="cls-1" d="M84,133a5,5,0,1,1-5-5A5,5,0,0,1,84,133Z"/><path class="cls-1" d="M104,133a5,5,0,1,1-5-5A5,5,0,0,1,104,133Z"/><path class="cls-1" d="M124,133a5,5,0,1,1-5-5A5,5,0,0,1,124,133Z"/><path class="cls-1" d="M144,133a5,5,0,1,1-5-5A5,5,0,0,1,144,133Z"/><path class="cls-1" d="M164,133a5,5,0,1,1-5-5A5,5,0,0,1,164,133Z"/><path class="cls-1" d="M184,133a5,5,0,1,1-5-5A5,5,0,0,1,184,133Z"/></g></mask><mask id="mask-89" x="522" y="157.93" width="104" height="102.07" maskUnits="userSpaceOnUse"><g id="path-54-inside-2"><path class="cls-1" d="M624,208a50,50,0,1,1-65.45-47.55l7.73,23.77A25,25,0,1,0,599,208Z"/></g></mask><mask id="mask-90" x="585.9" y="206" width="40.1" height="45.25" maskUnits="userSpaceOnUse"><g id="path-55-inside-3"><path class="cls-1" d="M624,208a50,50,0,0,1-20.61,40.45L588.7,228.23A25,25,0,0,0,599,208Z"/></g></mask></defs><title>produccion</title><g id="Capa_2" data-name="Capa 2"><g id="Capa_1-2" data-name="Capa 1"><path class="cls-1" d="M34,7a5,5,0,1,1-5-5A5,5,0,0,1,34,7Z"/><path class="cls-1" d="M54,7a5,5,0,1,1-5-5A5,5,0,0,1,54,7Z"/><path class="cls-1" d="M74,7a5,5,0,1,1-5-5A5,5,0,0,1,74,7Z"/><path class="cls-1" d="M94,7a5,5,0,1,1-5-5A5,5,0,0,1,94,7Z"/><path class="cls-1" d="M114,7a5,5,0,1,1-5-5A5,5,0,0,1,114,7Z"/><path class="cls-1" d="M134,7a5,5,0,1,1-5-5A5,5,0,0,1,134,7Z"/><path class="cls-1" d="M154,7a5,5,0,1,1-5-5A5,5,0,0,1,154,7Z"/><path class="cls-1" d="M174,7a5,5,0,1,1-5-5A5,5,0,0,1,174,7Z"/><path class="cls-1" d="M34,35a5,5,0,1,1-5-5A5,5,0,0,1,34,35Z"/><path class="cls-1" d="M54,35a5,5,0,1,1-5-5A5,5,0,0,1,54,35Z"/><path class="cls-1" d="M74,35a5,5,0,1,1-5-5A5,5,0,0,1,74,35Z"/><path class="cls-1" d="M94,35a5,5,0,1,1-5-5A5,5,0,0,1,94,35Z"/><path class="cls-1" d="M114,35a5,5,0,1,1-5-5A5,5,0,0,1,114,35Z"/><path class="cls-1" d="M134,35a5,5,0,1,1-5-5A5,5,0,0,1,134,35Z"/><path class="cls-1" d="M154,35a5,5,0,1,1-5-5A5,5,0,0,1,154,35Z"/><path class="cls-1" d="M174,35a5,5,0,1,1-5-5A5,5,0,0,1,174,35Z"/><path class="cls-1" d="M34,63a5,5,0,1,1-5-5A5,5,0,0,1,34,63Z"/><path class="cls-1" d="M54,63a5,5,0,1,1-5-5A5,5,0,0,1,54,63Z"/><path class="cls-1" d="M74,63a5,5,0,1,1-5-5A5,5,0,0,1,74,63Z"/><path class="cls-1" d="M94,63a5,5,0,1,1-5-5A5,5,0,0,1,94,63Z"/><path class="cls-1" d="M114,63a5,5,0,1,1-5-5A5,5,0,0,1,114,63Z"/><path class="cls-1" d="M134,63a5,5,0,1,1-5-5A5,5,0,0,1,134,63Z"/><path class="cls-1" d="M154,63a5,5,0,1,1-5-5A5,5,0,0,1,154,63Z"/><path class="cls-1" d="M174,63a5,5,0,1,1-5-5A5,5,0,0,1,174,63Z"/><path class="cls-1" d="M34,91a5,5,0,1,1-5-5A5,5,0,0,1,34,91Z"/><path class="cls-1" d="M54,91a5,5,0,1,1-5-5A5,5,0,0,1,54,91Z"/><path class="cls-1" d="M74,91a5,5,0,1,1-5-5A5,5,0,0,1,74,91Z"/><path class="cls-1" d="M94,91a5,5,0,1,1-5-5A5,5,0,0,1,94,91Z"/><path class="cls-1" d="M114,91a5,5,0,1,1-5-5A5,5,0,0,1,114,91Z"/><path class="cls-1" d="M134,91a5,5,0,1,1-5-5A5,5,0,0,1,134,91Z"/><path class="cls-1" d="M154,91a5,5,0,1,1-5-5A5,5,0,0,1,154,91Z"/><path class="cls-1" d="M174,91a5,5,0,1,1-5-5A5,5,0,0,1,174,91Z"/><path class="cls-1" d="M34,119a5,5,0,1,1-5-5A5,5,0,0,1,34,119Z"/><path class="cls-1" d="M54,119a5,5,0,1,1-5-5A5,5,0,0,1,54,119Z"/><path class="cls-1" d="M74,119a5,5,0,1,1-5-5A5,5,0,0,1,74,119Z"/><path class="cls-1" d="M94,119a5,5,0,1,1-5-5A5,5,0,0,1,94,119Z"/><path class="cls-1" d="M114,119a5,5,0,1,1-5-5A5,5,0,0,1,114,119Z"/><path class="cls-1" d="M134,119a5,5,0,1,1-5-5A5,5,0,0,1,134,119Z"/><path class="cls-1" d="M154,119a5,5,0,1,1-5-5A5,5,0,0,1,154,119Z"/><path class="cls-1" d="M174,119a5,5,0,1,1-5-5A5,5,0,0,1,174,119Z"/><path class="cls-1" d="M34,147a5,5,0,1,1-5-5A5,5,0,0,1,34,147Z"/><path class="cls-1" d="M54,147a5,5,0,1,1-5-5A5,5,0,0,1,54,147Z"/><path class="cls-1" d="M74,147a5,5,0,1,1-5-5A5,5,0,0,1,74,147Z"/><path class="cls-1" d="M94,147a5,5,0,1,1-5-5A5,5,0,0,1,94,147Z"/><path class="cls-1" d="M114,147a5,5,0,1,1-5-5A5,5,0,0,1,114,147Z"/><path class="cls-1" d="M134,147a5,5,0,1,1-5-5A5,5,0,0,1,134,147Z"/><path class="cls-1" d="M154,147a5,5,0,1,1-5-5A5,5,0,0,1,154,147Z"/><path class="cls-1" d="M174,147a5,5,0,1,1-5-5A5,5,0,0,1,174,147Z"/><path class="cls-1" d="M44,21a5,5,0,1,1-5-5A5,5,0,0,1,44,21Z"/><path class="cls-1" d="M64,21a5,5,0,1,1-5-5A5,5,0,0,1,64,21Z"/><path class="cls-1" d="M84,21a5,5,0,1,1-5-5A5,5,0,0,1,84,21Z"/><path class="cls-1" d="M104,21a5,5,0,1,1-5-5A5,5,0,0,1,104,21Z"/><path class="cls-1" d="M124,21a5,5,0,1,1-5-5A5,5,0,0,1,124,21Z"/><path class="cls-1" d="M144,21a5,5,0,1,1-5-5A5,5,0,0,1,144,21Z"/><path class="cls-1" d="M164,21a5,5,0,1,1-5-5A5,5,0,0,1,164,21Z"/><path class="cls-1" d="M184,21a5,5,0,1,1-5-5A5,5,0,0,1,184,21Z"/><path class="cls-1" d="M44,49a5,5,0,1,1-5-5A5,5,0,0,1,44,49Z"/><path class="cls-1" d="M64,49a5,5,0,1,1-5-5A5,5,0,0,1,64,49Z"/><path class="cls-1" d="M84,49a5,5,0,1,1-5-5A5,5,0,0,1,84,49Z"/><path class="cls-1" d="M104,49a5,5,0,1,1-5-5A5,5,0,0,1,104,49Z"/><path class="cls-1" d="M124,49a5,5,0,1,1-5-5A5,5,0,0,1,124,49Z"/><path class="cls-1" d="M144,49a5,5,0,1,1-5-5A5,5,0,0,1,144,49Z"/><path class="cls-1" d="M164,49a5,5,0,1,1-5-5A5,5,0,0,1,164,49Z"/><path class="cls-1" d="M184,49a5,5,0,1,1-5-5A5,5,0,0,1,184,49Z"/><path class="cls-1" d="M44,77a5,5,0,1,1-5-5A5,5,0,0,1,44,77Z"/><path class="cls-1" d="M64,77a5,5,0,1,1-5-5A5,5,0,0,1,64,77Z"/><path class="cls-1" d="M84,77a5,5,0,1,1-5-5A5,5,0,0,1,84,77Z"/><path class="cls-1" d="M104,77a5,5,0,1,1-5-5A5,5,0,0,1,104,77Z"/><path class="cls-1" d="M124,77a5,5,0,1,1-5-5A5,5,0,0,1,124,77Z"/><path class="cls-1" d="M144,77a5,5,0,1,1-5-5A5,5,0,0,1,144,77Z"/><path class="cls-1" d="M164,77a5,5,0,1,1-5-5A5,5,0,0,1,164,77Z"/><path class="cls-1" d="M184,77a5,5,0,1,1-5-5A5,5,0,0,1,184,77Z"/><path class="cls-1" d="M44,105a5,5,0,1,1-5-5A5,5,0,0,1,44,105Z"/><path class="cls-1" d="M64,105a5,5,0,1,1-5-5A5,5,0,0,1,64,105Z"/><path class="cls-1" d="M84,105a5,5,0,1,1-5-5A5,5,0,0,1,84,105Z"/><path class="cls-1" d="M104,105a5,5,0,1,1-5-5A5,5,0,0,1,104,105Z"/><path class="cls-1" d="M124,105a5,5,0,1,1-5-5A5,5,0,0,1,124,105Z"/><path class="cls-1" d="M144,105a5,5,0,1,1-5-5A5,5,0,0,1,144,105Z"/><path class="cls-1" d="M164,105a5,5,0,1,1-5-5A5,5,0,0,1,164,105Z"/><path class="cls-1" d="M184,105a5,5,0,1,1-5-5A5,5,0,0,1,184,105Z"/><path class="cls-1" d="M44,133a5,5,0,1,1-5-5A5,5,0,0,1,44,133Z"/><path class="cls-1" d="M64,133a5,5,0,1,1-5-5A5,5,0,0,1,64,133Z"/><path class="cls-1" d="M84,133a5,5,0,1,1-5-5A5,5,0,0,1,84,133Z"/><path class="cls-1" d="M104,133a5,5,0,1,1-5-5A5,5,0,0,1,104,133Z"/><path class="cls-1" d="M124,133a5,5,0,1,1-5-5A5,5,0,0,1,124,133Z"/><path class="cls-1" d="M144,133a5,5,0,1,1-5-5A5,5,0,0,1,144,133Z"/><path class="cls-1" d="M164,133a5,5,0,1,1-5-5A5,5,0,0,1,164,133Z"/><path class="cls-1" d="M184,133a5,5,0,1,1-5-5A5,5,0,0,1,184,133Z"/><g class="cls-2"><path class="cls-3" d="M29,14a7,7,0,1,1,7-7A7,7,0,0,1,29,14ZM29,4a3,3,0,1,0,3,3A3,3,0,0,0,29,4Z"/></g><g class="cls-4"><path class="cls-3" d="M49,14a7,7,0,1,1,7-7A7,7,0,0,1,49,14ZM49,4a3,3,0,1,0,3,3A3,3,0,0,0,49,4Z"/></g><g class="cls-4"><path class="cls-3" d="M69,14a7,7,0,1,1,7-7A7,7,0,0,1,69,14ZM69,4a3,3,0,1,0,3,3A3,3,0,0,0,69,4Z"/></g><g class="cls-4"><path class="cls-3" d="M89,14a7,7,0,1,1,7-7A7,7,0,0,1,89,14ZM89,4a3,3,0,1,0,3,3A3,3,0,0,0,89,4Z"/></g><g class="cls-4"><path class="cls-3" d="M109,14a7,7,0,1,1,7-7A7,7,0,0,1,109,14Zm0-10a3,3,0,1,0,3,3A3,3,0,0,0,109,4Z"/></g><g class="cls-4"><path class="cls-3" d="M129,14a7,7,0,1,1,7-7A7,7,0,0,1,129,14Zm0-10a3,3,0,1,0,3,3A3,3,0,0,0,129,4Z"/></g><g class="cls-4"><path class="cls-3" d="M149,14a7,7,0,1,1,7-7A7,7,0,0,1,149,14Zm0-10a3,3,0,1,0,3,3A3,3,0,0,0,149,4Z"/></g><g class="cls-4"><path class="cls-3" d="M169,14a7,7,0,1,1,7-7A7,7,0,0,1,169,14Zm0-10a3,3,0,1,0,3,3A3,3,0,0,0,169,4Z"/></g><g class="cls-5"><path class="cls-3" d="M29,42a7,7,0,1,1,7-7A7,7,0,0,1,29,42Zm0-10a3,3,0,1,0,3,3A3,3,0,0,0,29,32Z"/></g><g class="cls-6"><path class="cls-3" d="M49,42a7,7,0,1,1,7-7A7,7,0,0,1,49,42Zm0-10a3,3,0,1,0,3,3A3,3,0,0,0,49,32Z"/></g><g class="cls-6"><path class="cls-3" d="M69,42a7,7,0,1,1,7-7A7,7,0,0,1,69,42Zm0-10a3,3,0,1,0,3,3A3,3,0,0,0,69,32Z"/></g><g class="cls-6"><path class="cls-3" d="M89,42a7,7,0,1,1,7-7A7,7,0,0,1,89,42Zm0-10a3,3,0,1,0,3,3A3,3,0,0,0,89,32Z"/></g><g class="cls-6"><path class="cls-3" d="M109,42a7,7,0,1,1,7-7A7,7,0,0,1,109,42Zm0-10a3,3,0,1,0,3,3A3,3,0,0,0,109,32Z"/></g><g class="cls-6"><path class="cls-3" d="M129,42a7,7,0,1,1,7-7A7,7,0,0,1,129,42Zm0-10a3,3,0,1,0,3,3A3,3,0,0,0,129,32Z"/></g><g class="cls-6"><path class="cls-3" d="M149,42a7,7,0,1,1,7-7A7,7,0,0,1,149,42Zm0-10a3,3,0,1,0,3,3A3,3,0,0,0,149,32Z"/></g><g class="cls-6"><path class="cls-3" d="M169,42a7,7,0,1,1,7-7A7,7,0,0,1,169,42Zm0-10a3,3,0,1,0,3,3A3,3,0,0,0,169,32Z"/></g><g class="cls-5"><path class="cls-3" d="M29,70a7,7,0,1,1,7-7A7,7,0,0,1,29,70Zm0-10a3,3,0,1,0,3,3A3,3,0,0,0,29,60Z"/></g><g class="cls-6"><path class="cls-3" d="M49,70a7,7,0,1,1,7-7A7,7,0,0,1,49,70Zm0-10a3,3,0,1,0,3,3A3,3,0,0,0,49,60Z"/></g><g class="cls-6"><path class="cls-3" d="M69,70a7,7,0,1,1,7-7A7,7,0,0,1,69,70Zm0-10a3,3,0,1,0,3,3A3,3,0,0,0,69,60Z"/></g><g class="cls-6"><path class="cls-3" d="M89,70a7,7,0,1,1,7-7A7,7,0,0,1,89,70Zm0-10a3,3,0,1,0,3,3A3,3,0,0,0,89,60Z"/></g><g class="cls-6"><path class="cls-3" d="M109,70a7,7,0,1,1,7-7A7,7,0,0,1,109,70Zm0-10a3,3,0,1,0,3,3A3,3,0,0,0,109,60Z"/></g><g class="cls-6"><path class="cls-3" d="M129,70a7,7,0,1,1,7-7A7,7,0,0,1,129,70Zm0-10a3,3,0,1,0,3,3A3,3,0,0,0,129,60Z"/></g><g class="cls-6"><path class="cls-3" d="M149,70a7,7,0,1,1,7-7A7,7,0,0,1,149,70Zm0-10a3,3,0,1,0,3,3A3,3,0,0,0,149,60Z"/></g><g class="cls-6"><path class="cls-3" d="M169,70a7,7,0,1,1,7-7A7,7,0,0,1,169,70Zm0-10a3,3,0,1,0,3,3A3,3,0,0,0,169,60Z"/></g><g class="cls-5"><path class="cls-3" d="M29,98a7,7,0,1,1,7-7A7,7,0,0,1,29,98Zm0-10a3,3,0,1,0,3,3A3,3,0,0,0,29,88Z"/></g><g class="cls-6"><path class="cls-3" d="M49,98a7,7,0,1,1,7-7A7,7,0,0,1,49,98Zm0-10a3,3,0,1,0,3,3A3,3,0,0,0,49,88Z"/></g><g class="cls-6"><path class="cls-3" d="M69,98a7,7,0,1,1,7-7A7,7,0,0,1,69,98Zm0-10a3,3,0,1,0,3,3A3,3,0,0,0,69,88Z"/></g><g class="cls-6"><path class="cls-3" d="M89,98a7,7,0,1,1,7-7A7,7,0,0,1,89,98Zm0-10a3,3,0,1,0,3,3A3,3,0,0,0,89,88Z"/></g><g class="cls-6"><path class="cls-3" d="M109,98a7,7,0,1,1,7-7A7,7,0,0,1,109,98Zm0-10a3,3,0,1,0,3,3A3,3,0,0,0,109,88Z"/></g><g class="cls-6"><path class="cls-3" d="M129,98a7,7,0,1,1,7-7A7,7,0,0,1,129,98Zm0-10a3,3,0,1,0,3,3A3,3,0,0,0,129,88Z"/></g><g class="cls-6"><path class="cls-3" d="M149,98a7,7,0,1,1,7-7A7,7,0,0,1,149,98Zm0-10a3,3,0,1,0,3,3A3,3,0,0,0,149,88Z"/></g><g class="cls-6"><path class="cls-3" d="M169,98a7,7,0,1,1,7-7A7,7,0,0,1,169,98Zm0-10a3,3,0,1,0,3,3A3,3,0,0,0,169,88Z"/></g><g class="cls-5"><path class="cls-3" d="M29,126a7,7,0,1,1,7-7A7,7,0,0,1,29,126Zm0-10a3,3,0,1,0,3,3A3,3,0,0,0,29,116Z"/></g><g class="cls-6"><path class="cls-3" d="M49,126a7,7,0,1,1,7-7A7,7,0,0,1,49,126Zm0-10a3,3,0,1,0,3,3A3,3,0,0,0,49,116Z"/></g><g class="cls-6"><path class="cls-3" d="M69,126a7,7,0,1,1,7-7A7,7,0,0,1,69,126Zm0-10a3,3,0,1,0,3,3A3,3,0,0,0,69,116Z"/></g><g class="cls-6"><path class="cls-3" d="M89,126a7,7,0,1,1,7-7A7,7,0,0,1,89,126Zm0-10a3,3,0,1,0,3,3A3,3,0,0,0,89,116Z"/></g><g class="cls-6"><path class="cls-3" d="M109,126a7,7,0,1,1,7-7A7,7,0,0,1,109,126Zm0-10a3,3,0,1,0,3,3A3,3,0,0,0,109,116Z"/></g><g class="cls-6"><path class="cls-3" d="M129,126a7,7,0,1,1,7-7A7,7,0,0,1,129,126Zm0-10a3,3,0,1,0,3,3A3,3,0,0,0,129,116Z"/></g><g class="cls-6"><path class="cls-3" d="M149,126a7,7,0,1,1,7-7A7,7,0,0,1,149,126Zm0-10a3,3,0,1,0,3,3A3,3,0,0,0,149,116Z"/></g><g class="cls-6"><path class="cls-3" d="M169,126a7,7,0,1,1,7-7A7,7,0,0,1,169,126Zm0-10a3,3,0,1,0,3,3A3,3,0,0,0,169,116Z"/></g><g class="cls-7"><path class="cls-3" d="M29,154a7,7,0,1,1,7-7A7,7,0,0,1,29,154Zm0-10a3,3,0,1,0,3,3A3,3,0,0,0,29,144Z"/></g><g class="cls-8"><path class="cls-3" d="M49,154a7,7,0,1,1,7-7A7,7,0,0,1,49,154Zm0-10a3,3,0,1,0,3,3A3,3,0,0,0,49,144Z"/></g><g class="cls-8"><path class="cls-3" d="M69,154a7,7,0,1,1,7-7A7,7,0,0,1,69,154Zm0-10a3,3,0,1,0,3,3A3,3,0,0,0,69,144Z"/></g><g class="cls-8"><path class="cls-3" d="M89,154a7,7,0,1,1,7-7A7,7,0,0,1,89,154Zm0-10a3,3,0,1,0,3,3A3,3,0,0,0,89,144Z"/></g><g class="cls-8"><path class="cls-3" d="M109,154a7,7,0,1,1,7-7A7,7,0,0,1,109,154Zm0-10a3,3,0,1,0,3,3A3,3,0,0,0,109,144Z"/></g><g class="cls-8"><path class="cls-3" d="M129,154a7,7,0,1,1,7-7A7,7,0,0,1,129,154Zm0-10a3,3,0,1,0,3,3A3,3,0,0,0,129,144Z"/></g><g class="cls-8"><path class="cls-3" d="M149,154a7,7,0,1,1,7-7A7,7,0,0,1,149,154Zm0-10a3,3,0,1,0,3,3A3,3,0,0,0,149,144Z"/></g><g class="cls-8"><path class="cls-3" d="M169,154a7,7,0,1,1,7-7A7,7,0,0,1,169,154Zm0-10a3,3,0,1,0,3,3A3,3,0,0,0,169,144Z"/></g><g class="cls-6"><path class="cls-3" d="M39,28a7,7,0,1,1,7-7A7,7,0,0,1,39,28Zm0-10a3,3,0,1,0,3,3A3,3,0,0,0,39,18Z"/></g><g class="cls-6"><path class="cls-3" d="M59,28a7,7,0,1,1,7-7A7,7,0,0,1,59,28Zm0-10a3,3,0,1,0,3,3A3,3,0,0,0,59,18Z"/></g><g class="cls-6"><path class="cls-3" d="M79,28a7,7,0,1,1,7-7A7,7,0,0,1,79,28Zm0-10a3,3,0,1,0,3,3A3,3,0,0,0,79,18Z"/></g><g class="cls-6"><path class="cls-3" d="M99,28a7,7,0,1,1,7-7A7,7,0,0,1,99,28Zm0-10a3,3,0,1,0,3,3A3,3,0,0,0,99,18Z"/></g><g class="cls-6"><path class="cls-3" d="M119,28a7,7,0,1,1,7-7A7,7,0,0,1,119,28Zm0-10a3,3,0,1,0,3,3A3,3,0,0,0,119,18Z"/></g><g class="cls-6"><path class="cls-3" d="M139,28a7,7,0,1,1,7-7A7,7,0,0,1,139,28Zm0-10a3,3,0,1,0,3,3A3,3,0,0,0,139,18Z"/></g><g class="cls-6"><path class="cls-3" d="M159,28a7,7,0,1,1,7-7A7,7,0,0,1,159,28Zm0-10a3,3,0,1,0,3,3A3,3,0,0,0,159,18Z"/></g><g class="cls-9"><path class="cls-3" d="M179,28a7,7,0,1,1,7-7A7,7,0,0,1,179,28Zm0-10a3,3,0,1,0,3,3A3,3,0,0,0,179,18Z"/></g><g class="cls-6"><path class="cls-3" d="M39,56a7,7,0,1,1,7-7A7,7,0,0,1,39,56Zm0-10a3,3,0,1,0,3,3A3,3,0,0,0,39,46Z"/></g><g class="cls-6"><path class="cls-3" d="M59,56a7,7,0,1,1,7-7A7,7,0,0,1,59,56Zm0-10a3,3,0,1,0,3,3A3,3,0,0,0,59,46Z"/></g><g class="cls-6"><path class="cls-3" d="M79,56a7,7,0,1,1,7-7A7,7,0,0,1,79,56Zm0-10a3,3,0,1,0,3,3A3,3,0,0,0,79,46Z"/></g><g class="cls-6"><path class="cls-3" d="M99,56a7,7,0,1,1,7-7A7,7,0,0,1,99,56Zm0-10a3,3,0,1,0,3,3A3,3,0,0,0,99,46Z"/></g><g class="cls-6"><path class="cls-3" d="M119,56a7,7,0,1,1,7-7A7,7,0,0,1,119,56Zm0-10a3,3,0,1,0,3,3A3,3,0,0,0,119,46Z"/></g><g class="cls-6"><path class="cls-3" d="M139,56a7,7,0,1,1,7-7A7,7,0,0,1,139,56Zm0-10a3,3,0,1,0,3,3A3,3,0,0,0,139,46Z"/></g><g class="cls-6"><path class="cls-3" d="M159,56a7,7,0,1,1,7-7A7,7,0,0,1,159,56Zm0-10a3,3,0,1,0,3,3A3,3,0,0,0,159,46Z"/></g><g class="cls-9"><path class="cls-3" d="M179,56a7,7,0,1,1,7-7A7,7,0,0,1,179,56Zm0-10a3,3,0,1,0,3,3A3,3,0,0,0,179,46Z"/></g><g class="cls-6"><path class="cls-3" d="M39,84a7,7,0,1,1,7-7A7,7,0,0,1,39,84Zm0-10a3,3,0,1,0,3,3A3,3,0,0,0,39,74Z"/></g><g class="cls-6"><path class="cls-3" d="M59,84a7,7,0,1,1,7-7A7,7,0,0,1,59,84Zm0-10a3,3,0,1,0,3,3A3,3,0,0,0,59,74Z"/></g><g class="cls-6"><path class="cls-3" d="M79,84a7,7,0,1,1,7-7A7,7,0,0,1,79,84Zm0-10a3,3,0,1,0,3,3A3,3,0,0,0,79,74Z"/></g><g class="cls-6"><path class="cls-3" d="M99,84a7,7,0,1,1,7-7A7,7,0,0,1,99,84Zm0-10a3,3,0,1,0,3,3A3,3,0,0,0,99,74Z"/></g><g class="cls-6"><path class="cls-3" d="M119,84a7,7,0,1,1,7-7A7,7,0,0,1,119,84Zm0-10a3,3,0,1,0,3,3A3,3,0,0,0,119,74Z"/></g><g class="cls-6"><path class="cls-3" d="M139,84a7,7,0,1,1,7-7A7,7,0,0,1,139,84Zm0-10a3,3,0,1,0,3,3A3,3,0,0,0,139,74Z"/></g><g class="cls-6"><path class="cls-3" d="M159,84a7,7,0,1,1,7-7A7,7,0,0,1,159,84Zm0-10a3,3,0,1,0,3,3A3,3,0,0,0,159,74Z"/></g><g class="cls-9"><path class="cls-3" d="M179,84a7,7,0,1,1,7-7A7,7,0,0,1,179,84Zm0-10a3,3,0,1,0,3,3A3,3,0,0,0,179,74Z"/></g><g class="cls-6"><path class="cls-3" d="M39,112a7,7,0,1,1,7-7A7,7,0,0,1,39,112Zm0-10a3,3,0,1,0,3,3A3,3,0,0,0,39,102Z"/></g><g class="cls-6"><path class="cls-3" d="M59,112a7,7,0,1,1,7-7A7,7,0,0,1,59,112Zm0-10a3,3,0,1,0,3,3A3,3,0,0,0,59,102Z"/></g><g class="cls-6"><path class="cls-3" d="M79,112a7,7,0,1,1,7-7A7,7,0,0,1,79,112Zm0-10a3,3,0,1,0,3,3A3,3,0,0,0,79,102Z"/></g><g class="cls-6"><path class="cls-3" d="M99,112a7,7,0,1,1,7-7A7,7,0,0,1,99,112Zm0-10a3,3,0,1,0,3,3A3,3,0,0,0,99,102Z"/></g><g class="cls-6"><path class="cls-3" d="M119,112a7,7,0,1,1,7-7A7,7,0,0,1,119,112Zm0-10a3,3,0,1,0,3,3A3,3,0,0,0,119,102Z"/></g><g class="cls-6"><path class="cls-3" d="M139,112a7,7,0,1,1,7-7A7,7,0,0,1,139,112Zm0-10a3,3,0,1,0,3,3A3,3,0,0,0,139,102Z"/></g><g class="cls-6"><path class="cls-3" d="M159,112a7,7,0,1,1,7-7A7,7,0,0,1,159,112Zm0-10a3,3,0,1,0,3,3A3,3,0,0,0,159,102Z"/></g><g class="cls-9"><path class="cls-3" d="M179,112a7,7,0,1,1,7-7A7,7,0,0,1,179,112Zm0-10a3,3,0,1,0,3,3A3,3,0,0,0,179,102Z"/></g><g class="cls-6"><path class="cls-3" d="M39,140a7,7,0,1,1,7-7A7,7,0,0,1,39,140Zm0-10a3,3,0,1,0,3,3A3,3,0,0,0,39,130Z"/></g><g class="cls-6"><path class="cls-3" d="M59,140a7,7,0,1,1,7-7A7,7,0,0,1,59,140Zm0-10a3,3,0,1,0,3,3A3,3,0,0,0,59,130Z"/></g><g class="cls-6"><path class="cls-3" d="M79,140a7,7,0,1,1,7-7A7,7,0,0,1,79,140Zm0-10a3,3,0,1,0,3,3A3,3,0,0,0,79,130Z"/></g><g class="cls-6"><path class="cls-3" d="M99,140a7,7,0,1,1,7-7A7,7,0,0,1,99,140Zm0-10a3,3,0,1,0,3,3A3,3,0,0,0,99,130Z"/></g><g class="cls-6"><path class="cls-3" d="M119,140a7,7,0,1,1,7-7A7,7,0,0,1,119,140Zm0-10a3,3,0,1,0,3,3A3,3,0,0,0,119,130Z"/></g><g class="cls-6"><path class="cls-3" d="M139,140a7,7,0,1,1,7-7A7,7,0,0,1,139,140Zm0-10a3,3,0,1,0,3,3A3,3,0,0,0,139,130Z"/></g><g class="cls-6"><path class="cls-3" d="M159,140a7,7,0,1,1,7-7A7,7,0,0,1,159,140Zm0-10a3,3,0,1,0,3,3A3,3,0,0,0,159,130Z"/></g><g class="cls-9"><path class="cls-3" d="M179,140a7,7,0,1,1,7-7A7,7,0,0,1,179,140Zm0-10a3,3,0,1,0,3,3A3,3,0,0,0,179,130Z"/></g><rect class="cls-1" x="85" y="43" width="478" height="358" rx="7"/><path class="cls-3" d="M556,402H92a8,8,0,0,1-8-8V50a8,8,0,0,1,8-8H556a8,8,0,0,1,8,8V394A8,8,0,0,1,556,402ZM92,44a6,6,0,0,0-6,6V394a6,6,0,0,0,6,6H556a6,6,0,0,0,6-6V50a6,6,0,0,0-6-6Z"/><rect class="cls-1" x="140" y="196" width="358" height="104" rx="7"/><path class="cls-3" d="M489.4,301H485v-2h4.4Zm-8.8,0h-4.4v-2h4.4Zm-8.8,0h-4.4v-2h4.4Zm-8.8,0h-4.4v-2H463Zm-8.8,0h-4.4v-2h4.4Zm-8.8,0H441v-2h4.4Zm-8.8,0h-4.4v-2h4.4Zm-8.8,0h-4.4v-2h4.4Zm-8.8,0h-4.4v-2H419Zm-8.8,0h-4.4v-2h4.4Zm-8.8,0H397v-2h4.4Zm-8.8,0h-4.4v-2h4.4Zm-8.8,0h-4.4v-2h4.4Zm-8.8,0h-4.4v-2H375Zm-8.8,0h-4.4v-2h4.4Zm-8.8,0H353v-2h4.4Zm-8.8,0h-4.4v-2h4.4Zm-8.8,0h-4.4v-2h4.4Zm-8.8,0h-4.4v-2H331Zm-8.8,0h-4.4v-2h4.4Zm-8.8,0H309v-2h4.4Zm-8.8,0h-4.4v-2h4.4Zm-8.8,0h-4.4v-2h4.4Zm-8.8,0h-4.4v-2H287Zm-8.8,0h-4.4v-2h4.4Zm-8.8,0H265v-2h4.4Zm-8.8,0h-4.4v-2h4.4Zm-8.8,0h-4.4v-2h4.4Zm-8.8,0h-4.4v-2H243Zm-8.8,0h-4.4v-2h4.4Zm-8.8,0H221v-2h4.4Zm-8.8,0h-4.4v-2h4.4Zm-8.8,0h-4.4v-2h4.4Zm-8.8,0h-4.4v-2H199Zm-8.8,0h-4.4v-2h4.4Zm-8.8,0H177v-2h4.4Zm-8.8,0h-4.4v-2h4.4Zm-8.8,0h-4.4v-2h4.4Zm-8.8,0h-4.4v-2H155Zm-8.91-.05a7.89,7.89,0,0,1-4.5-2.06l1.35-1.47a5.92,5.92,0,0,0,3.38,1.54Zm348-.58-.77-1.84a6.07,6.07,0,0,0,2.8-2.43l1.71,1A8,8,0,0,1,494.11,300.37Zm-355-5.78A7.66,7.66,0,0,1,139,293v-3h2v3a5.93,5.93,0,0,0,.12,1.19ZM499,292.4h-2V288h2Zm-358-6.8h-2v-4.4h2Zm358-2h-2v-4.4h2Zm-358-6.8h-2v-4.4h2Zm358-2h-2v-4.4h2ZM141,268h-2v-4.4h2Zm358-2h-2v-4.4h2Zm-358-6.8h-2v-4.4h2Zm358-2h-2v-4.4h2Zm-358-6.8h-2V246h2Zm358-2h-2V244h2Zm-358-6.8h-2v-4.4h2Zm358-2h-2v-4.4h2Zm-358-6.8h-2v-4.4h2Zm358-2h-2v-4.4h2ZM141,224h-2v-4.4h2Zm358-2h-2v-4.4h2Zm-358-6.8h-2v-4.4h2Zm358-2h-2v-4.4h2Zm-358-6.8h-2V203a8.74,8.74,0,0,1,.08-1.14l2,.29a6,6,0,0,0-.06.85Zm358-2h-2V203a5.9,5.9,0,0,0-.54-2.49l1.82-.84A8,8,0,0,1,499,203Zm-356.3-5.58-1.44-1.4a7.89,7.89,0,0,1,4.38-2.3l.33,2A5.88,5.88,0,0,0,142.7,198.82Zm351.25-1A6,6,0,0,0,491,197h-.8v-2h.8a8.1,8.1,0,0,1,3.94,1ZM485.8,197h-4.4v-2h4.4Zm-8.8,0h-4.4v-2H477Zm-8.8,0h-4.4v-2h4.4Zm-8.8,0H455v-2h4.4Zm-8.8,0h-4.4v-2h4.4Zm-8.8,0h-4.4v-2h4.4Zm-8.8,0h-4.4v-2H433Zm-8.8,0h-4.4v-2h4.4Zm-8.8,0H411v-2h4.4Zm-8.8,0h-4.4v-2h4.4Zm-8.8,0h-4.4v-2h4.4Zm-8.8,0h-4.4v-2H389Zm-8.8,0h-4.4v-2h4.4Zm-8.8,0H367v-2h4.4Zm-8.8,0h-4.4v-2h4.4Zm-8.8,0h-4.4v-2h4.4Zm-8.8,0h-4.4v-2H345Zm-8.8,0h-4.4v-2h4.4Zm-8.8,0H323v-2h4.4Zm-8.8,0h-4.4v-2h4.4Zm-8.8,0h-4.4v-2h4.4Zm-8.8,0h-4.4v-2H301Zm-8.8,0h-4.4v-2h4.4Zm-8.8,0H279v-2h4.4Zm-8.8,0h-4.4v-2h4.4Zm-8.8,0h-4.4v-2h4.4Zm-8.8,0h-4.4v-2H257Zm-8.8,0h-4.4v-2h4.4Zm-8.8,0H235v-2h4.4Zm-8.8,0h-4.4v-2h4.4Zm-8.8,0h-4.4v-2h4.4Zm-8.8,0h-4.4v-2H213Zm-8.8,0h-4.4v-2h4.4Zm-8.8,0H191v-2h4.4Zm-8.8,0h-4.4v-2h4.4Zm-8.8,0h-4.4v-2h4.4Zm-8.8,0h-4.4v-2H169Zm-8.8,0h-4.4v-2h4.4Zm-8.8,0H147v-2h4.4Z"/><path class="cls-10" d="M140,327H261a1,1,0,0,1,1,1h0a1,1,0,0,1-1,1H140a1,1,0,0,1-1-1h0A1,1,0,0,1,140,327Z"/><rect class="cls-10" x="419" y="321" width="80" height="20" rx="4"/><path class="cls-1" d="M437,330h43a1,1,0,0,1,1,1h0a1,1,0,0,1-1,1H437a1,1,0,0,1-1-1h0A1,1,0,0,1,437,330Z"/><path class="cls-10" d="M140,333h75a1,1,0,0,1,1,1h0a1,1,0,0,1-1,1H140a1,1,0,0,1-1-1h0A1,1,0,0,1,140,333Z"/><rect class="cls-11" x="140" y="146" width="358" height="28" rx="3"/><path class="cls-3" d="M495,175H143a4,4,0,0,1-4-4V149a4,4,0,0,1,4-4H495a4,4,0,0,1,4,4v22A4,4,0,0,1,495,175ZM143,147a2,2,0,0,0-2,2v22a2,2,0,0,0,2,2H495a2,2,0,0,0,2-2V149a2,2,0,0,0-2-2Z"/><path class="cls-10" d="M150,156h90a1,1,0,0,1,1,1h0a1,1,0,0,1-1,1H150a1,1,0,0,1-1-1h0A1,1,0,0,1,150,156Z"/><path class="cls-10" d="M150,162h56a1,1,0,0,1,1,1h0a1,1,0,0,1-1,1H150a1,1,0,0,1-1-1h0A1,1,0,0,1,150,162Z"/><path class="cls-10" d="M487,154.71a1,1,0,0,1,1.41,1.41l-4.95,4.95L482,159.66Z"/><path class="cls-10" d="M488.36,163.19a1,1,0,0,1,0,1.42,1,1,0,0,1-1.41,0l-4.95-5,1.41-1.42Z"/><path class="cls-10" d="M479.36,164.61a1,1,0,0,1-1.41,0,1,1,0,0,1,0-1.42l4.95-4.95,1.41,1.42Z"/><path class="cls-10" d="M478,156.12a1,1,0,1,1,1.41-1.41l4.95,4.95-1.41,1.41Z"/><rect class="cls-11" x="140" y="108" width="358" height="28" rx="3"/><path class="cls-3" d="M495,137H143a4,4,0,0,1-4-4V111a4,4,0,0,1,4-4H495a4,4,0,0,1,4,4v22A4,4,0,0,1,495,137ZM143,109a2,2,0,0,0-2,2v22a2,2,0,0,0,2,2H495a2,2,0,0,0,2-2V111a2,2,0,0,0-2-2Z"/><path class="cls-10" d="M150,118h90a1,1,0,0,1,1,1h0a1,1,0,0,1-1,1H150a1,1,0,0,1-1-1h0A1,1,0,0,1,150,118Z"/><path class="cls-10" d="M150,124h56a1,1,0,0,1,1,1h0a1,1,0,0,1-1,1H150a1,1,0,0,1-1-1h0A1,1,0,0,1,150,124Z"/><path class="cls-10" d="M487,116.71a1,1,0,0,1,1.41,1.41l-4.95,4.95L482,121.66Z"/><path class="cls-10" d="M488.36,125.19a1,1,0,0,1,0,1.42,1,1,0,0,1-1.41,0l-4.95-5,1.41-1.42Z"/><path class="cls-10" d="M479.36,126.61a1,1,0,0,1-1.41,0,1,1,0,0,1,0-1.42l4.95-5,1.41,1.42Z"/><path class="cls-10" d="M478,118.12a1,1,0,1,1,1.41-1.41l4.95,5-1.41,1.41Z"/><path class="cls-1" d="M280,263h71a7,7,0,0,1,7,7v95H280Z"/><path class="cls-3" d="M359,366H279V262h72a8,8,0,0,1,8,8Zm-78-2h76V270a6,6,0,0,0-6-6H281Z"/><path class="cls-10" d="M290,318h30a1,1,0,0,1,1,1h0a1,1,0,0,1-1,1H290a1,1,0,0,1-1-1h0A1,1,0,0,1,290,318Z"/><path class="cls-10" d="M290,324h30a1,1,0,0,1,1,1h0a1,1,0,0,1-1,1H290a1,1,0,0,1-1-1h0A1,1,0,0,1,290,324Z"/><path class="cls-10" d="M290,330h18a1,1,0,0,1,1,1h0a1,1,0,0,1-1,1H290a1,1,0,0,1-1-1h0A1,1,0,0,1,290,330Z"/><rect class="cls-11" x="290" y="273" width="58" height="35" rx="3"/><path class="cls-3" d="M345,309H293a4,4,0,0,1-4-4V276a4,4,0,0,1,4-4h52a4,4,0,0,1,4,4v29A4,4,0,0,1,345,309Zm-52-35a2,2,0,0,0-2,2v29a2,2,0,0,0,2,2h52a2,2,0,0,0,2-2V276a2,2,0,0,0-2-2Z"/><path class="cls-1" d="M320,363v6l7.5,7.5c1.2,1.2,5.83,2.17,8,2.5.67.17,3,0,7-2s5.33-7.5,5.5-10V354a5,5,0,0,1-.5-2c0-1-2-1-3-1s-2.5,2-2.5,1a3.19,3.19,0,0,0-3-3c-2,0-3,2-3,1a3.63,3.63,0,0,0-3-3c-1.6-.4-2.67,1.83-3,3a4.5,4.5,0,0,0-3-1,3.61,3.61,0,0,0-3,2v6a1.67,1.67,0,0,1-.5,1l-2.5,2Z"/><path class="cls-10" d="M345,350a3.94,3.94,0,0,0-2.22.68A4,4,0,0,0,339,348a3.94,3.94,0,0,0-2.22.68,4,4,0,0,0-7.56,0A3.94,3.94,0,0,0,327,348a4,4,0,0,0-4,4v4.59l-1.95,1.94a7,7,0,0,0-2.05,5v3a7,7,0,0,0,2.05,5l4,4A15.38,15.38,0,0,0,336,380a13,13,0,0,0,13-13V354A4,4,0,0,0,345,350Zm2,17a11,11,0,0,1-11,11,13.36,13.36,0,0,1-9.53-3.95l-4-4a5,5,0,0,1-1.46-3.53v-3a5,5,0,0,1,1.46-3.54l.54-.54V361a1,1,0,0,0,2,0v-4h0v-5a2,2,0,0,1,4,0v3a1,1,0,0,0,2,0v-5a2,2,0,0,1,4,0v5a1,1,0,0,0,2,0v-3a2,2,0,0,1,4,0v3a1,1,0,0,0,2,0v-1a2,2,0,0,1,4,0Z"/><rect class="cls-1" x="1" y="258" width="168" height="48" rx="7"/><path class="cls-3" d="M162,307H8a8,8,0,0,1-8-8V265a8,8,0,0,1,8-8H162a8,8,0,0,1,8,8v34A8,8,0,0,1,162,307ZM8,259a6,6,0,0,0-6,6v34a6,6,0,0,0,6,6H162a6,6,0,0,0,6-6V265a6,6,0,0,0-6-6Z"/><path class="cls-1" d="M25,268h0a14,14,0,0,1,14,14h0a14,14,0,0,1-14,14h0a14,14,0,0,1-14-14h0A14,14,0,0,1,25,268Z"/><path class="cls-3" d="M25,297a15,15,0,1,1,15-15A15,15,0,0,1,25,297Zm0-28a13,13,0,1,0,13,13A13,13,0,0,0,25,269Z"/><path class="cls-10" d="M63,267h0a15,15,0,0,1,15,15h0a15,15,0,0,1-15,15h0a15,15,0,0,1-15-15h0A15,15,0,0,1,63,267Z"/><path class="cls-10" d="M155,290a2,2,0,1,1-2-2A2,2,0,0,1,155,290Z"/><path class="cls-10" d="M155,282a2,2,0,1,1-2-2A2,2,0,0,1,155,282Z"/><path class="cls-10" d="M155,274a2,2,0,1,1-2-2A2,2,0,0,1,155,274Z"/><path class="cls-10" d="M147,290a2,2,0,1,1-2-2A2,2,0,0,1,147,290Z"/><path class="cls-10" d="M147,282a2,2,0,1,1-2-2A2,2,0,0,1,147,282Z"/><path class="cls-10" d="M147,274a2,2,0,1,1-2-2A2,2,0,0,1,147,274Z"/><path class="cls-10" d="M139,290a2,2,0,1,1-2-2A2,2,0,0,1,139,290Z"/><path class="cls-10" d="M139,282a2,2,0,1,1-2-2A2,2,0,0,1,139,282Z"/><path class="cls-10" d="M139,274a2,2,0,1,1-2-2A2,2,0,0,1,139,274Z"/><rect class="cls-1" x="1" y="318" width="168" height="48" rx="7"/><path class="cls-3" d="M162,367H8a8,8,0,0,1-8-8V325a8,8,0,0,1,8-8H162a8,8,0,0,1,8,8v34A8,8,0,0,1,162,367ZM8,319a6,6,0,0,0-6,6v34a6,6,0,0,0,6,6H162a6,6,0,0,0,6-6V325a6,6,0,0,0-6-6Z"/><path class="cls-10" d="M27,335H57a1,1,0,0,1,1,1h0a1,1,0,0,1-1,1H27a1,1,0,0,1-1-1h0A1,1,0,0,1,27,335Z"/><path class="cls-10" d="M27,341H57a1,1,0,0,1,1,1h0a1,1,0,0,1-1,1H27a1,1,0,0,1-1-1h0A1,1,0,0,1,27,341Z"/><path class="cls-10" d="M27,347H45a1,1,0,0,1,1,1h0a1,1,0,0,1-1,1H27a1,1,0,0,1-1-1h0A1,1,0,0,1,27,347Z"/><rect class="cls-1" x="1" y="378" width="168" height="48" rx="7"/><path class="cls-3" d="M162,427H8a8,8,0,0,1-8-8V385a8,8,0,0,1,8-8H162a8,8,0,0,1,8,8v34A8,8,0,0,1,162,427ZM8,379a6,6,0,0,0-6,6v34a6,6,0,0,0,6,6H162a6,6,0,0,0,6-6V385a6,6,0,0,0-6-6Z"/><rect class="cls-11" x="21" y="306" width="18" height="12"/><path class="cls-3" d="M40,319H20V305H40Zm-18-2H38V307H22Z"/><rect class="cls-11" x="21" y="366" width="18" height="12"/><path class="cls-3" d="M40,379H20V365H40Zm-18-2H38V367H22Z"/><rect class="cls-11" x="131" y="306" width="18" height="12"/><path class="cls-3" d="M150,319H130V305h20Zm-18-2h16V307H132Z"/><rect class="cls-11" x="131" y="366" width="18" height="12"/><path class="cls-3" d="M150,379H130V365h20Zm-18-2h16V367H132Z"/><path class="cls-10" d="M145,327h0a15,15,0,0,1,15,15h0a15,15,0,0,1-15,15h0a15,15,0,0,1-15-15h0A15,15,0,0,1,145,327Z"/><path class="cls-11" d="M25,388h0a14,14,0,0,1,14,14h0a14,14,0,0,1-14,14h0a14,14,0,0,1-14-14h0A14,14,0,0,1,25,388Z"/><path class="cls-3" d="M25,417a15,15,0,1,1,15-15A15,15,0,0,1,25,417Zm0-28a13,13,0,1,0,13,13A13,13,0,0,0,25,389Z"/><path class="cls-10" d="M14,335h0a4,4,0,0,1,4,4h0a4,4,0,0,1-4,4h0a4,4,0,0,1-4-4h0A4,4,0,0,1,14,335Z"/><path class="cls-10" d="M49,395H79a1,1,0,0,1,1,1h0a1,1,0,0,1-1,1H49a1,1,0,0,1-1-1h0A1,1,0,0,1,49,395Z"/><path class="cls-10" d="M49,401H79a1,1,0,0,1,1,1h0a1,1,0,0,1-1,1H49a1,1,0,0,1-1-1h0A1,1,0,0,1,49,401Z"/><path class="cls-10" d="M49,407H67a1,1,0,0,1,1,1h0a1,1,0,0,1-1,1H49a1,1,0,0,1-1-1h0A1,1,0,0,1,49,407Z"/><path class="cls-10" d="M155,410a2,2,0,1,1-2-2A2,2,0,0,1,155,410Z"/><path class="cls-10" d="M155,402a2,2,0,1,1-2-2A2,2,0,0,1,155,402Z"/><path class="cls-10" d="M155,394a2,2,0,1,1-2-2A2,2,0,0,1,155,394Z"/><path class="cls-10" d="M147,410a2,2,0,1,1-2-2A2,2,0,0,1,147,410Z"/><path class="cls-10" d="M147,402a2,2,0,1,1-2-2A2,2,0,0,1,147,402Z"/><path class="cls-10" d="M147,394a2,2,0,1,1-2-2A2,2,0,0,1,147,394Z"/><path class="cls-10" d="M139,410a2,2,0,1,1-2-2A2,2,0,0,1,139,410Z"/><path class="cls-10" d="M139,402a2,2,0,1,1-2-2A2,2,0,0,1,139,402Z"/><path class="cls-10" d="M139,394a2,2,0,1,1-2-2A2,2,0,0,1,139,394Z"/><path class="cls-11" d="M574,158h0a50,50,0,0,1,50,50h0a50,50,0,0,1-50,50h0a50,50,0,0,1-50-50h0A50,50,0,0,1,574,158Z"/><circle class="cls-1" cx="574" cy="208" r="25"/><path class="cls-10" d="M563,204h23a1,1,0,0,1,1,1h0a1,1,0,0,1-1,1H563a1,1,0,0,1-1-1h0A1,1,0,0,1,563,204Z"/><path class="cls-10" d="M565,210h18a1,1,0,0,1,1,1h0a1,1,0,0,1-1,1H565a1,1,0,0,1-1-1h0A1,1,0,0,1,565,210Z"/><g class="cls-12"><path class="cls-1" d="M624,208a50,50,0,1,1-65.45-47.55l7.73,23.77A25,25,0,1,0,599,208Z"/><path class="cls-3" d="M574,260c-1.36,0-2.73-.05-4.09-.16a52,52,0,0,1-12-101.3l1.9-.61,9,27.58-1.9.62A23,23,0,1,0,597,208v-2h29v2a52,52,0,0,1-52,52Zm-16.73-97A48,48,0,1,0,622,210h-21a27,27,0,1,1-37.15-27Z"/></g><g class="cls-13"><path class="cls-10" d="M624,208a50,50,0,0,1-20.61,40.45L588.7,228.23A25,25,0,0,0,599,208Z"/><path class="cls-3" d="M603,251.25,585.9,227.78l1.62-1.17A23,23,0,0,0,597,208v-2h29v2a52,52,0,0,1-21.44,42.07Zm-11.51-22.64,12.37,17A48,48,0,0,0,622,210h-21a26.91,26.91,0,0,1-9.48,18.61Z"/></g></g></g></svg>