<svg xmlns="http://www.w3.org/2000/svg" xmlns:xlink="http://www.w3.org/1999/xlink" viewBox="0 0 622 419"><defs><style>.cls-1,.cls-3{fill:#fff;}.cls-1,.cls-6{fill-rule:evenodd;}.cls-2,.cls-6{fill:#0f3dfb;}.cls-4{fill:#0019ff;}.cls-5{fill:#5cfbd8;}.cls-7{mask:url(#mask);}</style><mask id="mask" x="562" y="143" width="44" height="21" maskUnits="userSpaceOnUse"><g id="path-55-inside-1"><path class="cls-1" d="M584,145a8,8,0,0,0-8,8v3h-7.2a4.8,4.8,0,0,0-4.8,4.8,1.2,1.2,0,0,0,1.2,1.2h37.6a1.2,1.2,0,0,0,1.2-1.2,4.8,4.8,0,0,0-4.8-4.8H592v-3A8,8,0,0,0,584,145Z"/></g></mask></defs><title>prototipo</title><g id="Capa_2" data-name="Capa 2"><g id="Capa_1-2" data-name="Capa 1"><path class="cls-2" d="M166,139a1,1,0,0,1-1-1v-6h-5a1,1,0,0,1,0-2h5v-5a1,1,0,0,1,2,0v5h6a1,1,0,0,1,0,2h-6v6A1,1,0,0,1,166,139Zm-23,0a1,1,0,0,1-1-1v-6h-5a1,1,0,0,1,0-2h5v-5a1,1,0,0,1,2,0v5h6a1,1,0,0,1,0,2h-6v6A1,1,0,0,1,143,139Zm-23,0a1,1,0,0,1-1-1v-6h-5a1,1,0,0,1,0-2h5v-5a1,1,0,0,1,2,0v5h6a1,1,0,0,1,0,2h-6v6A1,1,0,0,1,120,139Zm-23,0a1,1,0,0,1-1-1v-6H91a1,1,0,0,1,0-2h5v-5a1,1,0,0,1,2,0v5h6a1,1,0,0,1,0,2H98v6A1,1,0,0,1,97,139Zm-23,0a1,1,0,0,1-1-1v-6H68a1,1,0,0,1,0-2h5v-5a1,1,0,0,1,2,0v5h6a1,1,0,0,1,0,2H75v6A1,1,0,0,1,74,139Zm-23,0a1,1,0,0,1-1-1v-6H45a1,1,0,0,1,0-2h5v-5a1,1,0,0,1,2,0v5h6a1,1,0,0,1,0,2H52v6A1,1,0,0,1,51,139Zm125-13a1,1,0,0,1-1-1v-6h-5a1,1,0,0,1,0-2h5v-5a1,1,0,0,1,2,0v5h6a1,1,0,0,1,0,2h-6v6A1,1,0,0,1,176,126Zm-23,0a1,1,0,0,1-1-1v-6h-5a1,1,0,0,1,0-2h5v-5a1,1,0,0,1,2,0v5h6a1,1,0,0,1,0,2h-6v6A1,1,0,0,1,153,126Zm-23,0a1,1,0,0,1-1-1v-6h-5a1,1,0,0,1,0-2h5v-5a1,1,0,0,1,2,0v5h6a1,1,0,0,1,0,2h-6v6A1,1,0,0,1,130,126Zm-23,0a1,1,0,0,1-1-1v-6h-5a1,1,0,0,1,0-2h5v-5a1,1,0,0,1,2,0v5h6a1,1,0,0,1,0,2h-6v6A1,1,0,0,1,107,126Zm-23,0a1,1,0,0,1-1-1v-6H78a1,1,0,0,1,0-2h5v-5a1,1,0,0,1,2,0v5h6a1,1,0,0,1,0,2H85v6A1,1,0,0,1,84,126Zm-23,0a1,1,0,0,1-1-1v-6H55a1,1,0,0,1,0-2h5v-5a1,1,0,0,1,2,0v5h6a1,1,0,0,1,0,2H62v6A1,1,0,0,1,61,126Zm105-10a1,1,0,0,1-1-1v-6h-5a1,1,0,0,1,0-2h5v-5a1,1,0,0,1,2,0v5h6a1,1,0,0,1,0,2h-6v6A1,1,0,0,1,166,116Zm-23,0a1,1,0,0,1-1-1v-6h-5a1,1,0,0,1,0-2h5v-5a1,1,0,0,1,2,0v5h6a1,1,0,0,1,0,2h-6v6A1,1,0,0,1,143,116Zm-23,0a1,1,0,0,1-1-1v-6h-5a1,1,0,0,1,0-2h5v-5a1,1,0,0,1,2,0v5h6a1,1,0,0,1,0,2h-6v6A1,1,0,0,1,120,116Zm-23,0a1,1,0,0,1-1-1v-6H91a1,1,0,0,1,0-2h5v-5a1,1,0,0,1,2,0v5h6a1,1,0,0,1,0,2H98v6A1,1,0,0,1,97,116Zm-23,0a1,1,0,0,1-1-1v-6H68a1,1,0,0,1,0-2h5v-5a1,1,0,0,1,2,0v5h6a1,1,0,0,1,0,2H75v6A1,1,0,0,1,74,116Zm-23,0a1,1,0,0,1-1-1v-6H45a1,1,0,0,1,0-2h5v-5a1,1,0,0,1,2,0v5h6a1,1,0,0,1,0,2H52v6A1,1,0,0,1,51,116Zm125-13a1,1,0,0,1-1-1V96h-5a1,1,0,0,1,0-2h5V89a1,1,0,0,1,2,0v5h6a1,1,0,0,1,0,2h-6v6A1,1,0,0,1,176,103Zm-23,0a1,1,0,0,1-1-1V96h-5a1,1,0,0,1,0-2h5V89a1,1,0,0,1,2,0v5h6a1,1,0,0,1,0,2h-6v6A1,1,0,0,1,153,103Zm-23,0a1,1,0,0,1-1-1V96h-5a1,1,0,0,1,0-2h5V89a1,1,0,0,1,2,0v5h6a1,1,0,0,1,0,2h-6v6A1,1,0,0,1,130,103Zm-23,0a1,1,0,0,1-1-1V96h-5a1,1,0,0,1,0-2h5V89a1,1,0,0,1,2,0v5h6a1,1,0,0,1,0,2h-6v6A1,1,0,0,1,107,103Zm-23,0a1,1,0,0,1-1-1V96H78a1,1,0,0,1,0-2h5V89a1,1,0,0,1,2,0v5h6a1,1,0,0,1,0,2H85v6A1,1,0,0,1,84,103Zm-23,0a1,1,0,0,1-1-1V96H55a1,1,0,0,1,0-2h5V89a1,1,0,0,1,2,0v5h6a1,1,0,0,1,0,2H62v6A1,1,0,0,1,61,103ZM166,90a1,1,0,0,1-1-1V83h-5a1,1,0,0,1,0-2h5V76a1,1,0,0,1,2,0v5h6a1,1,0,0,1,0,2h-6v6A1,1,0,0,1,166,90Zm-23,0a1,1,0,0,1-1-1V83h-5a1,1,0,0,1,0-2h5V76a1,1,0,0,1,2,0v5h6a1,1,0,0,1,0,2h-6v6A1,1,0,0,1,143,90Zm-23,0a1,1,0,0,1-1-1V83h-5a1,1,0,0,1,0-2h5V76a1,1,0,0,1,2,0v5h6a1,1,0,0,1,0,2h-6v6A1,1,0,0,1,120,90ZM97,90a1,1,0,0,1-1-1V83H91a1,1,0,0,1,0-2h5V76a1,1,0,0,1,2,0v5h6a1,1,0,0,1,0,2H98v6A1,1,0,0,1,97,90ZM74,90a1,1,0,0,1-1-1V83H68a1,1,0,0,1,0-2h5V76a1,1,0,0,1,2,0v5h6a1,1,0,0,1,0,2H75v6A1,1,0,0,1,74,90ZM51,90a1,1,0,0,1-1-1V83H45a1,1,0,0,1,0-2h5V76a1,1,0,0,1,2,0v5h6a1,1,0,0,1,0,2H52v6A1,1,0,0,1,51,90ZM176,77a1,1,0,0,1-1-1V70h-5a1,1,0,0,1,0-2h5V63a1,1,0,0,1,2,0v5h6a1,1,0,0,1,0,2h-6v6A1,1,0,0,1,176,77Zm-23,0a1,1,0,0,1-1-1V70h-5a1,1,0,0,1,0-2h5V63a1,1,0,0,1,2,0v5h6a1,1,0,0,1,0,2h-6v6A1,1,0,0,1,153,77Zm-23,0a1,1,0,0,1-1-1V70h-5a1,1,0,0,1,0-2h5V63a1,1,0,0,1,2,0v5h6a1,1,0,0,1,0,2h-6v6A1,1,0,0,1,130,77Zm-23,0a1,1,0,0,1-1-1V70h-5a1,1,0,0,1,0-2h5V63a1,1,0,0,1,2,0v5h6a1,1,0,0,1,0,2h-6v6A1,1,0,0,1,107,77ZM84,77a1,1,0,0,1-1-1V70H78a1,1,0,0,1,0-2h5V63a1,1,0,0,1,2,0v5h6a1,1,0,0,1,0,2H85v6A1,1,0,0,1,84,77ZM61,77a1,1,0,0,1-1-1V70H55a1,1,0,0,1,0-2h5V63a1,1,0,0,1,2,0v5h6a1,1,0,0,1,0,2H62v6A1,1,0,0,1,61,77ZM166,64a1,1,0,0,1-1-1V57h-5a1,1,0,0,1,0-2h5V50a1,1,0,0,1,2,0v5h6a1,1,0,0,1,0,2h-6v6A1,1,0,0,1,166,64Zm-23,0a1,1,0,0,1-1-1V57h-5a1,1,0,0,1,0-2h5V50a1,1,0,0,1,2,0v5h6a1,1,0,0,1,0,2h-6v6A1,1,0,0,1,143,64Zm-23,0a1,1,0,0,1-1-1V57h-5a1,1,0,0,1,0-2h5V50a1,1,0,0,1,2,0v5h6a1,1,0,0,1,0,2h-6v6A1,1,0,0,1,120,64ZM97,64a1,1,0,0,1-1-1V57H91a1,1,0,0,1,0-2h5V50a1,1,0,0,1,2,0v5h6a1,1,0,0,1,0,2H98v6A1,1,0,0,1,97,64ZM74,64a1,1,0,0,1-1-1V57H68a1,1,0,0,1,0-2h5V50a1,1,0,0,1,2,0v5h6a1,1,0,0,1,0,2H75v6A1,1,0,0,1,74,64ZM51,64a1,1,0,0,1-1-1V57H45a1,1,0,0,1,0-2h5V50a1,1,0,0,1,2,0v5h6a1,1,0,0,1,0,2H52v6A1,1,0,0,1,51,64ZM176,51a1,1,0,0,1-1-1V44h-5a1,1,0,0,1,0-2h5V37a1,1,0,0,1,2,0v5h6a1,1,0,0,1,0,2h-6v6A1,1,0,0,1,176,51Zm-23,0a1,1,0,0,1-1-1V44h-5a1,1,0,0,1,0-2h5V37a1,1,0,0,1,2,0v5h6a1,1,0,0,1,0,2h-6v6A1,1,0,0,1,153,51Zm-23,0a1,1,0,0,1-1-1V44h-5a1,1,0,0,1,0-2h5V37a1,1,0,0,1,2,0v5h6a1,1,0,0,1,0,2h-6v6A1,1,0,0,1,130,51Zm-23,0a1,1,0,0,1-1-1V44h-5a1,1,0,0,1,0-2h5V37a1,1,0,0,1,2,0v5h6a1,1,0,0,1,0,2h-6v6A1,1,0,0,1,107,51ZM84,51a1,1,0,0,1-1-1V44H78a1,1,0,0,1,0-2h5V37a1,1,0,0,1,2,0v5h6a1,1,0,0,1,0,2H85v6A1,1,0,0,1,84,51ZM61,51a1,1,0,0,1-1-1V44H55a1,1,0,0,1,0-2h5V37a1,1,0,0,1,2,0v5h6a1,1,0,0,1,0,2H62v6A1,1,0,0,1,61,51ZM166,38a1,1,0,0,1-1-1V31h-5a1,1,0,0,1,0-2h5V24a1,1,0,0,1,2,0v5h6a1,1,0,0,1,0,2h-6v6A1,1,0,0,1,166,38Zm-23,0a1,1,0,0,1-1-1V31h-5a1,1,0,0,1,0-2h5V24a1,1,0,0,1,2,0v5h6a1,1,0,0,1,0,2h-6v6A1,1,0,0,1,143,38Zm-23,0a1,1,0,0,1-1-1V31h-5a1,1,0,0,1,0-2h5V24a1,1,0,0,1,2,0v5h6a1,1,0,0,1,0,2h-6v6A1,1,0,0,1,120,38ZM97,38a1,1,0,0,1-1-1V31H91a1,1,0,0,1,0-2h5V24a1,1,0,0,1,2,0v5h6a1,1,0,0,1,0,2H98v6A1,1,0,0,1,97,38ZM74,38a1,1,0,0,1-1-1V31H68a1,1,0,0,1,0-2h5V24a1,1,0,0,1,2,0v5h6a1,1,0,0,1,0,2H75v6A1,1,0,0,1,74,38ZM51,38a1,1,0,0,1-1-1V31H45a1,1,0,0,1,0-2h5V24a1,1,0,0,1,2,0v5h6a1,1,0,0,1,0,2H52v6A1,1,0,0,1,51,38ZM176,25a1,1,0,0,1-1-1V18h-5a1,1,0,0,1,0-2h5V11a1,1,0,0,1,2,0v5h6a1,1,0,0,1,0,2h-6v6A1,1,0,0,1,176,25Zm-23,0a1,1,0,0,1-1-1V18h-5a1,1,0,0,1,0-2h5V11a1,1,0,0,1,2,0v5h6a1,1,0,0,1,0,2h-6v6A1,1,0,0,1,153,25Zm-23,0a1,1,0,0,1-1-1V18h-5a1,1,0,0,1,0-2h5V11a1,1,0,0,1,2,0v5h6a1,1,0,0,1,0,2h-6v6A1,1,0,0,1,130,25Zm-23,0a1,1,0,0,1-1-1V18h-5a1,1,0,0,1,0-2h5V11a1,1,0,0,1,2,0v5h6a1,1,0,0,1,0,2h-6v6A1,1,0,0,1,107,25ZM84,25a1,1,0,0,1-1-1V18H78a1,1,0,0,1,0-2h5V11a1,1,0,0,1,2,0v5h6a1,1,0,0,1,0,2H85v6A1,1,0,0,1,84,25ZM61,25a1,1,0,0,1-1-1V18H55a1,1,0,0,1,0-2h5V11a1,1,0,0,1,2,0v5h6a1,1,0,0,1,0,2H62v6A1,1,0,0,1,61,25ZM166,15a1,1,0,0,1-1-1V8h-5a1,1,0,0,1,0-2h5V1a1,1,0,0,1,2,0V6h6a1,1,0,0,1,0,2h-6v6A1,1,0,0,1,166,15Zm-23,0a1,1,0,0,1-1-1V8h-5a1,1,0,0,1,0-2h5V1a1,1,0,0,1,2,0V6h6a1,1,0,0,1,0,2h-6v6A1,1,0,0,1,143,15Zm-23,0a1,1,0,0,1-1-1V8h-5a1,1,0,0,1,0-2h5V1a1,1,0,0,1,2,0V6h6a1,1,0,0,1,0,2h-6v6A1,1,0,0,1,120,15ZM97,15a1,1,0,0,1-1-1V8H91a1,1,0,0,1,0-2h5V1a1,1,0,0,1,2,0V6h6a1,1,0,0,1,0,2H98v6A1,1,0,0,1,97,15ZM74,15a1,1,0,0,1-1-1V8H68a1,1,0,0,1,0-2h5V1a1,1,0,0,1,2,0V6h6a1,1,0,0,1,0,2H75v6A1,1,0,0,1,74,15ZM51,15a1,1,0,0,1-1-1V8H45a1,1,0,0,1,0-2h5V1a1,1,0,0,1,2,0V6h6a1,1,0,0,1,0,2H52v6A1,1,0,0,1,51,15Z"/><rect class="cls-3" x="95" y="30" width="478" height="358" rx="7"/><path class="cls-4" d="M566,389H102a8,8,0,0,1-8-8V37a8,8,0,0,1,8-8H566a8,8,0,0,1,8,8V381A8,8,0,0,1,566,389ZM102,31a6,6,0,0,0-6,6V381a6,6,0,0,0,6,6H566a6,6,0,0,0,6-6V37a6,6,0,0,0-6-6Z"/><path class="cls-2" d="M574,59H184a5,5,0,0,1-5-5V41a3,3,0,0,0-3-3H120a3,3,0,0,0-3,3V54a5,5,0,0,1-5,5H94V57h18a3,3,0,0,0,3-3V41a5,5,0,0,1,5-5h56a5,5,0,0,1,5,5V54a3,3,0,0,0,3,3H574Z"/><path class="cls-5" d="M188,40a3,3,0,0,1,3-3h8a3,3,0,0,1,3,3v8a3,3,0,0,1-3,3h-8a3,3,0,0,1-3-3Z"/><path class="cls-4" d="M199,52h-8a4,4,0,0,1-4-4V40a4,4,0,0,1,4-4h8a4,4,0,0,1,4,4v8A4,4,0,0,1,199,52Zm-8-14a2,2,0,0,0-2,2v8a2,2,0,0,0,2,2h8a2,2,0,0,0,2-2V40a2,2,0,0,0-2-2Z"/><path class="cls-2" d="M192,43h6a1,1,0,0,1,1,1h0a1,1,0,0,1-1,1h-6a1,1,0,0,1-1-1h0A1,1,0,0,1,192,43Z"/><path class="cls-2" d="M194,47V41a1,1,0,0,1,1-1h0a1,1,0,0,1,1,1v6a1,1,0,0,1-1,1h0A1,1,0,0,1,194,47Z"/><path class="cls-5" d="M553,30h13a7,7,0,0,1,7,7v5H553Z"/><path class="cls-4" d="M574,43H552V29h14a8,8,0,0,1,8,8Zm-20-2h18V37a6,6,0,0,0-6-6H554Z"/><path class="cls-5" d="M533,30h20V42H540a7,7,0,0,1-7-7Z"/><path class="cls-4" d="M554,43H540a8,8,0,0,1-8-8V29h22ZM534,31v4a6,6,0,0,0,6,6h12V31Z"/><path class="cls-2" d="M175,96h71a7,7,0,0,1,7,7v95H175Z"/><path class="cls-4" d="M254,199H174V95h72a8,8,0,0,1,8,8Zm-78-2h76V103a6,6,0,0,0-6-6H176Z"/><path class="cls-3" d="M185,103h30a1,1,0,0,1,1,1h0a1,1,0,0,1-1,1H185a1,1,0,0,1-1-1h0A1,1,0,0,1,185,103Z"/><path class="cls-3" d="M185,109h30a1,1,0,0,1,1,1h0a1,1,0,0,1-1,1H185a1,1,0,0,1-1-1h0A1,1,0,0,1,185,109Z"/><path class="cls-3" d="M185,115h18a1,1,0,0,1,1,1h0a1,1,0,0,1-1,1H185a1,1,0,0,1-1-1h0A1,1,0,0,1,185,115Z"/><path class="cls-3" d="M233,189h10a1,1,0,0,1,1,1h0a1,1,0,0,1-1,1H233a1,1,0,0,1-1-1h0A1,1,0,0,1,233,189Z"/><path class="cls-2" d="M374,199H294V95h72a8,8,0,0,1,8,8Zm-78-2h76V103a6,6,0,0,0-6-6H296Z"/><path class="cls-2" d="M305,151h30a1,1,0,0,1,1,1h0a1,1,0,0,1-1,1H305a1,1,0,0,1-1-1h0A1,1,0,0,1,305,151Z"/><path class="cls-2" d="M305,157h30a1,1,0,0,1,1,1h0a1,1,0,0,1-1,1H305a1,1,0,0,1-1-1h0A1,1,0,0,1,305,157Z"/><path class="cls-2" d="M305,163h18a1,1,0,0,1,1,1h0a1,1,0,0,1-1,1H305a1,1,0,0,1-1-1h0A1,1,0,0,1,305,163Z"/><path class="cls-5" d="M295,240h71a7,7,0,0,1,7,7v95H295Z"/><path class="cls-4" d="M374,343H294V239h72a8,8,0,0,1,8,8Zm-78-2h76V247a6,6,0,0,0-6-6H296Z"/><path class="cls-2" d="M305,247h30a1,1,0,0,1,1,1h0a1,1,0,0,1-1,1H305a1,1,0,0,1-1-1h0A1,1,0,0,1,305,247Z"/><path class="cls-2" d="M305,253h30a1,1,0,0,1,1,1h0a1,1,0,0,1-1,1H305a1,1,0,0,1-1-1h0A1,1,0,0,1,305,253Z"/><path class="cls-2" d="M305,259h18a1,1,0,0,1,1,1h0a1,1,0,0,1-1,1H305a1,1,0,0,1-1-1h0A1,1,0,0,1,305,259Z"/><path class="cls-2" d="M353,333h10a1,1,0,0,1,1,1h0a1,1,0,0,1-1,1H353a1,1,0,0,1-1-1h0A1,1,0,0,1,353,333Z"/><path class="cls-5" d="M415,96h71a7,7,0,0,1,7,7v95H415Z"/><path class="cls-4" d="M494,199H414V95h72a8,8,0,0,1,8,8Zm-78-2h76V103a6,6,0,0,0-6-6H416Z"/><rect class="cls-2" x="416" y="146" width="78" height="2"/><path class="cls-2" d="M439,169h30a1,1,0,0,1,1,1h0a1,1,0,0,1-1,1H439a1,1,0,0,1-1-1h0A1,1,0,0,1,439,169Z"/><path class="cls-2" d="M445,175h18a1,1,0,0,1,1,1h0a1,1,0,0,1-1,1H445a1,1,0,0,1-1-1h0A1,1,0,0,1,445,175Z"/><path class="cls-2" d="M494,343H414V239h72a8,8,0,0,1,8,8Zm-78-2h76V247a6,6,0,0,0-6-6H416Z"/><path class="cls-2" d="M439,299h30a1,1,0,0,1,1,1h0a1,1,0,0,1-1,1H439a1,1,0,0,1-1-1h0A1,1,0,0,1,439,299Z"/><path class="cls-2" d="M439,305h30a1,1,0,0,1,1,1h0a1,1,0,0,1-1,1H439a1,1,0,0,1-1-1h0A1,1,0,0,1,439,305Z"/><path class="cls-2" d="M445,311h18a1,1,0,0,1,1,1h0a1,1,0,0,1-1,1H445a1,1,0,0,1-1-1h0A1,1,0,0,1,445,311Z"/><path class="cls-2" d="M454,289a10,10,0,1,1,10-10A10,10,0,0,1,454,289Zm0-18a8,8,0,1,0,8,8A8,8,0,0,0,454,271Z"/><path class="cls-2" d="M213,211a1,1,0,0,0-2,0Zm-1,81h-1a1,1,0,0,0,1,1Zm70.71.71a1,1,0,0,0,0-1.42l-6.37-6.36a1,1,0,0,0-1.41,1.41l5.66,5.66-5.66,5.66a1,1,0,0,0,1.41,1.41ZM211,211v81h2V211Zm1,82h70v-2H212Z"/><path class="cls-2" d="M266,143a1,1,0,0,0,0,2Zm16.71,1.71a1,1,0,0,0,0-1.42l-6.37-6.36a1,1,0,1,0-1.41,1.41l5.66,5.66-5.66,5.66a1,1,0,1,0,1.41,1.41ZM266,145h16v-2H266Z"/><path class="cls-2" d="M335,211a1,1,0,0,0-2,0Zm-1.71,16.71a1,1,0,0,0,1.42,0l6.36-6.37a1,1,0,1,0-1.41-1.41L334,225.59l-5.66-5.66a1,1,0,1,0-1.41,1.41ZM333,211v16h2V211Z"/><path class="cls-2" d="M386,291a1,1,0,0,0,0,2Zm16.71,1.71a1,1,0,0,0,0-1.42l-6.37-6.36a1,1,0,0,0-1.41,1.41l5.66,5.66-5.66,5.66a1,1,0,0,0,1.41,1.41ZM386,293h16v-2H386Z"/><path class="cls-2" d="M453,227a1,1,0,0,0,2,0Zm1.71-16.71a1,1,0,0,0-1.42,0l-6.36,6.37a1,1,0,1,0,1.41,1.41l5.66-5.66,5.66,5.66a1,1,0,1,0,1.41-1.41ZM455,227V211h-2v16Z"/><rect class="cls-5" x="305" y="106" width="58" height="35" rx="3"/><path class="cls-4" d="M360,142H308a4,4,0,0,1-4-4V109a4,4,0,0,1,4-4h52a4,4,0,0,1,4,4v29A4,4,0,0,1,360,142Zm-52-35a2,2,0,0,0-2,2v29a2,2,0,0,0,2,2h52a2,2,0,0,0,2-2V109a2,2,0,0,0-2-2Z"/><path class="cls-2" d="M435.5,148a1,1,0,0,1-.71-.29,1,1,0,0,1,0-1.42l17.5-17.5a1,1,0,0,1,1.42,0l7.79,7.8,15.29-15.3a1,1,0,0,1,1.42,0l15,15a1,1,0,0,1-1.42,1.42l-14.29-14.3-15.29,15.3a1,1,0,0,1-1.42,0l-7.79-7.8-16.79,16.8A1,1,0,0,1,435.5,148Z"/><circle class="cls-3" cx="461" cy="115" r="5"/><path class="cls-4" d="M461,121a6,6,0,1,1,6-6A6,6,0,0,1,461,121Zm0-10a4,4,0,1,0,4,4A4,4,0,0,0,461,111Z"/><path class="cls-5" d="M1,247a7,7,0,0,1,7-7h94a7,7,0,0,1,7,7V385a7,7,0,0,1-7,7H8a7,7,0,0,1-7-7Z"/><path class="cls-4" d="M102,393H8a8,8,0,0,1-8-8V247a8,8,0,0,1,8-8h94a8,8,0,0,1,8,8V385A8,8,0,0,1,102,393ZM8,241a6,6,0,0,0-6,6V385a6,6,0,0,0,6,6h94a6,6,0,0,0,6-6V247a6,6,0,0,0-6-6Z"/><path class="cls-3" d="M21,287a7,7,0,0,1,7-7H82a7,7,0,0,1,7,7v58a7,7,0,0,1-7,7H28a7,7,0,0,1-7-7Z"/><path class="cls-4" d="M82,353H28a8,8,0,0,1-8-8V287a8,8,0,0,1,8-8H82a8,8,0,0,1,8,8v58A8,8,0,0,1,82,353ZM28,281a6,6,0,0,0-6,6v58a6,6,0,0,0,6,6H82a6,6,0,0,0,6-6V287a6,6,0,0,0-6-6Z"/><path class="cls-2" d="M68,314.27a2,2,0,0,1,0,3.46L50,328.12a2,2,0,0,1-3-1.73V305.61a2,2,0,0,1,3-1.73Z"/><path class="cls-3" d="M75,273a7,7,0,0,1,7-7h86.69a7,7,0,0,1,4.95,2.05l3.65,3.66,3.66,3.65a7,7,0,0,1,2.05,4.95V411a7,7,0,0,1-7,7H82a7,7,0,0,1-7-7Z"/><path class="cls-4" d="M176,419H82a8,8,0,0,1-8-8V273a8,8,0,0,1,8-8h86.69a7.94,7.94,0,0,1,5.65,2.34l7.32,7.32a7.94,7.94,0,0,1,2.34,5.65V411A8,8,0,0,1,176,419ZM82,267a6,6,0,0,0-6,6V411a6,6,0,0,0,6,6h94a6,6,0,0,0,6-6V280.31a6,6,0,0,0-1.76-4.24l-7.31-7.31a5.93,5.93,0,0,0-4.24-1.76Z"/><path class="cls-2" d="M89,356h30a1,1,0,0,1,1,1h0a1,1,0,0,1-1,1H89a1,1,0,0,1-1-1h0A1,1,0,0,1,89,356Z"/><path class="cls-2" d="M89,350h30a1,1,0,0,1,1,1h0a1,1,0,0,1-1,1H89a1,1,0,0,1-1-1h0A1,1,0,0,1,89,350Z"/><path class="cls-2" d="M89,362h30a1,1,0,0,1,1,1h0a1,1,0,0,1-1,1H89a1,1,0,0,1-1-1h0A1,1,0,0,1,89,362Z"/><path class="cls-2" d="M89,368h18a1,1,0,0,1,1,1h0a1,1,0,0,1-1,1H89a1,1,0,0,1-1-1h0A1,1,0,0,1,89,368Z"/><path class="cls-2" d="M89,277h30a1,1,0,0,1,1,1h0a1,1,0,0,1-1,1H89a1,1,0,0,1-1-1h0A1,1,0,0,1,89,277Z"/><path class="cls-5" d="M169,266h1.34a3,3,0,0,1,2.12.88l4.83,4.83,4.83,4.83a3,3,0,0,1,.88,2.12V280H172a3,3,0,0,1-3-3Z"/><path class="cls-4" d="M184,281H172a4,4,0,0,1-4-4V265h2.34a4,4,0,0,1,2.83,1.17l9.66,9.66a4,4,0,0,1,1.17,2.83Zm-14-14v10a2,2,0,0,0,2,2h10v-.34a2,2,0,0,0-.58-1.42l-9.66-9.65a2,2,0,0,0-1.42-.59Z"/><rect class="cls-5" x="89" y="290" width="80" height="49" rx="3"/><path class="cls-4" d="M166,340H92a4,4,0,0,1-4-4V293a4,4,0,0,1,4-4h74a4,4,0,0,1,4,4v43A4,4,0,0,1,166,340ZM92,291a2,2,0,0,0-2,2v43a2,2,0,0,0,2,2h74a2,2,0,0,0,2-2V293a2,2,0,0,0-2-2Z"/><path class="cls-2" d="M113,340a1,1,0,0,1-.71-.29,1,1,0,0,1,0-1.42l22-22a1,1,0,0,1,1.42,0l11,11a1,1,0,1,1-1.42,1.42L135,318.41l-21.29,21.3A1,1,0,0,1,113,340Z"/><path class="cls-2" d="M143,326a1,1,0,0,1-.71-.29,1,1,0,0,1,0-1.42l26-26a1,1,0,0,1,1.42,1.42l-26,26A1,1,0,0,1,143,326Z"/><circle class="cls-3" cx="143" cy="305" r="5"/><path class="cls-4" d="M143,311a6,6,0,1,1,6-6A6,6,0,0,1,143,311Zm0-10a4,4,0,1,0,4,4A4,4,0,0,0,143,301Z"/><rect class="cls-5" x="547" y="159" width="74" height="85" rx="3"/><path class="cls-4" d="M618,245H550a4,4,0,0,1-4-4V162a4,4,0,0,1,4-4h68a4,4,0,0,1,4,4v79A4,4,0,0,1,618,245Zm-68-85a2,2,0,0,0-2,2v79a2,2,0,0,0,2,2h68a2,2,0,0,0,2-2V162a2,2,0,0,0-2-2Z"/><path class="cls-6" d="M584,145a8,8,0,0,0-8,8v3h-7.2a4.8,4.8,0,0,0-4.8,4.8,1.2,1.2,0,0,0,1.2,1.2h37.6a1.2,1.2,0,0,0,1.2-1.2,4.8,4.8,0,0,0-4.8-4.8H592v-3A8,8,0,0,0,584,145Z"/><g class="cls-7"><path class="cls-2" d="M576,156v2h2v-2Zm16,0h-2v2h2Zm-14-3a6,6,0,0,1,6-6v-4a10,10,0,0,0-10,10Zm0,3v-3h-4v3Zm-9.2,2H576v-4h-7.2Zm-2.8,2.8a2.8,2.8,0,0,1,2.8-2.8v-4a6.79,6.79,0,0,0-6.8,6.8Zm-.8-.8a.8.8,0,0,1,.8.8h-4a3.2,3.2,0,0,0,3.2,3.2Zm12.8,0H565.2v4H578Zm12,0H578v4h12Zm12.8,0H590v4h12.8Zm-.8.8a.8.8,0,0,1,.8-.8v4a3.2,3.2,0,0,0,3.2-3.2Zm-2.8-2.8a2.8,2.8,0,0,1,2.8,2.8h4a6.79,6.79,0,0,0-6.8-6.8Zm-7.2,0h7.2v-4H592Zm-2-5v3h4v-3Zm-6-6a6,6,0,0,1,6,6h4a10,10,0,0,0-10-10Z"/></g><circle class="cls-3" cx="584" cy="153" r="3"/><rect class="cls-3" x="559" y="220" width="10" height="12" rx="1"/><path class="cls-4" d="M568,233h-8a2,2,0,0,1-2-2V221a2,2,0,0,1,2-2h8a2,2,0,0,1,2,2v10A2,2,0,0,1,568,233Zm-8-12h0v10h8V221Z"/><path class="cls-2" d="M562.5,187.5a1,1,0,0,1-.71-.29l-3.5-3.5a1,1,0,0,1,1.42-1.42l2.79,2.8,7.79-7.8a1,1,0,0,1,1.42,1.42l-8.5,8.5A1,1,0,0,1,562.5,187.5Z"/><path class="cls-2" d="M562.5,209.5a1,1,0,0,1-.71-.29l-3.5-3.5a1,1,0,0,1,1.42-1.42l2.79,2.8,7.79-7.8a1,1,0,0,1,1.42,1.42l-8.5,8.5A1,1,0,0,1,562.5,209.5Z"/><path class="cls-2" d="M579,175h30a1,1,0,0,1,1,1h0a1,1,0,0,1-1,1H579a1,1,0,0,1-1-1h0A1,1,0,0,1,579,175Z"/><path class="cls-2" d="M579,197h30a1,1,0,0,1,1,1h0a1,1,0,0,1-1,1H579a1,1,0,0,1-1-1h0A1,1,0,0,1,579,197Z"/><path class="cls-2" d="M579,219h30a1,1,0,0,1,1,1h0a1,1,0,0,1-1,1H579a1,1,0,0,1-1-1h0A1,1,0,0,1,579,219Z"/><path class="cls-2" d="M579,181h30a1,1,0,0,1,1,1h0a1,1,0,0,1-1,1H579a1,1,0,0,1-1-1h0A1,1,0,0,1,579,181Z"/><path class="cls-2" d="M579,203h30a1,1,0,0,1,1,1h0a1,1,0,0,1-1,1H579a1,1,0,0,1-1-1h0A1,1,0,0,1,579,203Z"/><path class="cls-2" d="M579,225h30a1,1,0,0,1,1,1h0a1,1,0,0,1-1,1H579a1,1,0,0,1-1-1h0A1,1,0,0,1,579,225Z"/><path class="cls-2" d="M579,187h18a1,1,0,0,1,1,1h0a1,1,0,0,1-1,1H579a1,1,0,0,1-1-1h0A1,1,0,0,1,579,187Z"/><path class="cls-2" d="M579,209h18a1,1,0,0,1,1,1h0a1,1,0,0,1-1,1H579a1,1,0,0,1-1-1h0A1,1,0,0,1,579,209Z"/><path class="cls-2" d="M579,231h18a1,1,0,0,1,1,1h0a1,1,0,0,1-1,1H579a1,1,0,0,1-1-1h0A1,1,0,0,1,579,231Z"/></g></g></svg>