<svg xmlns="http://www.w3.org/2000/svg" viewBox="0 0 48 48"><defs><style>.cls-1{fill:#fff;}.cls-2{fill:#5cfbd8;}</style></defs><title>Recurso 4</title><g id="Capa_2" data-name="Capa 2"><g id="Capa_1-2" data-name="Capa 1"><path class="cls-1" d="M30,26.72V32a6,6,0,0,1-12,0V26.72a8,8,0,1,0,12,0Z"/><path class="cls-1" d="M39.32,29.18l-3.77-1.25a10.77,10.77,0,0,0-.5-1.22l1.77-3.55A1,1,0,0,0,36.63,22L34,19.37a1,1,0,0,0-1.15-.19L30,20.6v2.23l3.08-1.54,1.63,1.63c-1.75,3.52-2,3.66-1.66,4.26,1.58,2.93-.56,1.84,5,3.67v2.3c-3.74,1.24-4,1.18-4.19,1.82-1,3.17-1.57,1.16.9,6.11l-1.63,1.63c-3.52-1.75-3.66-2-4.26-1.66-2.95,1.59-1.84-.56-3.67,5H22.9c-1.24-3.74-1.18-4-1.82-4.19-3.19-1-1.08-1.61-6.11.9l-1.63-1.63c1.75-3.52,2-3.66,1.66-4.26-1.58-2.93.56-1.84-4.95-3.67V30.9c3.74-1.24,4-1.18,4.19-1.82,1-3.17,1.57-1.16-.9-6.11L15,21.34l3,1.49V20.6l-2.84-1.42a1,1,0,0,0-1.15.19L11.37,22a1,1,0,0,0-.19,1.15L13,26.71a10.77,10.77,0,0,0-.5,1.22L8.68,29.18a1,1,0,0,0-.68.94v3.76a1,1,0,0,0,.68.94l3.77,1.25a10.77,10.77,0,0,0,.5,1.22l-1.77,3.55A1,1,0,0,0,11.37,42L14,44.63a1,1,0,0,0,1.15.19l3.55-1.77c.4.19.81.35,1.22.5l1.25,3.76a1,1,0,0,0,.94.69h3.76a1,1,0,0,0,.94-.69l1.25-3.76c.41-.15.82-.31,1.22-.5l3.55,1.77A1,1,0,0,0,34,44.63L36.63,42a1,1,0,0,0,.19-1.15L35.05,37.3a10.77,10.77,0,0,0,.5-1.22l3.77-1.25a1,1,0,0,0,.68-.94V30.12A1,1,0,0,0,39.32,29.18Z"/><rect class="cls-2" width="6" height="6" rx="1"/><rect class="cls-2" x="42" width="6" height="6" rx="1"/><path class="cls-1" d="M44,21.17A19.92,19.92,0,0,0,32.71,4H40V2H26.82a3,3,0,0,0-5.64,0H8V4h7.29A19.92,19.92,0,0,0,4,21.17a3,3,0,1,0,2,0,17.9,17.9,0,0,1,15.23-17,3,3,0,0,0,5.46,0A17.9,17.9,0,0,1,42,21.2a3,3,0,1,0,2,0ZM5,25a1,1,0,1,1,1-1A1,1,0,0,1,5,25ZM25,3c.1,0-.14,1-1,1a1,1,0,1,1,1-1ZM43,25a1,1,0,1,1,1-1A1,1,0,0,1,43,25Z"/><path class="cls-2" d="M27.5,14.13a8,8,0,0,1-7,0L24,8Z"/><path class="cls-2" d="M23,16.88v19A4,4,0,0,1,20,32V16.11A10,10,0,0,0,23,16.88Z"/><path class="cls-2" d="M28,16.11V32a4,4,0,0,1-3,3.87v-19A10.11,10.11,0,0,0,28,16.11Z"/></g></g></svg>