<svg xmlns="http://www.w3.org/2000/svg" viewBox="0 0 48 48"><defs><style>.cls-1{fill:#fff;}.cls-2{fill:#5cfbd8;}</style></defs><title>Recurso 3</title><g id="Capa_2" data-name="Capa 2"><g id="Capa_1-2" data-name="Capa 1"><path class="cls-1" d="M45,0H3A3,3,0,0,0,0,3V37a3,3,0,0,0,3,3H17.72l-1.5,6H15a1,1,0,0,0,0,2H33a1,1,0,0,0,0-2H31.78l-1.5-6H45a3,3,0,0,0,3-3V3A3,3,0,0,0,45,0ZM2,10H46V32H2ZM3,2H45a1,1,0,0,1,1,1V8H2V3A1,1,0,0,1,3,2ZM29.72,46H18.28l1.5-6h8.44ZM45,38H3a1,1,0,0,1-1-1V34H46v3A1,1,0,0,1,45,38Z"/><path class="cls-2" d="M5,6A1,1,0,1,0,4,5,1,1,0,0,0,5,6Z"/><path class="cls-2" d="M9,6A1,1,0,1,0,8,5,1,1,0,0,0,9,6Z"/><path class="cls-2" d="M13,6a1,1,0,1,0-1-1A1,1,0,0,0,13,6Z"/><path class="cls-2" d="M16.06,25a8,8,0,0,0,1,3L13.6,30a11.93,11.93,0,0,1-1.55-5Z"/><path class="cls-2" d="M14.83,16.24l2.85,2.86A8,8,0,0,0,16.06,23H12A12,12,0,0,1,14.83,16.24Z"/><path class="cls-2" d="M16.24,14.83A12,12,0,0,1,23,12v4a8,8,0,0,0-3.9,1.62Z"/><path class="cls-2" d="M31.76,14.83,28.9,17.68A8,8,0,0,0,25,16.06V12A12,12,0,0,1,31.76,14.83Z"/><path class="cls-2" d="M31.94,25h4a11.93,11.93,0,0,1-1.55,5l-3.48-2A8,8,0,0,0,31.94,25Z"/><path class="cls-2" d="M31.94,23a8,8,0,0,0-1.62-3.9l2.85-2.86A12,12,0,0,1,36,23Z"/><path class="cls-1" d="M12,14H6a1,1,0,0,1,0-2h6a1,1,0,0,1,0,2Z"/><path class="cls-1" d="M10,18H6a1,1,0,0,1,0-2h4a1,1,0,0,1,0,2Z"/><path class="cls-1" d="M42,14H36a1,1,0,0,1,0-2h6a1,1,0,0,1,0,2Z"/><path class="cls-1" d="M42,18H38a1,1,0,0,1,0-2h4a1,1,0,0,1,0,2Z"/><path class="cls-1" d="M26,24.24,28,20c-7.11,3.4,1.78-.87-5.41,2.59h0a2,2,0,0,0,0,2.83,2,2,0,0,0,2.81,0h0A2,2,0,0,0,26,24.24Z"/></g></g></svg>