<svg xmlns="http://www.w3.org/2000/svg" viewBox="0 0 48 48"><defs><style>.cls-1{fill:#fff;}.cls-2{fill:#5cfbd8;}</style></defs><title>Recurso 2</title><g id="Capa_2" data-name="Capa 2"><g id="Capa_1-2" data-name="Capa 1"><path class="cls-1" d="M45,0H3A3,3,0,0,0,0,3V37a3,3,0,0,0,3,3H17.72l-1.5,6H15a1,1,0,0,0,0,2H33a1,1,0,0,0,0-2H31.78l-1.5-6H45a3,3,0,0,0,3-3V3A3,3,0,0,0,45,0ZM2,10H46V32H2ZM3,2H45a1,1,0,0,1,1,1V8H2V3A1,1,0,0,1,3,2ZM29.72,46H18.28l1.5-6h8.44ZM45,38H3a1,1,0,0,1-1-1V34H46v3A1,1,0,0,1,45,38Z"/><path class="cls-2" d="M6,5A1,1,0,1,1,5,4,1,1,0,0,1,6,5Z"/><path class="cls-2" d="M10,5A1,1,0,1,1,9,4,1,1,0,0,1,10,5Z"/><path class="cls-2" d="M14,5a1,1,0,1,1-1-1A1,1,0,0,1,14,5Z"/><path class="cls-1" d="M41,26H31a1,1,0,0,1,0-2H41a1,1,0,0,1,0,2Z"/><path class="cls-1" d="M41,30H31a1,1,0,0,1,0-2H41a1,1,0,0,1,0,2Z"/><path class="cls-2" d="M34.05,19.68l2-6a1,1,0,0,1,1.9.64l-2,6a1,1,0,1,1-1.9-.64Z"/><path class="cls-2" d="M40,20a1,1,0,0,1-1-1,1,1,0,0,1,.3-.72L40.59,17l-1.3-1.29a1,1,0,0,1,1.42-1.42l2,2a1,1,0,0,1,0,1.41h0C40.53,19.89,40.54,20,40,20Z"/><path class="cls-2" d="M32,20c-.54,0-.57-.15-2.71-2.29a1,1,0,0,1,0-1.41h0l2-2a1,1,0,0,1,1.42,1.42h0L31.41,17l1.3,1.29a1,1,0,0,1,0,1.41A1,1,0,0,1,32,20Z"/><path class="cls-2" d="M13.5,24.13a8,8,0,0,1-7,0L10,18Z"/><path class="cls-2" d="M6,26.11a10,10,0,0,0,3,.77V32H6Z"/><path class="cls-2" d="M14,26.11V32H11V26.88A10,10,0,0,0,14,26.11Z"/><path class="cls-2" d="M18,20.11a10,10,0,0,0,3,.77V32H18Z"/><path class="cls-2" d="M25.5,18.13a8,8,0,0,1-7,0L22,12Z"/><path class="cls-2" d="M26,20.11V32H23V20.88A10,10,0,0,0,26,20.11Z"/></g></g></svg>