<svg xmlns="http://www.w3.org/2000/svg" viewBox="0 0 38.04 48"><defs><style>.cls-1{fill:#5cfbd8;}.cls-2{fill:#fff;}</style></defs><title>Recurso 5</title><g id="Capa_2" data-name="Capa 2"><g id="Capa_1-2" data-name="Capa 1"><path class="cls-1" d="M35,21.91V45a3,3,0,0,1-3,3H6a3,3,0,0,1-3-3V21.91a5.6,5.6,0,0,0,2,0V43H33V21.91A5.6,5.6,0,0,0,35,21.91Z"/><path class="cls-1" d="M8,6A1,1,0,1,0,7,5,1,1,0,0,0,8,6Z"/><path class="cls-1" d="M12,6a1,1,0,1,0-1-1A1,1,0,0,0,12,6Z"/><path class="cls-1" d="M16,6a1,1,0,1,0-1-1A1,1,0,0,0,16,6Z"/><path class="cls-2" d="M35,8.76V3a3,3,0,0,0-3-3H6A3,3,0,0,0,3,3V8.76C-.42,15.65,0,14.38,0,16a4,4,0,0,0,7,2.62,4,4,0,0,0,5.64.35,3,3,0,0,0,.36-.35,4,4,0,0,0,5.64.35,3,3,0,0,0,.36-.35,4,4,0,0,0,5.64.35,3,3,0,0,0,.36-.35,4,4,0,0,0,5.64.35,3,3,0,0,0,.36-.35A4,4,0,0,0,38,16C38,14.37,38.45,15.62,35,8.76ZM4.64,10h3L6.31,14H2.64Zm5.1,0h3.1l-.67,4H8.41Zm5.13,0H18v4H14.2ZM20,10h3.15l.67,4H20Zm5.85,4-.67-4h3.1l1.33,4Zm5.87,0-1.33-4h3l2,4ZM6,2H32a1,1,0,0,1,1,1V8H5V3A1,1,0,0,1,6,2ZM4,18a2,2,0,0,1-2-2H6A2,2,0,0,1,4,18Zm6,0a2,2,0,0,1-2-2h4A2,2,0,0,1,10,18Zm6,0a2,2,0,0,1-2-2h4A2,2,0,0,1,16,18Zm6,0a2,2,0,0,1-2-2h4A2,2,0,0,1,22,18Zm6,0a2,2,0,0,1-2-2h4A2,2,0,0,1,28,18Zm6,0a2,2,0,0,1-2-2h4A2,2,0,0,1,34,18Z"/><circle class="cls-1" cx="16.02" cy="39" r="2"/><circle class="cls-1" cx="24.02" cy="39" r="2"/><polygon class="cls-1" points="27.02 26 25.52 32 17.52 32 16.43 26 27.02 26"/><path class="cls-2" d="M25,36H15a1,1,0,0,1-1-.82L12.19,25H10a1,1,0,1,1,0-2h3a1,1,0,0,1,1,.82L15.85,34H25a1,1,0,0,1,0,2Z"/></g></g></svg>