<svg xmlns="http://www.w3.org/2000/svg" viewBox="0 0 48 48"><defs><style>.cls-1{fill:#5cfbd8;}.cls-2{fill:#fff;}</style></defs><title>Recurso 6</title><g id="Capa_2" data-name="Capa 2"><g id="Capa_1-2" data-name="Capa 1"><path class="cls-1" d="M39,32.13V34H31a7,7,0,0,0-14,0H9V32.13l4.24-1.41a12.92,12.92,0,0,1,.82-2l-2-4,2.64-2.64,4,2a12.92,12.92,0,0,1,2-.82L22.12,19h3.76l1.4,4.24a12.92,12.92,0,0,1,2,.82l4-2,2.64,2.64-2,4a12.92,12.92,0,0,1,.82,2Z"/><path class="cls-2" d="M45,0H3A3,3,0,0,0,0,3V37a3,3,0,0,0,3,3H17.72l-1.5,6H15a1,1,0,0,0,0,2H33a1,1,0,0,0,0-2H31.78l-1.5-6H45a3,3,0,0,0,3-3V3A3,3,0,0,0,45,0ZM2,10H46V32H2ZM3,2H45a1,1,0,0,1,1,1V8H2V3A1,1,0,0,1,3,2ZM29.72,46H18.28l1.5-6h8.44ZM45,38H3a1,1,0,0,1-1-1V34H46v3A1,1,0,0,1,45,38Z"/><path class="cls-1" d="M6,5A1,1,0,1,1,5,4,1,1,0,0,1,6,5Z"/><path class="cls-1" d="M10,5A1,1,0,1,1,9,4,1,1,0,0,1,10,5Z"/><path class="cls-1" d="M14,5a1,1,0,1,1-1-1A1,1,0,0,1,14,5Z"/><path class="cls-2" d="M16,15H6a1,1,0,0,1,0-2H16a1,1,0,0,1,0,2Z"/><path class="cls-2" d="M16,19H6a1,1,0,0,1,0-2H16a1,1,0,0,1,0,2Z"/><path class="cls-1" d="M34.05,18.68l2-6a1,1,0,0,1,1.9.64h0l-2,6a1,1,0,1,1-1.9-.64Z"/><path class="cls-1" d="M40,19a1,1,0,0,1-1-1,1,1,0,0,1,.3-.72L40.59,16l-1.3-1.29a1,1,0,0,1,1.42-1.42l2,2a1,1,0,0,1,0,1.41h0C40.53,18.89,40.54,19,40,19Z"/><path class="cls-1" d="M32,19c-.54,0-.57-.15-2.71-2.29a1,1,0,0,1,0-1.41h0l2-2a1,1,0,0,1,1.42,1.42L31.41,16l1.3,1.29a1,1,0,0,1,0,1.41A1,1,0,0,1,32,19Z"/></g></g></svg>