<svg xmlns="http://www.w3.org/2000/svg" xmlns:xlink="http://www.w3.org/1999/xlink" viewBox="0 0 710.71 423.71"><defs><style>.cls-1,.cls-4{fill:#fff;}.cls-1{stroke:#0019ff;stroke-width:2px;}.cls-2{mask:url(#mask);}.cls-3{fill:#0019ff;}.cls-5{fill:#bbffef;}.cls-6{fill:#5cfbd8;}</style><mask id="mask" x="0" y="0" width="277.41" height="277.41" maskUnits="userSpaceOnUse"><g id="mask0"><path class="cls-1" d="M127.71,122.21c-14,54.5,86.1,41.2,93.5,19,10.5-31.5-5.73-33.45,29.5-60,32.5-24.5,5.5-62.5,3-66-16.25-22.75-45,6-62.5-2.5s-67.38-9.8-67.38,26c0,14-9.5,25-11,38.5C109.54,106.77,133.67,99,127.71,122.21Z"/></g></mask></defs><title>Recurso 7</title><g id="Capa_2" data-name="Capa 2"><g id="Capa_1-2" data-name="Capa 1"><g class="cls-2"><rect class="cls-3" x="88.4" y="77.71" width="220.62" height="2" transform="translate(2.55 163.56) rotate(-45)"/><rect class="cls-3" x="78.4" y="77.71" width="220.62" height="2" transform="translate(-0.38 156.49) rotate(-45)"/><rect class="cls-3" x="88.4" y="87.71" width="220.62" height="2" transform="translate(-4.53 166.49) rotate(-45)"/><rect class="cls-3" x="88.4" y="97.71" width="220.62" height="2" transform="translate(-11.6 169.42) rotate(-45)"/><rect class="cls-3" x="88.4" y="107.71" width="220.62" height="2" transform="translate(-18.67 172.35) rotate(-45)"/><rect class="cls-3" x="88.4" y="117.71" width="220.62" height="2" transform="translate(-25.74 175.28) rotate(-45)"/><rect class="cls-3" x="88.4" y="127.71" width="220.62" height="2" transform="translate(-32.81 178.2) rotate(-45)"/><rect class="cls-3" x="88.4" y="137.71" width="220.62" height="2" transform="translate(-39.88 181.13) rotate(-45)"/><rect class="cls-3" x="88.4" y="147.71" width="220.62" height="2" transform="translate(-46.95 184.06) rotate(-45)"/><rect class="cls-3" x="88.4" y="157.71" width="220.62" height="2" transform="translate(-54.02 186.99) rotate(-45)"/><rect class="cls-3" x="88.4" y="167.71" width="220.62" height="2" transform="translate(-61.09 189.92) rotate(-45)"/><rect class="cls-3" x="88.4" y="177.71" width="220.62" height="2" transform="translate(-68.17 192.85) rotate(-45)"/><rect class="cls-3" x="88.4" y="187.71" width="220.62" height="2" transform="translate(-75.24 195.78) rotate(-45)"/><rect class="cls-3" x="88.4" y="197.71" width="220.62" height="2" transform="translate(-82.31 198.71) rotate(-45)"/><rect class="cls-3" x="68.4" y="77.71" width="220.62" height="2" transform="translate(-3.31 149.42) rotate(-45)"/><rect class="cls-3" x="58.4" y="77.71" width="220.62" height="2" transform="translate(-6.24 142.35) rotate(-45)"/><rect class="cls-3" x="48.4" y="77.71" width="220.62" height="2" transform="translate(-9.17 135.28) rotate(-45)"/><rect class="cls-3" x="38.4" y="77.71" width="220.62" height="2" transform="translate(-12.1 128.2) rotate(-45)"/><rect class="cls-3" x="28.4" y="77.71" width="220.62" height="2" transform="translate(-15.03 121.13) rotate(-45)"/><rect class="cls-3" x="18.4" y="77.71" width="220.62" height="2" transform="translate(-17.96 114.06) rotate(-45)"/><rect class="cls-3" x="8.4" y="77.71" width="220.62" height="2" transform="translate(-20.89 106.99) rotate(-45)"/><rect class="cls-3" x="-1.6" y="77.71" width="220.62" height="2" transform="translate(-23.81 99.92) rotate(-45)"/><rect class="cls-3" x="-11.6" y="77.71" width="220.62" height="2" transform="translate(-26.74 92.85) rotate(-45)"/><rect class="cls-3" x="-21.6" y="77.71" width="220.62" height="2" transform="translate(-29.67 85.78) rotate(-45)"/><rect class="cls-3" x="-31.6" y="77.71" width="220.62" height="2" transform="translate(-32.6 78.71) rotate(-45)"/></g><rect class="cls-4" x="171.71" y="45.71" width="478" height="358" rx="7"/><path class="cls-3" d="M642.71,404.71h-464a8,8,0,0,1-8-8v-344a8,8,0,0,1,8-8h464a8,8,0,0,1,8,8v344A8,8,0,0,1,642.71,404.71Zm-464-358a6,6,0,0,0-6,6v344a6,6,0,0,0,6,6h464a6,6,0,0,0,6-6v-344a6,6,0,0,0-6-6Z"/><path class="cls-5" d="M171.71,395.71h478v1a7,7,0,0,1-7,7h-464a7,7,0,0,1-7-7Z"/><path class="cls-3" d="M642.71,404.71h-464a8,8,0,0,1-8-8v-2h480v2A8,8,0,0,1,642.71,404.71Zm-470-8a6,6,0,0,0,6,6h464a6,6,0,0,0,6-6Z"/><path class="cls-4" d="M171.71,52.71a7,7,0,0,1,7-7h464a7,7,0,0,1,7,7v21h-478Z"/><path class="cls-3" d="M650.71,74.71h-480v-22a8,8,0,0,1,8-8h464a8,8,0,0,1,8,8Zm-478-2h476v-20a6,6,0,0,0-6-6h-464a6,6,0,0,0-6,6Z"/><circle class="cls-6" cx="216.71" cy="59.71" r="4"/><path d="M216.71,56.71a3,3,0,1,1-3,3,3,3,0,0,1,3-3m0-1a4,4,0,1,0,4,4,4,4,0,0,0-4-4Z"/><circle class="cls-6" cx="200.71" cy="59.71" r="4"/><path d="M200.71,56.71a3,3,0,1,1-3,3,3,3,0,0,1,3-3m0-1a4,4,0,1,0,4,4,4,4,0,0,0-4-4Z"/><circle class="cls-6" cx="184.71" cy="59.71" r="4"/><path d="M184.71,56.71a3,3,0,1,1-3,3,3,3,0,0,1,3-3m0-1a4,4,0,1,0,4,4,4,4,0,0,0-4-4Z"/><path class="cls-5" d="M631.71,58.71a3,3,0,0,1,3-3h15v18h-18Z"/><path class="cls-3" d="M650.71,74.71h-20v-16a4,4,0,0,1,4-4h16Zm-18-2h16v-16h-14a2,2,0,0,0-2,2Z"/><path class="cls-6" d="M637.71,63.71h6a1,1,0,0,1,1,1h0a1,1,0,0,1-1,1h-6a1,1,0,0,1-1-1h0A1,1,0,0,1,637.71,63.71Z"/><path d="M643.71,63.71h-6a1,1,0,0,0,0,2h6a1,1,0,1,0,0-2Z"/><path class="cls-6" d="M639.71,67.71v-6a1,1,0,0,1,1-1h0a1,1,0,0,1,1,1v6a1,1,0,0,1-1,1h0A1,1,0,0,1,639.71,67.71Z"/><path d="M640.71,61.71v0h0m0-1a1,1,0,0,0-1,1v6a1,1,0,1,0,2,0v-6a1,1,0,0,0-1-1Z"/><path class="cls-6" d="M237.66,54.41a1,1,0,0,1,1.41,0,1,1,0,0,1,0,1.42l-4.95,5-1.41-1.42Z"/><path d="M238.36,55.12l-4.23,4.24,4.23-4.24h0m0-1a1,1,0,0,0-.7.29l-4.95,5,1.41,1.42,4.95-5a1,1,0,0,0-.71-1.71Z"/><path class="cls-6" d="M239.07,62.9a1,1,0,1,1-1.41,1.41l-4.95-5L234.12,58Z"/><path d="M234.12,58l-1.41,1.41,4.95,5a1,1,0,0,0,1.41,0,1,1,0,0,0,0-1.41L234.12,58Z"/><path class="cls-6" d="M254.07,64.31a1,1,0,0,1-1.41-1.41l5-4.95L259,59.36Z"/><path d="M257.61,59.36h0l-4.25,4.25,4.25-4.25m0-1.41-5,4.95a1,1,0,0,0,0,1.41,1,1,0,0,0,1.41,0l4.95-5L257.61,58Z"/><path class="cls-6" d="M252.66,55.83a1,1,0,0,1,0-1.42,1,1,0,0,1,1.41,0l4.95,5-1.41,1.42Z"/><path d="M253.36,55.12l4.25,4.24h0l-4.25-4.24h0m0-1a1,1,0,0,0-.7,1.71l5,5L259,59.36l-4.95-5a1,1,0,0,0-.71-.29Z"/><path class="cls-5" d="M255.71,163.71a3,3,0,0,1,3-3h22a3,3,0,0,1,3,3v22a3,3,0,0,1-3,3h-22a3,3,0,0,1-3-3Z"/><path class="cls-3" d="M280.71,189.71h-22a4,4,0,0,1-4-4v-22a4,4,0,0,1,4-4h22a4,4,0,0,1,4,4v22A4,4,0,0,1,280.71,189.71Zm-22-28a2,2,0,0,0-2,2v22a2,2,0,0,0,2,2h22a2,2,0,0,0,2-2v-22a2,2,0,0,0-2-2Z"/><path class="cls-6" d="M219.71,163.71a3,3,0,0,1,3-3h22a3,3,0,0,1,3,3v22a3,3,0,0,1-3,3h-22a3,3,0,0,1-3-3Z"/><path d="M244.71,161.71a2,2,0,0,1,2,2v22a2,2,0,0,1-2,2h-22a2,2,0,0,1-2-2v-22a2,2,0,0,1,2-2h22m0-1h-22a3,3,0,0,0-3,3v22a3,3,0,0,0,3,3h22a3,3,0,0,0,3-3v-22a3,3,0,0,0-3-3Z"/><path class="cls-4" d="M230.71,180.71a1,1,0,0,1-.71-.3l-4-4a1,1,0,1,1,1.41-1.41l3.3,3.29L240,169a1,1,0,0,1,1.41,1.41l-10,10A1,1,0,0,1,230.71,180.71Z"/><path class="cls-6" d="M219.71,125.71h30a1,1,0,0,1,1,1h0a1,1,0,0,1-1,1h-30a1,1,0,0,1-1-1h0A1,1,0,0,1,219.71,125.71Z"/><path d="M249.71,125.71h-30a1,1,0,0,0,0,2h30a1,1,0,0,0,0-2Z"/><path class="cls-6" d="M219.71,131.71h30a1,1,0,0,1,1,1h0a1,1,0,0,1-1,1h-30a1,1,0,0,1-1-1h0A1,1,0,0,1,219.71,131.71Z"/><path d="M249.71,131.71h-30a1,1,0,0,0,0,2h30a1,1,0,0,0,0-2Z"/><path class="cls-6" d="M219.71,137.71h18a1,1,0,0,1,1,1h0a1,1,0,0,1-1,1h-18a1,1,0,0,1-1-1h0A1,1,0,0,1,219.71,137.71Z"/><path d="M237.71,137.71h-18a1,1,0,0,0,0,2h18a1,1,0,0,0,0-2Z"/><path class="cls-5" d="M330.71,307.71h50a14,14,0,0,1,14,14h0a14,14,0,0,1-14,14h-50a14,14,0,0,1-14-14h0A14,14,0,0,1,330.71,307.71Z"/><path class="cls-3" d="M380.71,336.71h-50a15,15,0,0,1,0-30h50a15,15,0,0,1,0,30Zm-50-28a13,13,0,0,0,0,26h50a13,13,0,0,0,0-26Z"/><path class="cls-6" d="M340.71,320.71h30a1,1,0,0,1,1,1h0a1,1,0,0,1-1,1h-30a1,1,0,0,1-1-1h0A1,1,0,0,1,340.71,320.71Z"/><path d="M370.71,320.71h-30a1,1,0,0,0,0,2h30a1,1,0,0,0,0-2Z"/><path class="cls-6" d="M420.71,307.71h50a14,14,0,0,1,14,14h0a14,14,0,0,1-14,14h-50a14,14,0,0,1-14-14h0A14,14,0,0,1,420.71,307.71Z"/><path d="M470.71,308.71a13,13,0,0,1,0,26h-50a13,13,0,0,1,0-26h50m0-1h-50a14,14,0,0,0,0,28h50a14,14,0,0,0,0-28Z"/><path class="cls-4" d="M430.71,320.71h30a1,1,0,0,1,1,1h0a1,1,0,0,1-1,1h-30a1,1,0,0,1-1-1h0A1,1,0,0,1,430.71,320.71Z"/><rect class="cls-4" x="316.71" y="126.71" width="188" height="28" rx="3"/><path class="cls-3" d="M501.71,155.71h-182a4,4,0,0,1-4-4v-22a4,4,0,0,1,4-4h182a4,4,0,0,1,4,4v22A4,4,0,0,1,501.71,155.71Zm-182-28a2,2,0,0,0-2,2v22a2,2,0,0,0,2,2h182a2,2,0,0,0,2-2v-22a2,2,0,0,0-2-2Z"/><rect class="cls-4" x="316.71" y="158.71" width="188" height="28" rx="3"/><path class="cls-3" d="M501.71,187.71h-182a4,4,0,0,1-4-4v-22a4,4,0,0,1,4-4h182a4,4,0,0,1,4,4v22A4,4,0,0,1,501.71,187.71Zm-182-28a2,2,0,0,0-2,2v22a2,2,0,0,0,2,2h182a2,2,0,0,0,2-2v-22a2,2,0,0,0-2-2Z"/><rect class="cls-5" x="316.71" y="186.71" width="188" height="28" rx="3"/><path class="cls-3" d="M501.71,215.71h-182a4,4,0,0,1-4-4v-22a4,4,0,0,1,4-4h182a4,4,0,0,1,4,4v22A4,4,0,0,1,501.71,215.71Zm-182-28a2,2,0,0,0-2,2v22a2,2,0,0,0,2,2h182a2,2,0,0,0,2-2v-22a2,2,0,0,0-2-2Z"/><rect class="cls-4" x="316.71" y="214.71" width="188" height="28" rx="3"/><path class="cls-3" d="M501.71,243.71h-182a4,4,0,0,1-4-4v-22a4,4,0,0,1,4-4h182a4,4,0,0,1,4,4v22A4,4,0,0,1,501.71,243.71Zm-182-28a2,2,0,0,0-2,2v22a2,2,0,0,0,2,2h182a2,2,0,0,0,2-2v-22a2,2,0,0,0-2-2Z"/><path class="cls-6" d="M336.71,171.71h30a1,1,0,0,1,1,1h0a1,1,0,0,1-1,1h-30a1,1,0,0,1-1-1h0A1,1,0,0,1,336.71,171.71Z"/><path d="M366.71,171.71h-30a1,1,0,0,0,0,2h30a1,1,0,0,0,0-2Z"/><path class="cls-6" d="M336.71,199.71h30a1,1,0,0,1,1,1h0a1,1,0,0,1-1,1h-30a1,1,0,0,1-1-1h0A1,1,0,0,1,336.71,199.71Z"/><path d="M366.71,199.71h-30a1,1,0,0,0,0,2h30a1,1,0,0,0,0-2Z"/><path class="cls-6" d="M336.71,227.71h30a1,1,0,0,1,1,1h0a1,1,0,0,1-1,1h-30a1,1,0,0,1-1-1h0A1,1,0,0,1,336.71,227.71Z"/><path d="M366.71,227.71h-30a1,1,0,0,0,0,2h30a1,1,0,0,0,0-2Z"/><path class="cls-4" d="M476.71,126.71h25a3,3,0,0,1,3,3v22a3,3,0,0,1-3,3h-25Z"/><path class="cls-3" d="M501.71,155.71h-26v-30h26a4,4,0,0,1,4,4v22A4,4,0,0,1,501.71,155.71Zm-24-2h24a2,2,0,0,0,2-2v-22a2,2,0,0,0-2-2h-24Z"/><path class="cls-6" d="M485.41,140.07a1,1,0,0,1,0-1.41,1,1,0,0,1,1.42,0l4.95,5L490.36,145Z"/><path d="M486.12,139.36h0m0-1a1,1,0,0,0-.71.3,1,1,0,0,0,0,1.41l4.95,5,1.42-1.41-4.95-5a1,1,0,0,0-.71-.3Z"/><path class="cls-6" d="M493.9,138.66a1,1,0,1,1,1.41,1.41l-4.95,5L489,143.61Z"/><path d="M494.61,139.36h0l-3.49,3.49,3.49-3.49h0m0-1a1,1,0,0,0-.71.3l-4.95,5,1.41,1.41,4.95-5a1,1,0,0,0,0-1.41,1,1,0,0,0-.7-.3Z"/><path class="cls-5" d="M379.71,268.71h182a3,3,0,0,1,3,3h0a3,3,0,0,1-3,3h-182a3,3,0,0,1-3-3h0A3,3,0,0,1,379.71,268.71Z"/><path class="cls-3" d="M561.71,275.71h-182a4,4,0,0,1,0-8h182a4,4,0,0,1,0,8Zm-182-6a2,2,0,0,0,0,4h182a2,2,0,0,0,0-4Z"/><path class="cls-6" d="M379.71,267.71h82a4,4,0,0,1,4,4h0a4,4,0,0,1-4,4h-82a4,4,0,0,1-4-4h0A4,4,0,0,1,379.71,267.71Z"/><path d="M461.71,268.71a3,3,0,0,1,0,6h-82a3,3,0,0,1,0-6h82m0-1h-82a4,4,0,0,0,0,8h82a4,4,0,0,0,0-8Z"/><circle class="cls-4" cx="465.71" cy="271.71" r="7"/><path class="cls-3" d="M465.71,279.71a8,8,0,1,1,8-8A8,8,0,0,1,465.71,279.71Zm0-14a6,6,0,1,0,6,6A6,6,0,0,0,465.71,265.71Z"/><rect class="cls-5" x="91.71" y="252.71" width="158" height="154" rx="7"/><path class="cls-3" d="M242.71,407.71h-144a8,8,0,0,1-8-8v-140a8,8,0,0,1,8-8h144a8,8,0,0,1,8,8v140A8,8,0,0,1,242.71,407.71Zm-144-154a6,6,0,0,0-6,6v140a6,6,0,0,0,6,6h144a6,6,0,0,0,6-6v-140a6,6,0,0,0-6-6Z"/><rect class="cls-6" x="81.71" y="260.71" width="178" height="154" rx="7"/><path d="M252.71,261.71a6,6,0,0,1,6,6v140a6,6,0,0,1-6,6h-164a6,6,0,0,1-6-6v-140a6,6,0,0,1,6-6h164m0-1h-164a7,7,0,0,0-7,7v140a7,7,0,0,0,7,7h164a7,7,0,0,0,7-7v-140a7,7,0,0,0-7-7Z"/><rect class="cls-4" x="71.71" y="268.71" width="198" height="154" rx="7"/><path class="cls-3" d="M262.71,423.71h-184a8,8,0,0,1-8-8v-140a8,8,0,0,1,8-8h184a8,8,0,0,1,8,8v140A8,8,0,0,1,262.71,423.71Zm-184-154a6,6,0,0,0-6,6v140a6,6,0,0,0,6,6h184a6,6,0,0,0,6-6v-140a6,6,0,0,0-6-6Z"/><circle class="cls-6" cx="247.71" cy="290.71" r="3"/><path d="M247.71,288.71a2,2,0,1,1-2,2,2,2,0,0,1,2-2m0-1a3,3,0,1,0,3,3,3,3,0,0,0-3-3Z"/><circle class="cls-6" cx="235.71" cy="290.71" r="3"/><path d="M235.71,288.71a2,2,0,1,1-2,2,2,2,0,0,1,2-2m0-1a3,3,0,1,0,3,3,3,3,0,0,0-3-3Z"/><circle class="cls-6" cx="223.71" cy="290.71" r="3"/><path d="M223.71,288.71a2,2,0,1,1-2,2,2,2,0,0,1,2-2m0-1a3,3,0,1,0,3,3,3,3,0,0,0-3-3Z"/><rect class="cls-5" x="91.71" y="288.71" width="68" height="78" rx="7"/><path class="cls-3" d="M152.71,367.71h-54a8,8,0,0,1-8-8v-64a8,8,0,0,1,8-8h54a8,8,0,0,1,8,8v64A8,8,0,0,1,152.71,367.71Zm-54-78a6,6,0,0,0-6,6v64a6,6,0,0,0,6,6h54a6,6,0,0,0,6-6v-64a6,6,0,0,0-6-6Z"/><path class="cls-3" d="M92.21,357.21a1,1,0,0,1-.71-1.71L121,326a1,1,0,0,1,1.41,0l11,11a1,1,0,1,1-1.41,1.41l-10.29-10.29-28.8,28.79A1,1,0,0,1,92.21,357.21Z"/><path class="cls-3" d="M129.71,335.71A1,1,0,0,1,129,334l30-30a1,1,0,0,1,1.41,1.41l-30,30A1,1,0,0,1,129.71,335.71Z"/><circle class="cls-4" cx="129.21" cy="309.21" r="6.5"/><path class="cls-3" d="M129.21,316.71a7.5,7.5,0,1,1,7.5-7.5A7.51,7.51,0,0,1,129.21,316.71Zm0-13a5.5,5.5,0,1,0,5.5,5.5A5.5,5.5,0,0,0,129.21,303.71Z"/><path class="cls-6" d="M91.71,387.71h30a1,1,0,0,1,1,1h0a1,1,0,0,1-1,1h-30a1,1,0,0,1-1-1h0A1,1,0,0,1,91.71,387.71Z"/><path d="M121.71,387.71h-30a1,1,0,1,0,0,2h30a1,1,0,0,0,0-2Z"/><path class="cls-6" d="M91.71,393.71h18a1,1,0,0,1,1,1h0a1,1,0,0,1-1,1h-18a1,1,0,0,1-1-1h0A1,1,0,0,1,91.71,393.71Z"/><path d="M109.71,393.71h-18a1,1,0,1,0,0,2h18a1,1,0,0,0,0-2Z"/><path class="cls-5" d="M630.71,169.71h60a19,19,0,0,1,19,19h0a19,19,0,0,1-19,19h-60a19,19,0,0,1-19-19h0A19,19,0,0,1,630.71,169.71Z"/><path class="cls-3" d="M690.71,208.71h-60a20,20,0,0,1,0-40h60a20,20,0,0,1,0,40Zm-60-38a18,18,0,0,0,0,36h60a18,18,0,0,0,0-36Z"/><path class="cls-4" d="M690.71,173.71h0a15,15,0,0,1,15,15h0a15,15,0,0,1-15,15h0a15,15,0,0,1-15-15h0A15,15,0,0,1,690.71,173.71Z"/><path class="cls-3" d="M690.71,204.71a16,16,0,1,1,16-16A16,16,0,0,1,690.71,204.71Zm0-30a14,14,0,1,0,14,14A14,14,0,0,0,690.71,174.71Z"/><path class="cls-5" d="M630.71,214.71h60a19,19,0,0,1,19,19h0a19,19,0,0,1-19,19h-60a19,19,0,0,1-19-19h0A19,19,0,0,1,630.71,214.71Z"/><path class="cls-3" d="M690.71,253.71h-60a20,20,0,0,1,0-40h60a20,20,0,0,1,0,40Zm-60-38a18,18,0,0,0,0,36h60a18,18,0,0,0,0-36Z"/><path class="cls-6" d="M630.71,218.71h0a15,15,0,0,1,15,15h0a15,15,0,0,1-15,15h0a15,15,0,0,1-15-15h0A15,15,0,0,1,630.71,218.71Z"/><path d="M630.71,219.71a14,14,0,1,1-14,14,14,14,0,0,1,14-14m0-1a15,15,0,1,0,15,15,15,15,0,0,0-15-15Z"/><path class="cls-4" d="M628.71,227.71v12a1,1,0,0,1-1,1h0a1,1,0,0,1-1-1v-12a1,1,0,0,1,1-1h0A1,1,0,0,1,628.71,227.71Z"/><path class="cls-4" d="M634.71,227.71v12a1,1,0,0,1-1,1h0a1,1,0,0,1-1-1v-12a1,1,0,0,1,1-1h0A1,1,0,0,1,634.71,227.71Z"/><path class="cls-6" d="M688.71,182.71v12a1,1,0,0,1-1,1h0a1,1,0,0,1-1-1v-12a1,1,0,0,1,1-1h0A1,1,0,0,1,688.71,182.71Z"/><path d="M687.71,182.71v0h0m0-1a1,1,0,0,0-1,1v12a1,1,0,1,0,2,0v-12a1,1,0,0,0-1-1Z"/><path class="cls-6" d="M694.71,182.71v12a1,1,0,0,1-1,1h0a1,1,0,0,1-1-1v-12a1,1,0,0,1,1-1h0A1,1,0,0,1,694.71,182.71Z"/><path d="M693.71,182.71v0h0m0-1a1,1,0,0,0-1,1v12a1,1,0,1,0,2,0v-12a1,1,0,0,0-1-1Z"/></g></g></svg>