<svg xmlns="http://www.w3.org/2000/svg" xmlns:xlink="http://www.w3.org/1999/xlink" viewBox="0 0 1011.02 754.21"><defs><style>.cls-1{fill:none;}.cls-2{opacity:0.5;}.cls-3{clip-path:url(#clip-path);}.cls-4{fill:#f1f7fc;}.cls-5{fill:#fff;}.cls-6{fill:#0f3dfb;}.cls-7{fill:#5cfbd8;}</style><clipPath id="clip-path"><rect class="cls-1" x="0.12" width="1010.91" height="754.22"/></clipPath></defs><title>servicios001</title><g id="Capa_2" data-name="Capa 2"><g id="Capa_1-2" data-name="Capa 1"><g class="cls-2"><g class="cls-3"><path class="cls-4" d="M932.81,430.75c52.86-81.84,51-188.15-6.7-266.68-30.26-41.23-76.34-75.52-146.5-83.66C578.14,57,531.71,336.26,341,354.86S-35.47,346.59,5.81,536.12,451.48,757.86,646.89,693.61c124.91-41.08,227.88-173,285.92-262.86Z"/><path class="cls-4" d="M171,337.39c45.79,9.9,128.14,10.71,245.32-53,189.56-103,138-268.15,49.92-283.28-81.33-14-382.34,104.67-352.4,276.81A73.86,73.86,0,0,0,171,337.39Z"/><path class="cls-4" d="M1002.25,539.45c-22.24-35.53-73.63-37.22-99.07-3.91-39.25,51.4-119.09,139.4-229,177.71-16.18,5.64-15.3,28.73,1.27,33.09,38.12,10,96.74,14.83,169.77-12.94,102.87-39.11,195.11-133.08,157-193.95Z"/></g></g><path class="cls-5" d="M186.47,280.5A14.53,14.53,0,1,1,171.94,266a14.52,14.52,0,0,1,14.53,14.52Z"/><path class="cls-6" d="M171.94,268.27a12.23,12.23,0,1,0,12.24,12.23,12.25,12.25,0,0,0-12.24-12.23Zm0,29.05a16.82,16.82,0,1,1,16.82-16.82,16.84,16.84,0,0,1-16.82,16.82Z"/><path class="cls-5" d="M837.2,190.7a30.77,30.77,0,1,1-30.77-30.77A30.77,30.77,0,0,1,837.2,190.7Z"/><path class="cls-6" d="M806.43,219.73a29,29,0,1,1,29-29,29.06,29.06,0,0,1-29,29Zm0-61.54A32.51,32.51,0,1,0,839,190.7a32.55,32.55,0,0,0-32.52-32.51Z"/><path class="cls-6" d="M798.75,198a2.09,2.09,0,0,0,3,3,6.69,6.69,0,0,1,9.44,0,2.09,2.09,0,0,0,3-3,10.88,10.88,0,0,0-15.36,0Z"/><path class="cls-6" d="M792.52,191.79a2.09,2.09,0,0,0,3,3,15.5,15.5,0,0,1,21.9,0,2.09,2.09,0,0,0,3-3,19.69,19.69,0,0,0-27.82,0Z"/><path class="cls-6" d="M787.44,185.71a2.09,2.09,0,0,0,3,3,22.71,22.71,0,0,1,32.07,0,2.08,2.08,0,0,0,3,0,2.11,2.11,0,0,0,0-3,26.9,26.9,0,0,0-38,0Z"/><path class="cls-6" d="M806.6,202.19a3.14,3.14,0,1,0,3.14,3.13,3.13,3.13,0,0,0-3.14-3.13Z"/><path class="cls-6" d="M390.42,134.36h-35a6.06,6.06,0,0,1-6.06-6.06v-35a6.06,6.06,0,0,1,6.06-6.06h35a6.06,6.06,0,0,1,6.06,6.06v35a6.06,6.06,0,0,1-6.06,6.06Z"/><path class="cls-5" d="M371.25,121a2.27,2.27,0,0,1-1.33-.43l-11.33-8.09a2.3,2.3,0,0,1,2.67-3.74l9.84,7L388,100.8a2.3,2.3,0,1,1,3,3.44l-18.21,16.13a2.34,2.34,0,0,1-1.53.58Z"/><path class="cls-5" d="M707.84,607.9c1.49-1.29,2.38-3.11,3.44-4.77,4.9-7.7,13.52-12.26,22.25-14.93s17.86-3.8,26.58-6.49c3.95-1.22,8.36-3.34,8.78-7.7a7.52,7.52,0,0,0-2.26-5.88c-2.71-2.77-6.54-3.63-10.26-4.09a62.83,62.83,0,0,0-20.65.89c-3.36.71-6.87,1.83-8.61,5.08a5,5,0,0,0,.25,5.3c1.89,2.53,5.4,2,8.27,1.27,9.92-2.58,19.77-6.18,28-12.37s14.59-15.24,15.84-25.42c.46-3.74.18-7.71-1.66-11-2.2-4-6.43-6.5-10.84-7.52s-9-.67-13.51,0c-17.78,2.68-35.6,11.42-44.65,27-2.41,4.15-4.17,9.18-2.57,13.7a1.52,1.52,0,0,0,2.12,1.2c4.88-1,8.47-5.2,11.37-9.21a91,91,0,0,0,12.73-24.85c2.1-6.38,3.63-13.33,2.05-19.89a5.19,5.19,0,0,0-1.72-3.16c-1.46-1-3.57-.58-5.15-.09a24.67,24.67,0,0,0-5.11,2.23c-15.92,9.24-26.68,25.78-31.32,43.53-3.11,11.91-3.25,19.82-1.8,29.42a2.89,2.89,0,0,0,5.73,0c2.07-14.05,1.31-34.54-19.33-38.73-32-6.51,11.45,63.39,11.45,63.39l20.63,3.13Z"/><path class="cls-6" d="M729,530.87a88.8,88.8,0,0,1-11.16,20.71c-2.53,3.49-5.64,7.17-9.6,8.22-1.15-3.86.71-8.31,2.51-11.4A48.82,48.82,0,0,1,729,530.87Zm27.17,35.45a87.7,87.7,0,0,1-21.11,8c-3.21.83-5,.7-5.85-.42a2.65,2.65,0,0,1-.07-2.85c1.28-2.4,4.15-3.3,7.06-3.91a59.94,59.94,0,0,1,12.51-1.32,59.12,59.12,0,0,1,7.39.46Zm6-3.94-.49.37a32.49,32.49,0,0,0-5.06-1,64.7,64.7,0,0,0-21.41.93c-3.8.8-8,2.18-10.16,6.23a7.28,7.28,0,0,0,.45,7.77c3.05,4.09,8.59,2.65,10.67,2.11,10.93-2.84,19.34-6.34,26.17-10.91a9,9,0,0,1,2.62,1.84,5.23,5.23,0,0,1,1.62,4.06c-.24,2.44-2.59,4.31-7.18,5.73-4.28,1.32-8.79,2.28-13.15,3.21s-9,1.91-13.43,3.27c-11,3.39-19,8.74-23.51,15.9-.24.38-.47.77-.7,1.16a20.86,20.86,0,0,1-1.61,2.4l-18.42-2.8c-11.36-18.45-26.75-49.63-21.22-57.58,1.24-1.78,3.9-2.27,7.91-1.46,6.19,1.26,10.44,4.14,13.27,8-3,12.15-2.8,20.12-1.48,28.88a5.11,5.11,0,0,0,5.14,4.43h0a5.09,5.09,0,0,0,5.12-4.45c1.85-12.54.5-22.59-3.83-29.72,4.88-18.15,15.83-33.28,30.1-41.57a22.88,22.88,0,0,1,4.65-2c2.09-.65,2.85-.42,3.12-.23a3.34,3.34,0,0,1,.84,1.83c1.28,5.37.24,11.07-1.16,15.88-10.58,5.06-19,12.42-24.3,21.49-3.42,5.86-4.34,11.12-2.75,15.62a4.07,4.07,0,0,0,1.91,2.42,4.13,4.13,0,0,0,2.85.25c5.67-1.22,9.63-5.8,12.75-10.11a93.1,93.1,0,0,0,13-25.48c.1-.29.19-.58.29-.88a74.63,74.63,0,0,1,18.88-5.37c3.6-.54,8.29-1,12.65,0s7.64,3.3,9.36,6.39c1.39,2.51,1.86,5.74,1.38,9.61-1.08,8.81-6.52,17.51-14.94,23.87Zm-70.34-4.33c2.22,6.69,2,14.64,1,21.73a.55.55,0,0,1-.6.53.53.53,0,0,1-.6-.53,61.24,61.24,0,0,1,.23-21.73Zm89.83-19c.6-4.86-.05-9-1.92-12.4-2.35-4.22-6.85-7.37-12.34-8.63-5.11-1.18-10.36-.63-14.36,0a80.24,80.24,0,0,0-16.66,4.32,32.51,32.51,0,0,0,.28-14.68,7.45,7.45,0,0,0-2.62-4.49c-2.31-1.65-5.19-1-7.16-.41a27.41,27.41,0,0,0-5.58,2.44c-14.43,8.38-25.68,23.2-31.28,41.06a26.3,26.3,0,0,0-13.84-7.12c-6-1.21-10.2-.09-12.58,3.33-9.18,13.2,18.46,58.41,21.64,63.52a2.29,2.29,0,0,0,1.6,1.06l20.63,3.12a2,2,0,0,0,.34,0,2.33,2.33,0,0,0,1.51-.56,16.71,16.71,0,0,0,3.21-4.21l.65-1.06c4-6.21,11-10.92,21-14,4.24-1.3,8.71-2.26,13-3.18s9.07-1.93,13.54-3.31c2.41-.74,9.75-3,10.39-9.67a9.78,9.78,0,0,0-2.9-7.7,12.83,12.83,0,0,0-1.89-1.6c8.6-7,14.15-16.34,15.31-25.86Z"/><path class="cls-7" d="M714.33,689.37l-61.19-9.07c-3.81-.56-6.55-3.71-6.23-7.16l6.64-71.36c.35-3.69,4.05-6.28,8.14-5.68l68.86,10.2c4.08.61,6.88,4.16,6.14,7.8l-14.32,70.21c-.7,3.39-4.23,5.62-8,5.06Z"/><path class="cls-7" d="M136.13,137a42.28,42.28,0,0,0,62,34.7v0l17.23,1.07a4.63,4.63,0,0,0,4.85-5.42l-2.91-16.5h0A42.29,42.29,0,1,0,136.13,137Z"/><path class="cls-5" d="M195.45,139a3.36,3.36,0,0,0-4.76,0,17.38,17.38,0,0,1-24.57,0,3.37,3.37,0,0,0-4.76,4.76,24.08,24.08,0,0,0,34.09,0,3.36,3.36,0,0,0,0-4.76Z"/><path class="cls-5" d="M165.21,131.68a4.65,4.65,0,1,0-4.65-4.65,4.65,4.65,0,0,0,4.65,4.65Z"/><path class="cls-5" d="M191.05,131.68A4.65,4.65,0,1,0,186.4,127a4.65,4.65,0,0,0,4.65,4.65Z"/><path class="cls-7" d="M777.84,412.43H121.35a4.91,4.91,0,0,0-4.91,4.91v7a4.91,4.91,0,0,0,4.91,4.91H777.84a4.91,4.91,0,0,0,4.91-4.91v-7a4.9,4.9,0,0,0-4.91-4.91Z"/><path class="cls-5" d="M673.55,74.93h-3a37.85,37.85,0,0,0-54.13-33,57.69,57.69,0,0,0-105,33h-.92a28.85,28.85,0,1,0,0,57.7h163a28.85,28.85,0,1,0,0-57.7Z"/><path class="cls-6" d="M510.53,77.22a26.56,26.56,0,1,0,0,53.12h163a26.56,26.56,0,1,0,0-53.12h-3A2.3,2.3,0,0,1,668.3,75a35.56,35.56,0,0,0-50.85-31,2.3,2.3,0,0,1-2.87-.76A55.4,55.4,0,0,0,513.74,74.93a2.3,2.3,0,0,1-2.29,2.29Zm163,57.71h-163a31.15,31.15,0,0,1-1.34-62.27A60,60,0,0,1,617.22,39a40.17,40.17,0,0,1,55.54,33.59h.79a31.15,31.15,0,1,1,0,62.3Z"/><path class="cls-5" d="M725.13,174.67V331.09a11.67,11.67,0,0,1-11.66,11.66H695.63a11.67,11.67,0,0,0,11.66-11.66V174.67A11.66,11.66,0,0,0,695.63,163h17.84a11.66,11.66,0,0,1,11.66,11.66Z"/><path class="cls-5" d="M707.29,174.67V331.09a11.67,11.67,0,0,1-11.66,11.66H472.42a11.67,11.67,0,0,1-11.66-11.66V174.67A11.66,11.66,0,0,1,472.42,163H695.63a11.66,11.66,0,0,1,11.66,11.66Z"/><path class="cls-7" d="M684.22,325.61H484.78a11.41,11.41,0,0,1-11.42-11.41V189.54a11.41,11.41,0,0,1,11.42-11.41H684.22a11.41,11.41,0,0,1,11.41,11.41V314.2a11.41,11.41,0,0,1-11.41,11.41Z"/><polygon class="cls-5" points="618.29 397.21 572.92 397.21 572.92 342.75 618.29 342.75 618.29 397.21 618.29 397.21"/><path class="cls-5" d="M653.83,409.81H531.05a3.92,3.92,0,0,1-3.91-3.92v-4.77a3.91,3.91,0,0,1,3.91-3.91H653.83a3.91,3.91,0,0,1,3.91,3.91v4.77a3.92,3.92,0,0,1-3.91,3.92Z"/><path class="cls-6" d="M722.83,331.09a9.38,9.38,0,0,1-9.36,9.37H706c.08-.09.15-.19.23-.27l.37-.45c.15-.19.29-.38.43-.58l.33-.48c.13-.2.26-.41.38-.62l.28-.51c.12-.22.22-.44.32-.67s.17-.34.24-.52.18-.48.26-.72.13-.35.18-.53.14-.52.2-.78.09-.34.13-.52.1-.59.14-.89,0-.3.06-.45c0-.46.07-.92.07-1.38V174.67c0-.46,0-.92-.07-1.38,0-.15,0-.3-.06-.45,0-.3-.08-.6-.14-.89s-.08-.35-.13-.52-.12-.52-.2-.78-.12-.36-.18-.53-.17-.48-.26-.72-.16-.35-.24-.52-.2-.45-.32-.67l-.28-.5c-.12-.21-.25-.42-.38-.63l-.33-.48-.43-.57c-.12-.16-.25-.3-.37-.45s-.15-.19-.23-.27h7.51a9.37,9.37,0,0,1,9.36,9.36V331.09Zm-17.84,0a9.38,9.38,0,0,1-9.36,9.37H472.42a9.38,9.38,0,0,1-9.36-9.37V174.67a9.37,9.37,0,0,1,9.36-9.36H695.63a9.37,9.37,0,0,1,9.36,9.36V331.09Zm-89,63.83H575.21V345H616v49.88Zm39.46,5.88v5.42a1.29,1.29,0,0,1-1.29,1.29H530.73a1.3,1.3,0,0,1-1.3-1.29V400.8a1.3,1.3,0,0,1,1.3-1.3H654.16a1.3,1.3,0,0,1,1.29,1.3Zm58-240.08h-241a14,14,0,0,0-13.95,13.95V331.09a14,14,0,0,0,13.95,14h98.21v49.88h-39.9a5.88,5.88,0,0,0-5.88,5.88v5.42a5.88,5.88,0,0,0,5.88,5.88H654.16a5.89,5.89,0,0,0,5.88-5.88V400.8a5.89,5.89,0,0,0-5.88-5.88H620.58V345h92.89a14,14,0,0,0,13.95-14V174.67a14,14,0,0,0-13.95-13.95Z"/><path class="cls-5" d="M629.6,152.15v62.31a5.76,5.76,0,0,1-5.75,5.77H560.22a5.77,5.77,0,0,1-5.75-5.77V127.88a5.75,5.75,0,0,1,5.75-5.75h41.85l27.53,30Z"/><path class="cls-5" d="M602.07,146.4V122.13l27.53,30H607.81a5.74,5.74,0,0,1-5.74-5.75Z"/><path class="cls-6" d="M623.85,217.93H560.22a3.46,3.46,0,0,1-3.45-3.46V127.88a3.46,3.46,0,0,1,3.45-3.46h39.55v22a8.05,8.05,0,0,0,8,8h19.5v60a3.46,3.46,0,0,1-3.46,3.46ZM604.36,128l20,21.83H607.81a3.46,3.46,0,0,1-3.45-3.45V128Zm27.51,23.81a.2.2,0,0,1,0-.07,2.53,2.53,0,0,0-.18-.55.61.61,0,0,0,0-.12,2.38,2.38,0,0,0-.34-.49l-27.54-30a1.43,1.43,0,0,0-.32-.28l-.09-.07a1.64,1.64,0,0,0-.29-.16l-.09,0a3.1,3.1,0,0,0-.4-.13h-.08l-.35,0H560.22a8.05,8.05,0,0,0-8,8v86.59a8.06,8.06,0,0,0,8,8.05h63.63a8,8,0,0,0,8-8.05V152.15c0-.11,0-.22,0-.32Z"/><path class="cls-6" d="M579.76,174.33l9.61-8.81V190.7a2.3,2.3,0,0,0,4.59,0V165.26l10.39,9.11a2.31,2.31,0,0,0,1.51.57,2.29,2.29,0,0,0,1.51-4l-14.14-12.39a2.29,2.29,0,0,0-3.06,0L576.66,171a2.29,2.29,0,1,0,3.1,3.38Z"/><path class="cls-6" d="M607.25,200H576.83a2.29,2.29,0,0,0,0,4.58h30.42a2.29,2.29,0,0,0,0-4.58Z"/><path class="cls-5" d="M502.94,391.33s-9.65,28.24-25.49,50.33c-7.68,10.72-16.81,20-27,23.89-31.19,11.95-63.1-23.43-63.1-23.43S328.73,482,258.94,481.73q-3.78,0-7.61-.18a19.16,19.16,0,0,1-17.61-14.24l-4.48-16.95s-48,3.34-56.29-42.75c-3.9-21.6,3.73-46.76,19.22-68.73,23.09-32.76,60.3-52.7,100.33-54.92,21.56-1.21,53.71-.42,74.58,11.86C400.89,315.7,440,370.56,440,370.56l30.63-18.77s.9.65,2.41,1.84c6.18,4.9,22.58,19,29.08,35.47.3.73.57,1.48.82,2.23Z"/><path class="cls-6" d="M475.59,440.33c-8.62,12-17.35,19.78-26,23.08-29.35,11.24-60.27-22.48-60.58-22.83,0,0-.05,0-.07-.06l-.07-.08c-9.08-8.41-43.7-62.91-44.05-63.46a2.29,2.29,0,1,0-3.87,2.45c1.34,2.13,31.25,49.2,42.79,62.27-11.37,7.12-63.7,37.74-124.07,37.74h-.77c-2.5,0-5-.07-7.5-.18a16.79,16.79,0,0,1-15.5-12.54l-4.47-16.87c-.5-2.67-12.06-65.16-7.47-108.17a2.29,2.29,0,0,0-4.56-.49c-4.19,39.26,4.83,94.25,7.06,106.92a64.92,64.92,0,0,1-21.62-4c-16.41-6.26-26.39-18.66-29.67-36.87-3.68-20.38,3.18-44.81,18.83-67,22.61-32.07,58.54-51.73,98.58-53.95,22.36-1.25,53.23-.26,73.3,11.54,33,19.41,71.83,73.56,72.22,74.11h0l14.78,20.65a2.32,2.32,0,0,0,1.87,1,2.27,2.27,0,0,0,1.33-.43,2.29,2.29,0,0,0,.53-3.2L443.3,371.23l27.2-16.67,1.12.87c6.45,5.11,22.13,18.71,28.37,34.52.19.47.36.93.52,1.37-1.63,4.55-10.86,29.39-24.92,49Zm29.53-49.72c-.26-.77-.54-1.54-.87-2.35-6.64-16.84-23-31.08-29.79-36.43-1.53-1.2-2.45-1.87-2.49-1.9a2.28,2.28,0,0,0-2.54-.09L440.62,367.5c-7.07-9.67-41.53-55.52-72.38-73.66-21.05-12.38-52.88-13.45-75.87-12.17A136.71,136.71,0,0,0,234.89,298a132,132,0,0,0-44.6,39.61C173.94,360.75,166.8,386.43,170.7,408c4.48,24.86,20.25,35.69,32.7,40.39a68.87,68.87,0,0,0,24.09,4.3l4,15.18a21.38,21.38,0,0,0,19.73,15.95c2.54.12,5.13.18,7.7.19h.78C322.62,484,377,451.45,387,445.08c6.57,6.74,35.3,33.71,64.28,22.61,9.46-3.62,18.9-11.93,28-24.69,15.86-22.12,25.4-49.76,25.8-50.93a2.35,2.35,0,0,0,0-1.46Z"/><path class="cls-6" d="M566.26,653.85l-6.71-1.13-2.21-.37-1.87-.31-45.29-7.61-2.25-.38-1.82-.3L487,640.54s17-75.23-12.38-103.87-76.29-21.3-76.29-21.3S453.6,563,433,630.33l-17.81-.46-2.79-.08-1.37,0-46-1.21-1.54,0-2.58-.07-18-.47s-3.49-69-48-99.58a95.24,95.24,0,0,1-36-46.67c69.79.31,128.41-39.61,128.41-39.61s31.91,35.38,63.1,23.43c10.19-3.9,19.32-13.17,27-23.89,30.07,7.79,61.89,22.49,84.56,49.86,56.8,68.59,4.25,162.33,4.25,162.33Z"/><path class="cls-5" d="M360.46,521.9c-23.27,0-50.4-3.13-65.3-15.75a2.29,2.29,0,1,1,3-3.5C325.5,525.83,401,514.46,401.75,514.34a2.29,2.29,0,0,1,.71,4.53,301.4,301.4,0,0,1-42,3Z"/><path class="cls-5" d="M336.84,251.35c-5,20.62-31.49,26.51-44.35,20.91a25.4,25.4,0,0,1-8.85-6.33,26,26,0,0,1-6.14-11.85s-7.56,1.14-12-7.8,3.44-32.06,24.15-14.05c0,0,10.2-8.79,9.42-17.14,0,0,21.63-1.2,27.15-5.76,0,0,15.59,21.39,10.62,42Z"/><path class="cls-6" d="M326.22,209.33c-5.52,4.56-27.15,5.76-27.15,5.76.78,8.35-9.42,17.14-9.42,17.14-20.71-18-28.58,5.11-24.15,14.05s12,7.8,12,7.8a26,26,0,0,0,6.14,11.85s-10.46,3.67-23.64-1.05-10.52-23.09-10.52-23.09-15.79-2.58-13.41-30.88,41.43-29.68,41.43-29.68-9.28-20.29,11.86-23.48,24.11,18.47,24.11,18.47c3.35-9,28.24-16,32.28,5s-19.53,28.1-19.53,28.1Z"/><path class="cls-6" d="M334.61,250.81c-2.27,9.42-9.14,14.58-14.5,17.25-8.66,4.31-19.64,5.17-26.71,2.1a23.24,23.24,0,0,1-8.06-5.76,24,24,0,0,1-5.58-10.7,2.32,2.32,0,0,0-2.29-1.9h-.29c-.25,0-6,.69-9.63-6.55-2.06-4.16-.76-12.47,3.64-15.86,5.12-4,12.05.29,16.95,4.56a2.29,2.29,0,0,0,3,0c.42-.36,9.38-8.18,10.2-16.74,5.24-.39,17.87-1.63,24.21-4.79,3.43,5.4,12.93,22.3,9.06,38.37ZM328.08,208a2.29,2.29,0,0,0-3.32-.42c-3.59,3-17.74,4.79-25.82,5.24a2.29,2.29,0,0,0-1.61.79,2.31,2.31,0,0,0-.55,1.71c.47,5-4.22,10.84-7.22,13.87-10.91-8.69-17.9-5.93-21.17-3.4-6.36,4.91-7.88,15.6-4.95,21.53,3.66,7.36,9.24,8.86,12.27,9.09a29.1,29.1,0,0,0,6.23,11.08,27.75,27.75,0,0,0,9.64,6.9,29.77,29.77,0,0,0,11.75,2.17,43.29,43.29,0,0,0,18.82-4.38c6.23-3.1,14.23-9.14,16.91-20.27,5.17-21.41-10.32-43-11-43.91Z"/><path class="cls-6" d="M321.13,227.09a11.33,11.33,0,0,0-4.53,1.85,2.29,2.29,0,0,0,2.36,3.93,7.69,7.69,0,0,1,2.71-1.23,4.79,4.79,0,0,1,3.17,1.19,2.23,2.23,0,0,0,1.41.5,2.3,2.3,0,0,0,1.43-4.1,9,9,0,0,0-6.55-2.14Z"/><path class="cls-6" d="M285.16,239.53A19.26,19.26,0,0,0,273.54,237a2.29,2.29,0,1,0,.47,4.56,14.65,14.65,0,0,1,8.83,1.92,2.26,2.26,0,0,0,1.16.32,2.29,2.29,0,0,0,1.16-4.27Z"/><path class="cls-6" d="M325.36,246.47a9.12,9.12,0,0,1-6.3,4.23,8,8,0,0,1-6.61-2.69,2.29,2.29,0,0,0-3.32,3.16,12.75,12.75,0,0,0,9.18,4.16c.42,0,.84,0,1.26-.07a13.66,13.66,0,0,0,9.59-6.23,2.29,2.29,0,1,0-3.8-2.56Z"/><path class="cls-5" d="M343.64,669.51A76.92,76.92,0,0,1,350.4,649a13.62,13.62,0,0,1,18-6.65,12.06,12.06,0,0,1,2.54,1.61c6.36,5.22,7.47,12.79,15.25,10.62s18.12-14.13,28.87-5.59c6.63,5.28,11,12.42,13.37,17.11a22.71,22.71,0,0,0,7.35,8.45L448.14,683l6,4.16a10.09,10.09,0,0,1,4.36,9.14,31.31,31.31,0,0,1-.82,4.95c-1.32,5.25-4.4,10.64-11.32,11.86-14.34,2.53-87.12-7.26-99.25-23.77-4.06-5.53-4.59-12.73-3.5-19.85Z"/><path class="cls-5" d="M412.42,629.79l-1.9,14.43c-6.75-1.76-13.17,2-18.16,4.9a32.56,32.56,0,0,1-6.74,3.33c-3.65,1-5-.49-7.91-4.31a34.27,34.27,0,0,0-5.39-5.9,13.86,13.86,0,0,0-3-1.88,14.88,14.88,0,0,0-6.35-1.48l.52-10.36,48.92,1.27Z"/><path class="cls-6" d="M456.34,697.59a2.2,2.2,0,0,1-.49,1.37,2.45,2.45,0,0,1-1.39.55c-18.59,3-37.74.81-55.68-4.61s-34.58-14-50.29-24l-.39-.24a3.89,3.89,0,0,1-1.88-2,2.56,2.56,0,0,1-.05-.27,4.27,4.27,0,0,1,.14-1.54,68.49,68.49,0,0,1,5-14.68,18.42,18.42,0,0,1,4.82-6.85,10.77,10.77,0,0,1,6.66-2.22,10.62,10.62,0,0,1,5,1.26c2.92,1.62,4.9,4.5,7,7.1s4.77,5.12,8.1,5.51a11.61,11.61,0,0,1,1.77.25,6.27,6.27,0,0,1,2.79,2.27q1.76,2.13,3.6,4.2c6.62,7.48,14,14.35,22.82,19,10.44,5.47,23.23,7.42,34.11,2.88a21.55,21.55,0,0,1,5,3.38,10,10,0,0,1,3.39,8.64Zm-7.86,12.66a24,24,0,0,1-8.74,1.09c-17.26-.15-34.39-3.06-51.24-6.83-9.38-2.1-18.75-4.49-27.58-8.31a47.35,47.35,0,0,1-5.1-2.52,23.74,23.74,0,0,1-5.93-4.65c-.3-.34-.59-.7-.87-1a18.74,18.74,0,0,1-3.52-14.45c0,.48,5.56,3.73,6.19,4.14s1,.67,1.56,1c1.6,1,3.23,1.93,4.85,2.88,4.51,2.62,9.12,5.09,13.8,7.37A174,174,0,0,0,400.67,700c17.39,4.92,35.77,6.71,53.65,4.06-.6,2.89-3.08,5.11-5.84,6.16Zm-54-57.41c5-2.93,10.19-6,15.43-4.28a11.9,11.9,0,0,1,3.77,2.07c6.22,5,10.39,11.65,12.78,16.39a25.08,25.08,0,0,0,8.05,9.25l9.05,6.24-.29.1-.51.16-.75.21-.54.14-.74.16c-.17.05-.36.08-.54.12-.37.07-.76.15-1.14.2s-.49.08-.74.1l-.48.07-.78.07-.4,0-.85,0h-.27c-15.77.52-30.46-11.61-39.23-20.76-3-3.1-5.27-5.85-6.7-7.66,1.59-.74,3.2-1.69,4.88-2.67ZM430,649.77a21.85,21.85,0,0,1,7-7.36,8.92,8.92,0,0,1,3.76-1.54,3.43,3.43,0,0,1,.64,0,3.17,3.17,0,0,1,2.16.88,3.35,3.35,0,0,1,.46,3,8.89,8.89,0,0,1-2.26,3.59,21.7,21.7,0,0,1-8.09,5.42c-.83.32-1.69.59-2.6.87-1.18.38-2.38.75-3.55,1.24a18.54,18.54,0,0,1,2.45-6.08Zm14.66,10c1.32.4,3.67,1.34,4.63,3.25a1.87,1.87,0,0,1,.26,1,2.46,2.46,0,0,1-1.28,1.33c-5.27,3-14-.56-18.52-3.72a6,6,0,0,1-.85-.73,35.61,35.61,0,0,1,11.47-1.81,17.87,17.87,0,0,1,4.29.69Zm10.69,25.62-6-4.16L437,672.73a20.44,20.44,0,0,1-4.89-4.8,28.19,28.19,0,0,0,10.56,2.89,14.08,14.08,0,0,0,7.8-1.74,6.38,6.38,0,0,0,3.37-4.39,5.92,5.92,0,0,0-.67-3.6c-1.61-3.18-4.83-4.71-7.25-5.42a22.58,22.58,0,0,0-5-.88,25.06,25.06,0,0,0,4.09-3.53,13,13,0,0,0,3.27-5.38,7.62,7.62,0,0,0-1.41-7,7.52,7.52,0,0,0-6.48-2.28,13,13,0,0,0-5.61,2.2,26.19,26.19,0,0,0-8.42,8.8,23.56,23.56,0,0,0-2.83,6.8,46,46,0,0,0-7.1-7.13,16.84,16.84,0,0,0-3.85-2.33l2.66-15-2.79-.08-1.37,0-2.51,14.11c-6-.67-11.68,2.61-16.18,5.25a32.56,32.56,0,0,1-6.74,3.33c-3.65,1-5-.49-7.91-4.31a34.27,34.27,0,0,0-5.39-5.9,13.86,13.86,0,0,0-3-1.88,15,15,0,0,0-4.29-1.3V628.55l-1.54,0-2.58-.07V639a15.52,15.52,0,0,0-3.59.86,16.07,16.07,0,0,0-8.88,8.15,85.93,85.93,0,0,0-6.18,17.22c-.3,1.3-.56,2.62-.76,3.94a42.27,42.27,0,0,0-.52,6.45,31.08,31.08,0,0,0,.41,5.21,23.8,23.8,0,0,0,1.88,6.18,20.47,20.47,0,0,0,2.13,3.62c2,2.79,5.65,5.4,10.32,7.77,19.72,10.08,58.39,16.24,79.33,17.15a60.74,60.74,0,0,0,11.7-.31c6.61-1.16,11.11-5.81,13-13.45a33.42,33.42,0,0,0,.88-5.28c0-.35,0-.69,0-1a12.28,12.28,0,0,0-5.33-10.07Z"/><path class="cls-5" d="M489.4,685.84a77,77,0,0,1,6.76-20.57,13.61,13.61,0,0,1,18-6.64,12.7,12.7,0,0,1,2.54,1.6c6.36,5.23,7.47,12.8,15.25,10.63s18.11-14.14,28.86-5.59c6.64,5.28,11,12.42,13.38,17.11a22.53,22.53,0,0,0,7.35,8.45l12.35,8.52,6,4.16a10.06,10.06,0,0,1,4.35,9.14,31.24,31.24,0,0,1-.81,5c-1.33,5.25-4.4,10.64-11.33,11.86C577.81,732,505,722.19,492.9,705.69c-4.06-5.54-4.59-12.73-3.5-19.85Z"/><path class="cls-5" d="M557.34,652.35,556,660.47c-6.65-1.58-12.94,2.1-17.85,5a32.34,32.34,0,0,1-6.73,3.34c-3.65,1-5-.49-7.92-4.31a33.9,33.9,0,0,0-5.39-5.91,14.61,14.61,0,0,0-3-1.88,15.18,15.18,0,0,0-8.51-1.35l1.35-11.28,49.41,8.3Z"/><path class="cls-6" d="M602.09,713.91a2.16,2.16,0,0,1-.48,1.38,2.31,2.31,0,0,1-1.4.54c-18.59,3-37.73.82-55.68-4.6s-34.85-14.1-50.67-24.22a3.85,3.85,0,0,1-1.88-2,3.67,3.67,0,0,1,.08-1.8,69.13,69.13,0,0,1,5-14.69,18.41,18.41,0,0,1,4.83-6.84,10.23,10.23,0,0,1,4.18-2,10.68,10.68,0,0,1,7.46,1c2.94,1.61,4.9,4.49,7,7.09s4.77,5.11,8.1,5.51a9.56,9.56,0,0,1,1.77.25,4.56,4.56,0,0,1,1.93,1.3c.31.31.58.64.86,1,7.54,9.06,16,17.69,26.41,23.15s23.23,7.41,34.12,2.89a20.91,20.91,0,0,1,5,3.37,9.92,9.92,0,0,1,3.38,8.63Zm-7.86,12.66a23.79,23.79,0,0,1-8.74,1.09c-17.26-.14-34.38-3-51.22-6.82-9.39-2.1-18.77-4.49-27.6-8.31-4.05-1.76-8.07-3.88-11-7.17-.31-.34-.59-.7-.87-1.06a18.75,18.75,0,0,1-3.53-14.44c0,.47,5.56,3.72,6.2,4.14,2.09,1.37,4.25,2.62,6.42,3.87q6.75,3.95,13.79,7.39a173.57,173.57,0,0,0,28.77,11.09c17.39,4.92,35.78,6.73,53.65,4.07-.6,2.89-3.09,5.11-5.85,6.15Zm-53.94-57.4c4.87-2.85,9.87-5.77,15-4.43a11.66,11.66,0,0,1,4.24,2.22c6.23,5,10.39,11.65,12.8,16.39a25.08,25.08,0,0,0,8,9.26l9,6.24-.28.09-.51.15-.75.21-.54.14-.74.18-.53.11c-.39.08-.76.14-1.15.2l-.74.1a3.7,3.7,0,0,1-.48.06l-.79.08-.39,0-.86,0h-.26c-17.09.57-32.89-13.71-41.3-23h0c-2-2.18-3.54-4.08-4.62-5.45,1.58-.74,3.2-1.68,4.88-2.66Zm35.52-3.08a21.76,21.76,0,0,1,7-7.35,8.84,8.84,0,0,1,3.76-1.54,3.54,3.54,0,0,1,.65,0,3.19,3.19,0,0,1,2.15.88,3.29,3.29,0,0,1,.47,3,8.73,8.73,0,0,1-2.27,3.58,21.33,21.33,0,0,1-8.09,5.43c-.82.32-1.68.58-2.59.87-1.18.37-2.38.75-3.55,1.23a18.24,18.24,0,0,1,2.46-6.08Zm14.65,10c1.32.39,3.66,1.34,4.64,3.25a1.85,1.85,0,0,1,.24,1c-.05.39-.55.89-1.27,1.32-5.27,3-14-.56-18.51-3.73a6.77,6.77,0,0,1-.86-.71,35.63,35.63,0,0,1,11.46-1.83,18.39,18.39,0,0,1,4.3.7Zm10.7,25.61-6-4.15-12.35-8.52a20.71,20.71,0,0,1-4.9-4.81,27.92,27.92,0,0,0,10.57,2.89,14.1,14.1,0,0,0,7.79-1.72,6.41,6.41,0,0,0,3.38-4.39,6.08,6.08,0,0,0-.67-3.61c-1.61-3.18-4.83-4.71-7.26-5.43a21.9,21.9,0,0,0-5-.86,26.59,26.59,0,0,0,4.09-3.54A12.81,12.81,0,0,0,594,662.2a7.08,7.08,0,0,0-7.88-9.29,13,13,0,0,0-5.62,2.2,26.2,26.2,0,0,0-8.42,8.8,23.65,23.65,0,0,0-2.81,6.81,46,46,0,0,0-7.1-7.14,16.63,16.63,0,0,0-4.16-2.45l1.54-8.41-2.21-.37-1.87-.31L554,660.17c-5.92-.54-11.47,2.69-15.89,5.27a32.34,32.34,0,0,1-6.73,3.34c-3.65,1-5-.49-7.92-4.31a33.9,33.9,0,0,0-5.39-5.91,14.61,14.61,0,0,0-3-1.88,15,15,0,0,0-6.16-1.46l1.25-10.79-2.25-.38-1.82-.3-1.39,11.94a14.8,14.8,0,0,0-1.64.52,15.94,15.94,0,0,0-8.87,8.13c-2.49,5.23-5.72,13.14-6.94,21.17a42.45,42.45,0,0,0-.52,6.48c0,6,1.48,11,4.41,15,10.76,14.64,63.76,23.79,89.66,24.92a60.11,60.11,0,0,0,11.7-.3c6.6-1.17,11.1-5.82,13-13.46a33.44,33.44,0,0,0,.87-5.28c0-.35.05-.69.05-1a12.31,12.31,0,0,0-5.32-10.08Z"/><path class="cls-5" d="M555.71,335.1a4.34,4.34,0,0,1-.67.84,7.66,7.66,0,0,1-3.93,1.86,34.09,34.09,0,0,1-8.74.39c-1-.06-4.19.27-5-.32a19,19,0,0,1,7.07,9.56A14.59,14.59,0,0,1,545,350a13.7,13.7,0,0,1-3,10.68,7.65,7.65,0,0,1-5.21,2.11,22.72,22.72,0,0,1-6.47-1.73,32.1,32.1,0,0,1-7.6,14.4c-5.14,5.71-13.66,10.33-20.57,13.68-6.5-16.47-22.9-30.57-29.08-35.47,8.25-11.22,18.55-22.09,30.38-29.62a19,19,0,0,1,4.54-2.44c5.24-1.56,11-.93,16.28-.16,4.6.67,9.1,1.77,13.64,2.7A72.35,72.35,0,0,1,551.51,328a10.41,10.41,0,0,1,3.56,2.21,4,4,0,0,1,.64,4.91Z"/><path class="cls-6" d="M553.75,333.9a2,2,0,0,1-.32.41,5.42,5.42,0,0,1-2.76,1.24,32.39,32.39,0,0,1-8.16.36c-.38,0-.88,0-1.45,0a17.62,17.62,0,0,1-2.54,0c-.5-.37-1-.72-1.55-1a34.39,34.39,0,0,0-14.22-4.48,2.29,2.29,0,1,0-.5,4.56,29.86,29.86,0,0,1,12.35,3.85c.48.29,1,.61,1.4.94h0a18.24,18.24,0,0,1,4.82,5.25,63.61,63.61,0,0,0-12.55-4.29,2.29,2.29,0,0,0-1,4.47,51,51,0,0,1,15.52,6.12,11.31,11.31,0,0,1-2.54,7.88,5.59,5.59,0,0,1-3.42,1.32h0a16.8,16.8,0,0,1-3.92-.92,25.82,25.82,0,0,0,.23-5.18,2.29,2.29,0,0,0-4.58.27,22.54,22.54,0,0,1-.47,5.91h0A29.9,29.9,0,0,1,521,373.88c-4.47,5-11.82,9.14-17.69,12.09-6.58-14.54-20-26.87-27.09-32.73,8.78-11.6,18.58-21,28.45-27.3l.53-.34a14.55,14.55,0,0,1,3.43-1.83c4.83-1.44,10.2-.83,15.3-.09,3.22.47,6.48,1.17,9.63,1.85l3.88.83a67.52,67.52,0,0,1,13.19,3.74,8.26,8.26,0,0,1,2.79,1.67,1.7,1.7,0,0,1,.35,2.13Zm3-5.28a12.35,12.35,0,0,0-4.34-2.75,72.65,72.65,0,0,0-14.06-4c-1.28-.26-2.55-.53-3.83-.81-3.23-.7-6.57-1.42-9.94-1.91-5.35-.78-11.55-1.47-17.27.23a18.08,18.08,0,0,0-4.61,2.38l-.51.32c-10.83,6.9-21.54,17.35-31,30.21a2.29,2.29,0,0,0,.43,3.15c6.45,5.11,22.13,18.71,28.37,34.51a2.31,2.31,0,0,0,1.3,1.3,2.39,2.39,0,0,0,.83.15,2.16,2.16,0,0,0,1-.23c6.46-3.13,15.69-8,21.27-14.21A34.87,34.87,0,0,0,531.87,364a18.26,18.26,0,0,0,4.87,1h.07a10,10,0,0,0,6.89-2.89,15.77,15.77,0,0,0,3.63-11.58,2.39,2.39,0,0,0-.18-1.56,17.26,17.26,0,0,0-.51-2.25,19.66,19.66,0,0,0-3.26-6.22,33.52,33.52,0,0,0,8.18-.5,9.77,9.77,0,0,0,5.1-2.48,7,7,0,0,0,1-1.25h0a6.29,6.29,0,0,0-.92-7.69Z"/><polygon class="cls-5" points="331.69 657.84 310.45 657.84 310.45 550.17 331.69 550.17 331.69 657.84 331.69 657.84"/><path class="cls-6" d="M329.4,655.76H312.74V552.26H329.4v103.5Zm2.29-107.68H310.45a2.2,2.2,0,0,0-2.29,2.09V657.84a2.19,2.19,0,0,0,2.29,2.09h21.24a2.2,2.2,0,0,0,2.29-2.09V550.17a2.2,2.2,0,0,0-2.29-2.09Z"/><path class="cls-7" d="M412,548.19H231.42a7.49,7.49,0,0,1-7.49-7.49v-9.16a7.5,7.5,0,0,1,7.49-7.49H412a7.5,7.5,0,0,1,7.5,7.49v9.16a7.49,7.49,0,0,1-7.5,7.49Z"/><path class="cls-7" d="M350.13,659.93H285.34a31.56,31.56,0,0,0-31.55,31.55h0V698a3.41,3.41,0,0,0,3.4,3.41h5.6a3.41,3.41,0,0,0,3.4-3.41v-8.54a18.18,18.18,0,0,1,18.17-18.17h74.2a18.17,18.17,0,0,1,18.17,18.17V698a3.41,3.41,0,0,0,3.4,3.41h5.6a3.41,3.41,0,0,0,3.4-3.41v-6.53a31.55,31.55,0,0,0-31.55-31.55Z"/><path class="cls-6" d="M276.59,723.08a16.18,16.18,0,1,1-16.17-16.18,16.17,16.17,0,0,1,16.17,16.18Z"/><path class="cls-6" d="M398.86,723.08a16.18,16.18,0,1,1-16.17-16.18,16.17,16.17,0,0,1,16.17,16.18Z"/></g></g></svg>