<svg xmlns="http://www.w3.org/2000/svg" viewBox="0 0 48.01 38.01"><defs><style>.cls-1{fill:#5cfbd8;}.cls-2{fill:#ededed;}</style></defs><title>sobre-mi1</title><g id="Capa_2" data-name="Capa 2"><g id="Capa_1-2" data-name="Capa 1"><path class="cls-1" d="M26.5,34H4V31L14,19C24.24,31.31,21.42,27.91,26.5,34Z"/><polygon class="cls-1" points="36 29.9 36 34.01 29.1 34.01 23.84 27.7 29 21.5 36 29.9"/><path class="cls-2" d="M45.26,3,11.39,0A3.06,3.06,0,0,0,9.2.71C8,1.73,8.14,2.78,7.85,6H3A3,3,0,0,0,0,9V35a3,3,0,0,0,3,3H37a3,3,0,0,0,3-3v-.36l2.48.22a3,3,0,0,0,3.25-2.73h0L48,6.24A3,3,0,0,0,45.26,3ZM37,36H3a1,1,0,0,1-1-1V9A1,1,0,0,1,3,8H37a1,1,0,0,1,1,1V35A1,1,0,0,1,37,36Zm6.73-4a1,1,0,0,1-1.08.91L40,32.64V9a3,3,0,0,0-3-3H9.86l.28-3.09A1,1,0,0,1,11.21,2L45.08,5a1,1,0,0,1,.92,1Z"/><circle class="cls-1" cx="17" cy="12.01" r="2"/><path class="cls-2" d="M35,18H21c-2,0-1-4.45,2.4-5a5,5,0,0,1,9.2,0C36,13.57,36.93,18,35,18ZM22.27,16H33.73A2,2,0,0,0,32,15a1,1,0,0,1-1.11-.74,3,3,0,0,0-5.8,0A1,1,0,0,1,24,15,2,2,0,0,0,22.27,16Z"/></g></g></svg>