<svg xmlns="http://www.w3.org/2000/svg" viewBox="0 0 48 48"><defs><style>.cls-1{fill:#ededed;}.cls-2{fill:#5cfbd8;}</style></defs><title>sobre-mi2</title><g id="Capa_2" data-name="Capa 2"><g id="Capa_1-2" data-name="Capa 1"><path class="cls-1" d="M45,0H3A3,3,0,0,0,0,3V37a3,3,0,0,0,3,3H17.72l-1.5,6H15a1,1,0,0,0,0,2H33a1,1,0,0,0,0-2H31.78l-1.5-6H45a3,3,0,0,0,3-3V3A3,3,0,0,0,45,0ZM2,10H46V32H2ZM3,2H45a1,1,0,0,1,1,1V8H2V3A1,1,0,0,1,3,2ZM29.72,46H18.28l1.5-6h8.44ZM45,38H3a1,1,0,0,1-1-1V34H46v3A1,1,0,0,1,45,38Z"/><path class="cls-2" d="M6,5A1,1,0,1,1,5,4,1,1,0,0,1,6,5Z"/><path class="cls-2" d="M10,5A1,1,0,1,1,9,4,1,1,0,0,1,10,5Z"/><path class="cls-2" d="M14,5a1,1,0,1,1-1-1A1,1,0,0,1,14,5Z"/><path class="cls-2" d="M42,12H28a2,2,0,0,0-2,2v2a2,2,0,0,0,2,2H42a2,2,0,0,0,2-2V14A2,2,0,0,0,42,12Zm-2,4H30a1,1,0,0,1,0-2H40a1,1,0,0,1,0,2Z"/><path class="cls-1" d="M40,30H30a1,1,0,0,1,0-2H40a1,1,0,0,1,0,2Z"/><path class="cls-2" d="M42,20H28a2,2,0,0,0-2,2v2a2,2,0,0,0,2,2H42a2,2,0,0,0,2-2V22A2,2,0,0,0,42,20ZM31,24a1,1,0,1,1,1-1A1,1,0,0,1,31,24Zm4,0a1,1,0,1,1,1-1A1,1,0,0,1,35,24Zm4,0a1,1,0,1,1,1-1A1,1,0,0,1,39,24Z"/><circle class="cls-2" cx="14" cy="19" r="2"/><path class="cls-2" d="M14,12a9,9,0,1,0,9,9A9,9,0,0,0,14,12Zm6.06,12.5A6.89,6.89,0,0,0,17,21.66a4,4,0,0,1-5.65.35,3.85,3.85,0,0,1-.35-.35A6.89,6.89,0,0,0,7.94,24.5a7,7,0,1,1,12.12,0Z"/></g></g></svg>